<svg width="1720" height="101" viewBox="0 0 1720 101" fill="none" xmlns="http://www.w3.org/2000/svg">
<rect x="4.5" y="1.1875" width="409" height="99" rx="15.5" fill="#00CCFF" fill-opacity="0.04"/>
<rect x="4.5" y="1.1875" width="409" height="99" rx="15.5" stroke="#7CDEB5" stroke-dasharray="8 8"/>
<path fill-rule="evenodd" clip-rule="evenodd" d="M139.581 54.6623C140.811 51.7937 141.958 49.007 143.106 46.3023C143.597 45.1549 144.089 44.0074 144.581 42.9419C147.122 37.5325 153.761 37.0407 157.531 40.729C158.186 41.3847 158.514 41.2207 159.088 40.729C161.957 38.4341 165.235 37.6145 168.841 38.7619C169.989 39.1717 171.054 39.7454 171.874 40.647C172.448 41.3027 172.776 41.2207 173.349 40.647C176.464 38.1882 179.988 37.3686 183.676 38.9258C186.709 40.2372 188.43 42.696 188.43 46.1384C188.43 50.5643 188.43 54.9902 188.43 59.4161C188.43 61.8749 186.873 63.3502 184.496 63.1862C182.693 63.1043 181.463 61.547 181.381 59.4161C181.381 55.8098 181.381 52.1215 181.381 48.5153C181.381 48.1874 181.381 47.9415 181.381 47.6137C181.217 45.7286 180.07 44.4992 178.349 44.2533C176.382 44.0074 174.825 44.9909 174.333 46.7121C174.169 47.2858 174.169 47.7776 174.169 48.3513C174.169 51.9576 174.169 55.5639 174.169 59.1702C174.169 61.2192 173.185 62.6125 171.628 63.0223C169.497 63.5961 167.612 62.3666 167.284 60.2357C167.202 59.7439 167.202 59.2521 167.202 58.7604C167.202 55.1541 167.202 51.4658 167.202 47.8596C167.202 46.4662 166.71 45.2368 165.317 44.6631C163.924 44.0074 162.53 44.0894 161.219 45.0729C160.154 45.8925 159.908 47.04 159.908 48.2694C159.908 52.0396 159.908 55.8098 159.908 59.498C159.908 61.7929 158.432 63.1862 156.219 63.1862C154.252 63.1862 152.859 61.629 152.859 59.3341C152.859 54.9082 152.859 50.5643 152.859 46.1384C152.859 41.7125 152.859 45.6466 152.859 45.4007C152.859 44.909 152.613 44.4992 152.121 44.3353C151.548 44.1713 151.138 44.4172 150.892 44.9909C150.154 46.5482 149.417 48.1054 148.761 49.6627C147.286 52.8592 145.81 56.1376 144.335 59.3341C144.007 59.9898 143.597 60.7274 143.188 61.3012C141.385 63.8419 137.86 63.8419 135.975 61.3012C135.074 60.1537 134.582 58.7604 133.926 57.449C131.713 52.6953 129.582 47.9415 127.369 43.1878C126.468 41.1388 127.041 39.2537 128.926 38.4341C130.812 37.5325 132.779 38.4341 133.598 40.4831C135.483 44.827 137.286 49.2529 139.172 53.5968C139.254 53.8427 139.417 54.0886 139.581 54.4984V54.6623Z" fill="white"/>
<path fill-rule="evenodd" clip-rule="evenodd" d="M207.282 44.827C206.38 47.3678 205.479 49.9086 204.577 52.5313C203.512 55.4819 202.446 58.5145 201.462 61.4651C201.053 62.6125 200.479 63.1043 199.577 63.1043C198.594 63.1043 197.856 62.6125 197.446 61.547C194.988 54.8262 192.611 48.0235 190.152 41.3027C189.742 40.1552 190.152 39.2537 191.135 38.9258C192.201 38.516 193.184 39.0078 193.594 40.2372C195.479 45.5646 197.282 50.8921 199.086 56.1376C199.168 56.4654 199.332 56.8752 199.495 57.367C200.397 54.8262 201.217 52.4494 202.036 49.9905C203.184 46.7941 204.249 43.5976 205.397 40.4011C205.806 39.0897 206.298 38.7619 207.364 38.7619C208.429 38.7619 208.921 39.1717 209.331 40.4011C211.134 45.6466 212.937 50.8921 214.74 56.0556C214.904 56.3835 214.986 56.7933 215.15 57.285C216.052 54.5803 216.953 52.1215 217.855 49.5807C218.92 46.4662 220.068 43.3517 221.133 40.2372C221.379 39.5815 221.707 38.9258 222.526 38.7619C224.002 38.516 224.985 39.6635 224.493 41.0568C223.92 42.778 223.264 44.4992 222.608 46.3023C220.805 51.2199 219.084 56.2196 217.281 61.1372C217.281 61.3011 217.199 61.3831 217.117 61.547C216.707 62.5305 215.97 63.0223 215.068 63.0223C214.166 63.0223 213.511 62.5306 213.183 61.4651C212.363 59.0062 211.462 56.6294 210.642 54.1705C209.659 51.2199 208.593 48.2694 207.61 45.4007C207.61 45.1548 207.61 44.909 207.2 44.745L207.282 44.827Z" fill="white"/>
<path fill-rule="evenodd" clip-rule="evenodd" d="M242.118 59.3338C240.479 61.3008 238.594 62.5302 236.217 62.94C232.692 63.5957 229.414 63.2679 226.709 60.6451C223.431 57.5306 224.169 51.9573 228.103 49.6624C229.824 48.6788 231.709 48.269 233.594 48.1051C236.217 47.9412 238.758 48.1051 241.298 48.8428C242.036 49.0067 242.118 48.8428 242.118 48.1871C242.118 44.4989 239.905 42.122 236.299 41.9581C234.004 41.7941 231.791 41.9581 229.66 42.9416C228.758 43.3514 227.857 42.9416 227.529 42.122C227.201 41.3024 227.529 40.4828 228.267 40.1549C232.447 38.4337 236.709 38.1059 240.889 39.8271C243.757 40.9745 245.069 43.4333 245.396 46.3839C245.724 49.4985 245.478 52.613 245.56 55.7275C245.56 57.5306 245.56 59.3338 245.56 61.2189C245.56 62.3663 244.987 63.022 244.003 63.1859C242.938 63.2679 242.118 62.6122 242.036 61.5467C242.036 60.973 242.036 60.3173 242.036 59.4977L242.118 59.3338ZM235.479 50.8098C233.676 50.8098 231.873 51.0557 230.234 52.1212C227.775 53.7604 227.693 57.3667 230.07 59.1698C231.873 60.5632 233.922 60.7271 236.135 60.3173C238.921 59.7436 241.216 58.4322 242.036 55.4816C242.282 54.58 242.118 53.5965 242.2 52.613C242.2 52.0392 242.036 51.7934 241.462 51.6294C239.495 51.1377 237.528 50.8918 235.479 50.8098Z" fill="white"/>
<path fill-rule="evenodd" clip-rule="evenodd" d="M275.147 52.2844C272.524 52.2844 269.901 52.2844 267.279 52.2844C266.623 52.2844 266.459 52.4483 266.623 53.104C267.279 56.2185 268.836 58.6773 271.868 59.6608C275.229 60.8083 278.261 59.9887 280.966 57.6938C281.376 57.284 281.786 56.9561 282.441 57.0381C283.097 57.0381 283.589 57.4479 283.753 58.0216C283.999 58.6773 283.753 59.251 283.343 59.7428C281.622 61.382 279.655 62.6114 277.36 63.0212C273.426 63.7589 269.737 63.0212 266.705 60.2346C264.656 58.3495 263.508 56.0546 263.099 53.3499C262.443 49.1698 263.262 45.3177 266.213 42.1212C269.164 38.9247 272.852 38.0232 276.95 39.0887C281.048 40.1542 283.343 43.1047 284.408 47.0389C284.736 48.1044 284.818 49.1699 284.818 50.2353C284.818 51.7106 284.244 52.2024 282.769 52.2024C280.228 52.2024 277.606 52.2024 275.065 52.2024L275.147 52.2844ZM273.917 49.5797H279.163C280.802 49.5797 281.376 48.7874 280.884 47.2028C279.655 42.9408 275.884 40.7279 271.95 41.9573C268.672 42.9408 266.951 45.9734 266.459 49.0879C266.377 49.6616 266.787 49.5797 267.115 49.5797C269.328 49.5797 271.541 49.5797 273.835 49.5797H273.917Z" fill="white"/>
<path fill-rule="evenodd" clip-rule="evenodd" d="M253.427 44.253C254.574 42.122 256.131 40.5648 258.18 39.5813C259.246 39.0895 260.311 38.7616 261.459 38.7616C262.442 38.7616 263.098 39.3354 263.18 40.2369C263.262 41.3024 262.77 42.0401 261.787 42.286C261.377 42.3679 260.885 42.4499 260.475 42.5318C256.541 43.5154 253.918 46.5479 253.427 50.8919C253.017 54.2522 253.345 57.6946 253.263 61.055C253.263 62.3664 252.279 63.186 251.132 62.9401C250.23 62.7762 249.738 62.1205 249.738 61.055C249.738 58.5142 249.738 55.8915 249.738 53.3507C249.738 49.1707 249.738 44.9907 249.738 40.8107C249.738 39.5813 250.394 38.6797 251.459 38.6797C252.607 38.6797 253.263 39.4993 253.263 40.8107C253.263 41.8762 253.263 42.9417 253.263 44.0071C253.263 44.0071 253.263 44.0071 253.263 44.335L253.427 44.253Z" fill="white"/>
<path fill-rule="evenodd" clip-rule="evenodd" d="M291.048 41.6303C291.048 43.3515 289.818 44.5809 288.097 44.5809C286.376 44.5809 285.146 43.3515 285.146 41.6303C285.146 39.9091 286.458 38.6797 288.097 38.6797C289.818 38.6797 291.048 39.9091 291.048 41.6303ZM288.097 39.3354C286.786 39.3354 285.72 40.3189 285.72 41.6303C285.72 42.9417 286.786 44.0891 288.097 44.0891C289.326 44.0891 290.474 42.9417 290.474 41.7122C290.474 40.4009 289.408 39.3354 288.097 39.3354Z" fill="white"/>
<path fill-rule="evenodd" clip-rule="evenodd" d="M287.846 40.2365C289.24 40.2365 289.567 40.7282 288.994 41.8757C288.83 42.2035 288.994 42.2855 289.158 42.4494C289.24 42.6133 289.322 42.8592 289.158 43.0231C288.994 43.1871 288.748 43.0231 288.666 42.8592C288.584 42.6953 288.42 42.6133 288.338 42.4494C288.092 42.1216 287.764 41.8757 287.682 42.6133C287.682 42.8592 287.6 43.1051 287.273 43.1051C286.945 43.1051 287.027 42.7773 287.027 42.5314C287.027 42.1216 287.027 41.7118 287.027 41.302C287.027 40.5643 287.027 39.9906 287.928 40.2365H287.846ZM288.666 41.138C288.584 40.8922 288.338 40.8102 288.092 40.8102C287.846 40.8102 287.682 40.8922 287.682 41.22C287.682 41.5478 287.846 41.6298 288.092 41.6298C288.338 41.6298 288.584 41.5478 288.666 41.22V41.138Z" fill="white"/>
<rect x="438.5" y="1.1875" width="409" height="99" rx="15.5" fill="#00CCFF" fill-opacity="0.04"/>
<rect x="438.5" y="1.1875" width="409" height="99" rx="15.5" stroke="#7CDEB5" stroke-dasharray="8 8"/>
<path d="M560.006 32.9902H576.816C576.816 38.5655 576.816 44.2251 576.816 49.8004H560.006V32.9902Z" fill="white"/>
<path d="M578.586 32.9902H595.396C595.396 38.5655 595.396 44.2251 595.396 49.8004C589.821 49.8004 584.161 49.8004 578.586 49.8004C578.586 44.2251 578.586 38.5655 578.586 32.9902Z" fill="white"/>
<path d="M711.973 39.4101C713.493 38.3964 715.521 38.312 717.294 38.8188C717.294 39.8325 717.294 40.9306 717.294 41.9443C716.45 41.6064 715.521 41.353 714.591 41.6909C713.916 41.9443 713.493 42.7046 713.409 43.3803C713.24 44.3096 713.409 45.2388 713.409 46.0835C715.183 46.0835 716.957 46.0835 718.731 46.0835C718.731 44.9009 718.731 43.8027 718.731 42.6201C719.913 42.2822 721.096 41.8598 722.363 41.5219C722.363 43.0425 722.363 44.563 722.363 46.0835C723.545 46.0835 724.728 46.0835 725.995 46.0835V49.04C724.813 49.04 723.545 49.04 722.363 49.04C722.363 50.7295 722.363 52.419 722.363 54.1084C722.363 55.0376 722.363 55.9668 722.363 56.896C722.363 57.4873 722.616 58.0787 723.123 58.3321C723.968 58.8389 725.066 58.5855 725.911 58.0786V61.0352C724.897 61.4576 723.714 61.6265 722.616 61.542C721.518 61.542 720.42 61.0352 719.744 60.1905C718.899 59.2613 718.731 57.9097 718.731 56.7271C718.731 54.1084 718.731 51.4898 718.731 48.8711C716.957 48.8711 715.183 48.8711 713.409 48.8711C713.409 53.0103 713.409 57.065 713.409 61.2041H709.776C709.776 57.1494 709.776 53.0103 709.776 48.9556C708.932 48.9556 708.087 48.9556 707.242 48.9556C707.242 47.9419 707.242 47.0127 707.242 45.999C708.087 45.999 708.932 45.999 709.776 45.999C709.776 44.7319 709.607 43.3803 710.03 42.1133C710.368 41.0151 711.043 39.917 712.057 39.3256L711.973 39.4101Z" fill="white"/>
<path d="M633.923 39.6635C634.683 39.579 635.443 39.8324 635.95 40.3392C636.542 40.9306 636.626 41.9442 636.204 42.7045C635.697 43.5492 634.683 43.8871 633.754 43.7182C632.825 43.5492 631.98 42.7045 632.064 41.6908C632.064 40.6771 632.909 39.7479 633.923 39.6635Z" fill="white"/>
<path d="M606.043 40.0869H611.365C613.054 44.3106 614.659 48.4497 616.349 52.6734C616.771 53.6871 617.193 54.7852 617.616 55.7989C619.728 50.5616 621.924 45.3242 624.036 40.0869C625.725 40.0869 627.415 40.0869 629.104 40.0869C629.104 47.1826 629.104 54.2784 629.104 61.3741C627.837 61.3741 626.654 61.3741 625.387 61.3741C625.387 56.1368 625.387 50.8995 625.387 45.6621C625.387 45.4087 625.387 45.1553 625.387 44.9863C625.387 45.0708 625.218 45.2398 625.218 45.3242C623.107 50.646 620.995 55.9678 618.883 61.3741C618.038 61.3741 617.109 61.3741 616.264 61.3741C614.068 56.0523 611.956 50.646 609.76 45.3242C609.76 45.2398 609.675 45.0708 609.591 44.9863C609.591 47.2671 609.591 49.5479 609.591 51.8287C609.591 55.0386 609.591 58.1641 609.591 61.3741C608.408 61.3741 607.31 61.3741 606.127 61.3741C606.127 54.2784 606.127 47.1826 606.127 40.0869H606.043Z" fill="white"/>
<path d="M643.97 46.0833C645.744 45.5764 647.602 45.5764 649.376 46.0833C649.714 46.1677 650.052 46.3367 650.39 46.5056C650.39 47.6882 650.39 48.7864 650.39 49.969C649.207 49.0398 647.687 48.533 646.251 48.7019C645.068 48.7864 643.97 49.4622 643.21 50.3914C642.281 51.574 642.112 53.179 642.28 54.615C642.365 55.7132 642.872 56.8958 643.717 57.6561C644.646 58.5008 645.913 58.7542 647.095 58.6697C648.278 58.5008 649.376 57.994 650.39 57.3182C650.39 58.4163 650.39 59.5145 650.39 60.6126C648.869 61.4573 647.095 61.7108 645.406 61.6263C643.632 61.5418 641.943 60.866 640.676 59.6834C639.324 58.3318 638.564 56.4734 638.479 54.615C638.395 52.6722 638.817 50.5603 639.915 48.9553C640.844 47.5193 642.365 46.5901 643.97 46.0833Z" fill="white"/>
<path d="M683.761 45.9143C685.451 45.5764 687.225 45.9143 688.83 46.4212C688.83 47.5193 688.83 48.6175 688.83 49.8001C687.731 49.0398 686.38 48.6175 685.028 48.7019C684.353 48.7019 683.592 49.0398 683.254 49.6311C683.001 50.3069 683.254 51.1517 683.761 51.4895C684.775 52.1653 686.042 52.5032 687.056 53.0945C687.9 53.6014 688.745 54.1927 689.168 55.1219C689.928 56.8113 689.59 59.0077 688.238 60.2747C686.887 61.5418 684.944 61.8797 683.17 61.7953C681.903 61.7953 680.636 61.4574 679.453 60.9505C679.453 59.7679 679.453 58.5853 679.453 57.4027C680.467 58.0784 681.565 58.5853 682.748 58.8387C683.592 59.0077 684.522 59.0077 685.282 58.5853C686.042 58.2474 686.127 57.1492 685.704 56.4735C685.282 55.9666 684.69 55.7132 684.099 55.4598C683.001 54.9529 681.903 54.615 680.974 53.8548C680.298 53.348 679.791 52.5877 679.622 51.8274C679.369 50.6448 679.453 49.2933 680.129 48.1951C680.974 46.928 682.325 46.2522 683.761 45.9988V45.9143Z" fill="white"/>
<path d="M658.588 46.3367C659.602 45.7454 660.869 45.6609 661.967 46.0833C661.967 47.2659 661.967 48.533 661.967 49.7157C661.207 49.2088 660.362 49.0399 659.518 49.1243C658.504 49.2088 657.659 50.0535 657.237 50.9828C656.814 51.912 656.73 53.0101 656.73 54.1083C656.73 56.558 656.73 58.9232 656.73 61.3729H653.098C653.098 56.3046 653.098 51.2362 653.098 46.1678C654.28 46.1678 655.463 46.1678 656.73 46.1678C656.73 47.0125 656.73 47.9417 656.73 48.7864C657.152 47.8572 657.659 46.928 658.588 46.4212V46.3367Z" fill="white"/>
<path d="M632.398 46.168C633.581 46.168 634.848 46.168 636.031 46.168C636.031 51.2363 636.031 56.3047 636.031 61.3731H632.398C632.398 56.3047 632.398 51.2363 632.398 46.168Z" fill="white"/>
<path fill-rule="evenodd" clip-rule="evenodd" d="M673.876 46.4219C672.271 45.7461 670.413 45.5772 668.639 45.8306V45.9151C666.781 46.084 665.007 47.0132 663.824 48.4493C662.726 49.7164 662.219 51.4058 662.135 53.0953C661.966 55.0382 662.303 57.15 663.486 58.755C664.5 60.1066 666.02 61.1202 667.71 61.4581C669.146 61.7115 670.582 61.7115 672.018 61.4581C673.707 61.1202 675.228 60.191 676.242 58.8395C677.255 57.6568 677.762 56.0518 677.847 54.4469C677.931 52.8419 677.762 51.1524 677.086 49.6319C676.41 48.1958 675.312 47.0977 673.876 46.4219ZM672.776 49.7155C672.016 48.9552 670.833 48.7018 669.735 48.7018V48.7863C668.891 48.7863 668.046 49.1241 667.37 49.7155C666.441 50.5602 666.018 51.7428 665.934 52.9254C665.85 54.1925 665.934 55.5441 666.525 56.7267C666.948 57.5715 667.792 58.3317 668.806 58.5851C669.735 58.8385 670.833 58.7541 671.763 58.4162C672.523 58.0783 673.199 57.4025 673.537 56.6422C674.043 55.4596 674.043 54.1925 674.043 52.9254C673.959 51.7428 673.621 50.5602 672.776 49.7155Z" fill="white"/>
<path fill-rule="evenodd" clip-rule="evenodd" d="M703.103 46.5909C701.414 45.7462 699.555 45.5772 697.697 45.8306H697.612C696.092 45.9996 694.656 46.5064 693.558 47.5201C692.206 48.7027 691.446 50.3922 691.192 52.1661C691.024 53.94 691.024 55.7985 691.784 57.4879C692.46 59.1774 693.896 60.4445 695.501 61.1203C697.106 61.7116 698.964 61.796 700.653 61.5426C702.427 61.2892 704.032 60.36 705.131 58.924C706.313 57.4879 706.82 55.6295 706.82 53.7711C706.82 52.504 706.651 51.3214 706.229 50.1388C705.637 48.6183 704.539 47.3512 703.103 46.5909ZM701.667 49.5467C700.822 48.8709 699.724 48.7019 698.71 48.7019V48.7864C697.781 48.8709 696.767 49.2932 696.092 50.0535C695.416 50.8982 694.993 51.9964 694.993 53.0945C694.909 54.1927 694.993 55.3753 695.416 56.389C695.838 57.3182 696.514 58.0785 697.359 58.4163C698.203 58.6698 699.133 58.8387 699.977 58.6698C700.738 58.5008 701.582 58.1629 702.089 57.4871C702.596 56.8958 702.849 56.0511 703.018 55.2908C703.187 54.1927 703.187 53.0945 703.018 51.9964C702.765 51.0672 702.427 50.138 701.667 49.5467Z" fill="white"/>
<path d="M560.006 51.5742C565.581 51.5742 571.241 51.5742 576.816 51.5742C576.816 57.1494 576.816 62.8091 576.816 68.3843H560.006V51.5742Z" fill="white"/>
<path d="M578.586 51.5742C584.161 51.5742 589.821 51.5742 595.396 51.5742V68.3843H578.586C578.586 62.8091 578.586 57.1494 578.586 51.5742Z" fill="white"/>
<rect x="872.5" y="1.1875" width="409" height="99" rx="15.5" fill="#00CCFF" fill-opacity="0.04"/>
<rect x="872.5" y="1.1875" width="409" height="99" rx="15.5" stroke="#7CDEB5" stroke-dasharray="8 8"/>
<path d="M990.824 61.5525C990.761 61.3867 990.635 61.213 990.635 61.0471C990.627 54.9749 990.627 48.9105 990.635 42.8383C990.635 41.5906 991.18 40.6431 992.333 40.114C993.477 39.5929 994.567 39.7745 995.507 40.6036C998.894 43.5884 1002.27 46.589 1005.65 49.5817C1007.41 51.1531 1009.18 52.7244 1010.94 54.3037C1011.02 54.3748 1011.1 54.4379 1011.24 54.5485C1011.24 54.3511 1011.24 54.2168 1011.24 54.0905C1011.24 49.6054 1011.24 45.1203 1011.24 40.6352C1011.24 40.0272 1011.28 39.9956 1011.9 39.9956C1013.11 39.9956 1014.31 39.9956 1015.52 39.9956C1015.98 39.9956 1016.06 40.0745 1016.06 40.5483C1016.06 46.5495 1016.06 52.5507 1016.06 58.5519C1016.06 59.9337 1015.51 60.9287 1014.22 61.4893C1014.2 61.5051 1014.17 61.5367 1014.16 61.5525H1012.13C1011.49 61.0629 1010.82 60.6128 1010.22 60.0759C1005.39 55.804 1000.58 51.5084 995.752 47.2207C995.673 47.1496 995.594 47.0944 995.452 46.9838V47.505C995.452 51.9743 995.452 56.4515 995.452 60.9208C995.452 61.1261 995.341 61.3314 995.286 61.5446H990.824V61.5525Z" fill="white"/>
<path d="M1097.09 61.5532C1097.02 61.3716 1096.9 61.19 1096.9 61.0084C1096.9 54.9598 1096.9 48.9113 1096.89 42.8627C1096.89 40.4464 1099.22 39.333 1100.85 40.0437C1101.28 40.2253 1101.67 40.5175 1102.02 40.8254C1105.71 44.0787 1109.39 47.3478 1113.07 50.6169C1114.45 51.8408 1115.82 53.0726 1117.21 54.3044C1117.28 54.3676 1117.36 54.4308 1117.51 54.5571V54.1544C1117.51 49.6377 1117.51 45.1131 1117.51 40.5965C1117.51 40.0437 1117.56 39.9963 1118.1 39.9963C1119.31 39.9963 1120.53 39.9963 1121.75 39.9963C1122.26 39.9963 1122.32 40.0595 1122.32 40.5807C1122.32 46.574 1122.32 52.5673 1122.32 58.5527C1122.32 59.9345 1121.77 60.9294 1120.48 61.4901C1120.46 61.5059 1120.44 61.5296 1120.41 61.5532H1118.45C1118.1 61.3243 1117.7 61.1426 1117.39 60.8584C1112.48 56.5154 1107.57 52.1566 1102.67 47.7979C1102.38 47.5373 1102.09 47.2846 1101.73 46.9609V47.4504C1101.73 51.9434 1101.73 56.4364 1101.73 60.9294C1101.73 61.1348 1101.62 61.3401 1101.56 61.5454H1097.09L1097.09 61.5532Z" fill="white"/>
<path d="M1062.12 61.5522C1061.84 61.3153 1061.97 61.0942 1062.14 60.8573C1066.66 54.4376 1071.18 48.0179 1075.69 41.6061C1075.89 41.3298 1076.08 41.0534 1076.31 40.8086C1077.53 39.4662 1079.47 39.482 1080.63 40.8718C1081.19 41.543 1081.67 42.2852 1082.18 43.0038C1086.37 48.9655 1090.56 54.9193 1094.76 60.881C1094.93 61.1179 1095.03 61.3232 1094.79 61.5601H1089.38C1089.27 61.4337 1089.15 61.3153 1089.05 61.1732C1088.16 59.9019 1087.28 58.6306 1086.38 57.3671C1086.29 57.2408 1086.1 57.1224 1085.96 57.1224C1080.95 57.1066 1075.95 57.1066 1070.95 57.1224C1070.81 57.1224 1070.62 57.225 1070.55 57.3356C1069.92 58.1884 1069.32 59.0649 1068.71 59.9256C1068.33 60.4783 1067.92 61.0152 1067.53 61.5601H1062.12V61.5522ZM1083.08 52.6925C1081.51 50.4816 1079.99 48.3417 1078.45 46.1623C1076.89 48.3575 1075.38 50.5053 1073.82 52.6925H1083.08Z" fill="white"/>
<path d="M1024.17 61.5531C1023.89 61.4662 1023.61 61.3873 1023.34 61.2846C1021 60.3765 1019.34 58.8447 1018.81 56.3099C1018.7 55.7651 1018.66 55.1966 1018.66 54.6359C1018.66 49.9613 1018.66 45.2788 1018.66 40.6042C1018.66 40.0436 1018.71 39.9883 1019.28 39.9883C1020.51 39.9883 1021.74 39.9883 1022.97 39.9883C1023.47 39.9883 1023.53 40.0593 1023.53 40.5568C1023.53 45.0972 1023.56 49.6376 1023.52 54.1858C1023.5 56.002 1024.44 56.7837 1025.8 57.0838C1026.72 57.2891 1027.67 57.3917 1028.61 57.4154C1030.44 57.447 1032.27 57.4312 1034.09 57.3601C1034.8 57.3365 1035.52 57.1785 1036.2 56.9653C1037.51 56.5468 1038.06 55.7335 1038.06 54.3675C1038.06 49.8034 1038.06 45.2393 1038.06 40.6753C1038.06 40.0357 1038.1 39.9962 1038.75 39.9962C1039.98 39.9962 1041.21 39.9962 1042.44 39.9962C1042.83 39.9962 1042.93 40.083 1042.93 40.47C1042.93 45.2946 1042.95 50.1192 1042.91 54.936C1042.89 58.1103 1040.88 60.5897 1037.8 61.4267C1037.68 61.4583 1037.55 61.5136 1037.43 61.561H1024.17V61.5531Z" fill="white"/>
<path d="M1054.54 61.5531C1054.48 61.3636 1054.35 61.1662 1054.35 60.9767C1054.34 55.6072 1054.34 50.2298 1054.34 44.8603C1054.34 44.7261 1054.34 44.5918 1054.34 44.4023H1053.94C1051.28 44.4023 1048.62 44.4023 1045.96 44.4023C1045.43 44.4023 1045.36 44.3391 1045.36 43.7943C1045.36 42.7046 1045.36 41.6149 1045.36 40.5252C1045.36 40.0751 1045.45 39.9883 1045.89 39.9883C1053.15 39.9883 1060.41 39.9883 1067.66 39.9883C1068.09 39.9883 1068.18 40.083 1068.18 40.5015C1068.18 41.6228 1068.18 42.752 1068.18 43.8733C1068.18 44.3155 1068.09 44.4023 1067.65 44.4023C1064.98 44.4023 1062.31 44.4023 1059.63 44.4023C1059.5 44.4023 1059.36 44.4023 1059.17 44.4023C1059.17 44.576 1059.17 44.7261 1059.17 44.884C1059.17 50.2298 1059.17 55.5835 1059.17 60.9293C1059.17 61.1346 1059.06 61.3478 1059.01 61.5531H1054.55H1054.54Z" fill="white"/>
<path d="M1132.19 61.5528C1131.95 61.237 1131.96 61.1738 1132.31 60.8658C1135.37 58.2206 1138.45 55.5753 1141.52 52.9222C1142.34 52.2194 1143.15 51.5087 1144.01 50.7744C1143.9 50.6717 1143.81 50.5849 1143.71 50.5059C1139.92 47.2368 1136.12 43.9599 1132.33 40.6908C1132.27 40.6355 1132.19 40.596 1132.16 40.5329C1132.1 40.4223 1132.04 40.2802 1132.07 40.1775C1132.1 40.0907 1132.25 40.0354 1132.36 39.9959C1132.44 39.9643 1132.54 39.988 1132.63 39.988C1134.56 39.988 1136.5 39.988 1138.44 39.988C1138.72 39.988 1138.95 40.0591 1139.17 40.2486C1143.07 43.6203 1146.97 46.9841 1150.87 50.3559C1151.32 50.7428 1151.32 50.806 1150.86 51.2087C1146.87 54.6515 1142.88 58.0863 1138.9 61.5291C1138.9 61.5291 1138.89 61.5528 1138.88 61.5607H1132.18L1132.19 61.5528Z" fill="white"/>
<path d="M1125.09 61.5531C1125.04 61.3794 1124.93 61.2056 1124.93 61.024C1124.93 54.1858 1124.93 47.3555 1124.93 40.5173C1124.93 40.0593 1125.01 39.9883 1125.46 39.9883C1126.73 39.9883 1127.99 39.9883 1129.25 39.9883C1129.67 39.9883 1129.76 40.083 1129.76 40.5094C1129.76 47.3555 1129.76 54.2016 1129.75 61.0477C1129.75 61.2135 1129.62 61.3873 1129.56 61.5531H1125.1H1125.09Z" fill="white"/>
<path d="M1156.48 61.5525C1155.56 60.7471 1154.64 59.9338 1153.72 59.1362C1152.32 57.9281 1150.93 56.7279 1149.53 55.5197C1149.15 55.196 1149.15 55.1012 1149.52 54.7854C1150.5 53.9405 1151.49 53.0956 1152.46 52.2428C1152.68 52.0533 1152.85 52.0454 1153.07 52.2428C1156.43 55.1407 1159.79 58.0386 1163.15 60.9366C1163.44 61.1893 1163.44 61.284 1163.18 61.5604C1160.95 61.5604 1158.72 61.5604 1156.48 61.5604V61.5525Z" fill="white"/>
<path d="M1159.84 39.9873C1160.84 39.9873 1161.82 39.9794 1162.82 39.9952C1162.99 39.9952 1163.17 40.1216 1163.34 40.1926C1163.25 40.3506 1163.2 40.5401 1163.08 40.6506C1159.79 43.5012 1156.49 46.3439 1153.19 49.1944C1152.77 49.5576 1152.76 49.5655 1152.32 49.1944C1151.37 48.3732 1150.41 47.5441 1149.47 46.7229C1149.16 46.4544 1149.16 46.336 1149.47 46.0754C1151.75 44.1013 1154.03 42.1351 1156.33 40.1689C1156.45 40.0584 1156.67 39.9952 1156.85 39.9952C1157.85 39.9794 1158.85 39.9873 1159.86 39.9873H1159.84Z" fill="white"/>
<rect x="1306.5" y="1.1875" width="409" height="99" rx="15.5" fill="#00CCFF" fill-opacity="0.04"/>
<rect x="1306.5" y="1.1875" width="409" height="99" rx="15.5" stroke="#7CDEB5" stroke-dasharray="8 8"/>
<path d="M1471.03 50.5933C1473.89 51.8224 1476.36 53.5528 1478.11 56.1887C1480.47 59.7222 1479.41 63.8864 1477.05 66.3041C1475.64 67.7434 1473.92 68.6247 1472.03 69.2312C1469.7 69.9751 1467.29 70.2419 1464.85 70.2904C1460.04 70.3955 1455.36 69.6274 1450.75 68.3175C1445.67 66.8782 1440.86 64.8567 1436.38 62.0509C1434.09 60.6198 1431.95 58.9945 1430.17 56.9569C1429.11 55.7683 1428.22 54.4745 1427.76 52.9301C1427.26 51.1998 1427.36 49.526 1428.46 48.0221C1429.23 46.979 1430.32 46.3726 1431.51 45.9359C1433.16 45.3295 1434.88 45.095 1436.62 44.9575C1437.07 44.9171 1437.53 44.909 1437.98 44.8848C1438.07 44.9737 1438.03 45.0707 1437.98 45.1597C1437.38 46.7688 1437.73 48.2404 1438.66 49.615C1439.54 50.9168 1440.67 51.976 1441.91 52.9301C1444.24 54.709 1446.83 56.0108 1449.57 57.0216C1451.98 57.911 1454.46 58.5094 1457.01 58.8651C1457.85 58.9783 1458.7 59.043 1459.54 59.1077C1460.5 59.1805 1461.46 59.1886 1462.41 59.1481C1464.51 59.0592 1466.58 58.7196 1468.46 57.7008C1469.63 57.062 1470.6 56.213 1471.1 54.9273C1471.4 54.1754 1471.43 53.3991 1471.31 52.6148C1471.23 52.065 1471.13 51.5232 1471 50.9815C1470.97 50.8521 1470.89 50.7146 1471.02 50.5853L1471.03 50.5933Z" fill="white"/>
<path d="M1438.94 42.5884C1439.86 39.9605 1440.78 37.3326 1441.71 34.7047C1441.96 34.0174 1442.29 33.3706 1442.74 32.7884C1443.6 31.7049 1444.79 31.3329 1446.12 31.7453C1446.8 31.9555 1447.41 32.3032 1448.05 32.5943C1448.61 32.845 1449.18 33.0552 1449.8 33.0956C1450.48 33.1442 1451.07 32.9501 1451.59 32.5296C1451.88 32.2952 1452.15 32.0526 1452.42 31.7938C1453.08 31.147 1453.84 30.9448 1454.76 31.155C1456.52 31.5513 1458.22 32.1658 1459.89 32.8207C1461.74 33.5404 1463.57 34.3247 1465.31 35.3031C1465.46 35.392 1465.61 35.481 1465.76 35.5699C1467.18 36.3623 1468.04 37.5348 1468.39 39.1438C1469.04 42.176 1469.77 45.192 1470.47 48.2161C1470.48 48.2889 1470.49 48.3697 1470.5 48.4425C1470.85 50.1082 1469.92 51.7415 1468.36 52.5582C1467.26 53.1323 1466.08 53.4315 1464.87 53.6013C1463.38 53.8115 1461.87 53.7872 1460.37 53.7145C1457.76 53.5932 1455.2 53.1242 1452.69 52.3722C1450.64 51.7577 1448.67 50.9653 1446.76 49.9869C1444.77 48.96 1442.9 47.7552 1441.22 46.2594C1440.49 45.6125 1439.84 44.9009 1439.3 44.0924C1439 43.6315 1438.81 43.1463 1438.95 42.5884H1438.94Z" fill="white"/>
<path d="M1565.47 50.8036C1565.47 54.046 1565.47 57.2884 1565.47 60.5227C1565.47 60.7815 1565.41 60.8381 1565.15 60.8381C1563.71 60.8219 1562.27 60.8219 1560.84 60.8381C1560.56 60.8381 1560.51 60.7572 1560.51 60.4904C1560.51 58.0889 1560.51 55.6874 1560.52 53.2779C1560.52 53.0353 1560.47 52.9706 1560.22 52.9706C1557.66 52.9787 1555.11 52.9787 1552.54 52.9706C1552.28 52.9706 1552.24 53.0434 1552.25 53.2779C1552.26 55.6955 1552.25 58.1051 1552.26 60.5227C1552.26 60.7815 1552.19 60.8462 1551.94 60.8381C1550.49 60.8219 1549.04 60.83 1547.59 60.8381C1547.37 60.8381 1547.3 60.7815 1547.3 60.547C1547.32 54.046 1547.33 47.545 1547.33 41.0359C1547.33 40.7934 1547.41 40.761 1547.62 40.761C1549.07 40.7691 1550.51 40.7691 1551.96 40.761C1552.21 40.761 1552.26 40.8257 1552.26 41.0602C1552.25 43.4212 1552.26 45.7823 1552.24 48.1353C1552.24 48.4021 1552.3 48.4749 1552.57 48.4749C1555.11 48.4668 1557.65 48.4587 1560.19 48.4749C1560.5 48.4749 1560.54 48.3778 1560.54 48.111C1560.53 45.7742 1560.54 43.4374 1560.53 41.1006C1560.53 40.8419 1560.56 40.7529 1560.85 40.7529C1562.29 40.7691 1563.73 40.7691 1565.16 40.7529C1565.41 40.7529 1565.46 40.8257 1565.46 41.0602C1565.46 44.3026 1565.46 47.5369 1565.46 50.7793L1565.47 50.8036Z" fill="white"/>
<path d="M1594.37 56.8284C1594.37 57.5885 1594.37 58.3243 1594.37 59.0601C1594.37 59.4968 1594.37 59.9334 1594.37 60.3619C1594.37 60.4832 1594.38 60.5883 1594.21 60.6207C1592.45 61.025 1590.69 61.2352 1588.91 60.7662C1586.77 60.2083 1585.64 58.7205 1585.62 56.4242C1585.59 54.241 1585.61 52.0497 1585.62 49.8666C1585.62 49.5997 1585.56 49.5189 1585.28 49.5269C1584.46 49.5431 1583.65 49.5269 1582.83 49.5431C1582.58 49.5431 1582.53 49.4704 1582.53 49.2359C1582.55 48.1524 1582.55 47.0608 1582.53 45.9773C1582.53 45.7428 1582.57 45.6619 1582.83 45.67C1583.65 45.6862 1584.49 45.67 1585.31 45.6862C1585.58 45.6862 1585.63 45.6053 1585.63 45.3628C1585.61 44.255 1585.63 43.1472 1585.62 42.0395C1585.62 41.8373 1585.68 41.7646 1585.88 41.7241C1587.27 41.433 1588.66 41.1339 1590.05 40.8185C1590.28 40.7619 1590.27 40.8751 1590.27 41.0288C1590.27 42.4761 1590.27 43.9235 1590.27 45.3628C1590.27 45.6134 1590.32 45.6862 1590.58 45.6862C1591.8 45.67 1593.02 45.6862 1594.25 45.67C1594.48 45.67 1594.53 45.7347 1594.53 45.953C1594.51 47.0527 1594.51 48.1524 1594.53 49.2439C1594.53 49.5027 1594.45 49.5431 1594.22 49.535C1593 49.5269 1591.78 49.535 1590.56 49.5269C1590.33 49.5269 1590.27 49.5835 1590.27 49.818C1590.28 51.6454 1590.27 53.4728 1590.27 55.3002C1590.27 55.4862 1590.29 55.6722 1590.32 55.8501C1590.41 56.6101 1590.86 57.0144 1591.67 57.0953C1592.58 57.1923 1593.47 57.0791 1594.38 56.8204L1594.37 56.8284Z" fill="white"/>
<path fill-rule="evenodd" clip-rule="evenodd" d="M1501.7 60.8288H1507.05V60.8046C1507 60.7102 1506.96 60.6371 1506.92 60.5705C1506.9 60.5286 1506.88 60.4893 1506.85 60.4488C1506.61 60.0106 1506.37 59.5723 1506.13 59.1337C1505.01 57.1037 1503.89 55.0702 1502.76 53.0422C1502.63 52.8158 1502.68 52.7592 1502.89 52.6621C1506.39 51.0369 1507.54 46.525 1505.21 43.4362C1503.82 41.5927 1501.87 40.8002 1499.62 40.7679C1497.41 40.7419 1495.2 40.746 1492.98 40.7501C1491.75 40.7524 1490.52 40.7546 1489.29 40.7517C1489.07 40.7517 1489.03 40.8245 1489.03 41.0266V60.5377C1489.03 60.7803 1489.1 60.8207 1489.32 60.8207C1490.76 60.8126 1492.2 60.8045 1493.63 60.8207C1493.91 60.8288 1493.97 60.7641 1493.97 60.4892C1493.97 59.3895 1493.97 58.2919 1493.97 57.1943C1493.97 56.0966 1493.97 54.9989 1493.96 53.8993C1493.95 53.6001 1494.01 53.495 1494.34 53.5031C1495.36 53.5273 1496.38 53.5192 1497.41 53.5031C1497.65 53.5031 1497.77 53.5839 1497.88 53.7942C1498.66 55.3089 1499.44 56.8164 1500.22 58.3239C1500.61 59.0777 1501.01 59.8315 1501.4 60.5862C1501.4 60.5956 1501.41 60.6049 1501.41 60.614C1501.47 60.7314 1501.52 60.8288 1501.7 60.8288ZM1497.66 44.979C1497.36 44.9847 1497.08 44.9903 1496.82 44.9817V44.9655C1496.49 44.9655 1496.18 44.9665 1495.88 44.9675C1495.32 44.9692 1494.8 44.9708 1494.28 44.9655C1494.07 44.9655 1493.98 45.006 1493.98 45.2486C1493.99 46.1437 1493.98 47.0352 1493.98 47.9256C1493.98 48.3703 1493.98 48.8147 1493.98 49.2591C1493.98 49.4532 1494.02 49.5179 1494.23 49.5179C1495.01 49.5138 1495.79 49.5138 1496.58 49.5138C1497.36 49.5138 1498.15 49.5138 1498.93 49.5098C1499.54 49.5098 1500.13 49.3561 1500.63 48.9519C1501.31 48.3939 1501.6 47.4479 1501.31 46.5665C1501.02 45.6286 1500.31 45.1515 1499.37 45.0302C1498.79 44.957 1498.2 44.9684 1497.66 44.979Z" fill="white"/>
<path fill-rule="evenodd" clip-rule="evenodd" d="M1535.78 59.7425C1534.94 60.3216 1534.08 60.7079 1533.14 60.8932C1529.17 61.6856 1525.23 59.2033 1524.22 55.2817C1523.04 50.7051 1525.96 46.266 1530.64 45.5625C1532.41 45.2957 1534.11 45.5787 1535.72 46.4681C1535.72 46.3961 1535.72 46.3307 1535.72 46.2685C1535.73 46.212 1535.73 46.1581 1535.73 46.1043V41.0506C1535.73 40.8404 1535.79 40.7596 1536.01 40.711C1537.36 40.428 1538.73 40.137 1540.08 39.8297C1540.35 39.7731 1540.38 39.8378 1540.38 40.0803V60.5375C1540.38 60.7962 1540.31 60.8528 1540.06 60.8528C1538.73 60.8366 1537.4 60.8447 1536.07 60.8528C1535.85 60.8528 1535.76 60.8124 1535.78 60.5698C1535.8 60.4015 1535.79 60.2332 1535.79 60.0472C1535.78 59.9512 1535.78 59.8504 1535.78 59.7425ZM1535.73 55.6387V53.2291H1535.73C1535.73 52.9709 1535.73 52.7119 1535.73 52.4522C1535.73 51.9312 1535.72 51.4077 1535.73 50.8842C1535.73 50.6497 1535.66 50.5122 1535.47 50.3748C1534.36 49.542 1533.11 49.2347 1531.75 49.4773C1530.28 49.7441 1529.22 50.5608 1528.74 52C1528.27 53.4151 1528.52 54.7331 1529.55 55.8408C1531.06 57.4661 1533.98 57.5227 1535.61 55.9863C1535.73 55.8812 1535.73 55.768 1535.73 55.6387Z" fill="white"/>
<path fill-rule="evenodd" clip-rule="evenodd" d="M1514.36 57.1517C1513.09 56.8848 1512.2 56.0924 1511.64 54.8634H1511.65H1519.36H1522.21C1522.22 54.8634 1522.23 54.8636 1522.24 54.8638C1522.37 54.8657 1522.47 54.8672 1522.47 54.6612C1522.47 53.6667 1522.46 52.6721 1522.27 51.6776C1521.45 47.384 1517.45 44.6995 1513.17 45.5728C1509.79 46.2601 1507.31 48.9365 1506.93 52.4376C1506.55 55.9307 1508.41 58.8658 1511.31 60.2728C1513.14 61.1622 1515.07 61.3078 1517.05 60.9843C1518.73 60.7094 1520.18 59.9493 1521.49 58.8416C1520.49 57.9683 1519.51 57.1031 1518.54 56.2299C1518.43 56.1248 1518.38 56.1652 1518.28 56.246C1517.14 57.2487 1515.79 57.4427 1514.36 57.1517ZM1511.83 51.603H1517.84V51.5949C1517.86 51.5625 1517.86 51.5464 1517.86 51.5383C1517.49 50.2445 1516.2 49.2338 1514.85 49.1934C1513.32 49.153 1512.1 49.9777 1511.63 51.3523C1511.56 51.5706 1511.62 51.603 1511.83 51.603Z" fill="white"/>
<path fill-rule="evenodd" clip-rule="evenodd" d="M1576.75 59.9518C1576.63 60.0181 1576.51 60.086 1576.39 60.1522C1576.15 60.2943 1575.91 60.4284 1575.66 60.5216C1573.66 61.2816 1571.64 61.3948 1569.67 60.4892C1567.43 59.4704 1566.45 56.9395 1567.37 54.7079C1567.91 53.4141 1568.96 52.7026 1570.23 52.2821C1571.69 51.8051 1573.19 51.7889 1574.69 51.9183C1575.32 51.9749 1575.94 52.08 1576.55 52.2336C1576.72 52.274 1576.75 52.2417 1576.75 52.08C1576.75 52.0257 1576.75 51.9714 1576.75 51.9171C1576.75 51.5914 1576.76 51.2656 1576.69 50.9399C1576.49 50.0423 1575.81 49.4925 1574.74 49.3308C1573.49 49.1448 1572.29 49.3874 1571.12 49.7755C1570.56 49.9615 1570.01 50.1717 1569.47 50.39C1569.3 50.4547 1569.22 50.4386 1569.14 50.2688C1568.66 49.258 1568.17 48.2554 1567.68 47.2608C1567.61 47.1153 1567.61 47.0506 1567.78 46.9778C1570.26 45.8782 1572.84 45.2555 1575.57 45.4334C1576.53 45.4981 1577.47 45.6922 1578.34 46.1046C1580.37 47.0587 1581.3 48.7405 1581.34 50.9075C1581.36 52.9817 1581.36 55.0592 1581.35 57.1358C1581.35 58.2892 1581.35 59.4423 1581.35 60.5943C1581.35 60.8046 1581.28 60.845 1581.09 60.8369H1577.01C1576.82 60.8369 1576.74 60.7965 1576.75 60.5863C1576.76 60.4609 1576.76 60.3356 1576.76 60.1929C1576.75 60.1181 1576.75 60.0386 1576.75 59.9518ZM1576.42 56.3274C1576.42 56.2654 1576.43 56.2031 1576.43 56.1408V56.1327C1576.43 56.0516 1576.42 55.9704 1576.42 55.8896C1576.42 55.7287 1576.42 55.5691 1576.43 55.4131C1576.44 55.219 1576.38 55.1301 1576.18 55.0897C1575.22 54.8956 1574.26 54.7743 1573.29 54.8228C1572.72 54.8471 1572.17 54.9441 1571.68 55.2756C1570.98 55.7608 1570.94 56.7473 1571.6 57.289C1571.83 57.4831 1572.09 57.6124 1572.38 57.6771C1573.64 57.9682 1574.84 57.8065 1576.01 57.3052C1576.31 57.1839 1576.49 57.0464 1576.43 56.6906C1576.41 56.5723 1576.42 56.4505 1576.42 56.3274Z" fill="white"/>
</svg>
