<svg width="1720" height="271" viewBox="0 0 1720 271" fill="none" xmlns="http://www.w3.org/2000/svg">
<rect x="1.5" y="0.84375" width="556" height="122" rx="15.5" fill="#00CCFF" fill-opacity="0.04"/>
<rect x="1.5" y="0.84375" width="556" height="122" rx="15.5" stroke="#00CCFF" stroke-dasharray="8 8"/>
<path fill-rule="evenodd" clip-rule="evenodd" d="M207.65 53.3916C207.81 53.3916 207.89 53.3916 208.049 53.3916C213.711 53.3916 219.453 53.3916 225.115 53.3916H225.513V56.9801H211.717V59.6915H223.599V63.2003H211.717V69.5002C211.638 69.5002 211.558 69.5002 211.478 69.5002C210.282 69.5002 209.086 69.5002 207.89 69.5002C207.89 69.5002 207.81 69.5002 207.73 69.5002V53.3916H207.65Z" fill="white"/>
<path fill-rule="evenodd" clip-rule="evenodd" d="M241.94 53.2314C241.94 54.5871 241.94 55.9428 241.94 57.3782C241.94 57.5377 241.94 57.6175 241.701 57.5377C241.701 57.5377 241.701 57.5377 241.621 57.5377C239.707 57.5377 237.793 57.5377 235.88 57.5377C235.64 57.5377 235.561 57.5377 235.561 57.2187C235.561 55.863 235.561 54.5871 235.561 53.2314H241.94Z" fill="white"/>
<path fill-rule="evenodd" clip-rule="evenodd" d="M247.764 53.2314C248.163 53.4707 248.641 53.7099 248.96 54.0289C249.838 54.9061 250.236 56.0225 250.316 57.2187C250.316 57.458 250.316 57.5377 249.997 57.5377C248.004 57.5377 246.01 57.5377 244.016 57.5377C243.777 57.5377 243.697 57.5377 243.697 57.2187C243.697 56.0225 243.697 54.7466 243.697 53.5504C243.697 53.4707 243.697 53.3112 243.697 53.2314H247.764Z" fill="white"/>
<path fill-rule="evenodd" clip-rule="evenodd" d="M233.726 53.2314C233.726 54.5871 233.726 55.863 233.726 57.2187C233.726 57.458 233.726 57.6174 233.407 57.6174C231.413 57.6174 229.419 57.6174 227.506 57.6174C227.346 57.6174 227.266 57.6174 227.266 57.458C227.107 56.1023 228.303 54.1086 229.499 53.4707C229.659 53.4707 229.738 53.3909 229.898 53.3112H233.885L233.726 53.2314Z" fill="white"/>
<path fill-rule="evenodd" clip-rule="evenodd" d="M349.198 70.4564C348.719 70.3767 348.241 70.1375 347.922 69.8185C347.364 69.1805 347.284 68.3033 347.683 67.5856C348.082 66.8679 348.879 66.4692 349.756 66.6287C350.554 66.7881 351.192 67.4261 351.351 68.1438V68.3033V68.702C351.351 68.702 351.351 68.8615 351.351 68.9413C351.192 69.5792 350.793 70.0577 350.235 70.297C349.995 70.3767 349.836 70.4564 349.597 70.4564H349.278H349.198ZM349.437 66.7881C348.48 66.7881 347.763 67.5059 347.683 68.4628C347.683 69.4198 348.401 70.2172 349.357 70.2172C350.314 70.2172 351.112 69.4198 351.112 68.4628C351.112 67.5059 350.314 66.7882 349.437 66.7084V66.7881Z" fill="white"/>
<path fill-rule="evenodd" clip-rule="evenodd" d="M269.93 62.4028C270.648 62.8016 270.967 63.4395 271.047 64.1572C271.047 65.9116 271.047 67.5863 271.047 69.3407C271.047 69.3407 271.047 69.3407 271.047 69.5002H267.219V69.1812C267.219 67.5065 267.219 65.8319 267.219 64.1572C267.219 63.5193 266.98 63.2003 266.342 63.2003C266.023 63.2003 265.783 63.2003 265.464 63.2003C262.833 63.2003 260.121 63.2003 257.49 63.2003H257.091V69.5002H253.184V53.3916H253.503C257.57 53.3916 261.637 53.3916 265.704 53.3916C266.581 53.3916 267.458 53.3916 268.255 53.7106C269.85 54.1891 270.807 55.146 271.047 56.7409C271.206 57.8573 271.206 58.9738 271.126 60.0105C271.126 60.8079 270.648 61.5256 270.09 62.1636C270.09 62.1636 270.01 62.2433 269.93 62.3231V62.4028ZM257.171 59.6915C257.251 59.6915 257.33 59.6915 257.41 59.6915C260.121 59.6915 262.833 59.6915 265.544 59.6915C265.863 59.6915 266.262 59.6915 266.581 59.6915C266.98 59.6915 267.299 59.3725 267.299 58.894C267.299 58.4953 267.299 58.1763 267.299 57.7776C267.299 57.3789 267.059 57.0599 266.661 56.9801C266.421 56.9801 266.262 56.9801 266.023 56.9801C263.152 56.9801 260.361 56.9801 257.49 56.9801C257.41 56.9801 257.33 56.9801 257.171 56.9801V59.6915Z" fill="white"/>
<path fill-rule="evenodd" clip-rule="evenodd" d="M317.699 69.5002V53.3916H333.569V56.9801H321.686V59.6915H329.98V63.2003H321.686V65.9116H333.648V69.5002H317.699Z" fill="white"/>
<path fill-rule="evenodd" clip-rule="evenodd" d="M300.874 56.9801V69.5002H296.967V53.3916H297.286C301.433 53.3916 305.579 53.3916 309.726 53.3916C310.683 53.3916 311.64 53.5511 312.437 54.0296C313.793 54.7473 314.511 55.9434 314.83 57.3789C314.989 58.0168 314.989 58.6548 314.989 59.3725C314.989 62.7218 314.989 65.9914 314.989 69.3407C314.989 69.4204 314.989 69.5002 314.989 69.6597H311.082V69.2609C311.082 65.8319 311.082 62.4028 311.082 58.9738C311.082 58.6548 311.082 58.2561 310.922 57.9371C310.843 57.4586 310.444 57.2194 309.965 57.1396C309.886 57.1396 309.726 57.1396 309.646 57.1396C306.855 57.1396 303.984 57.1396 301.193 57.1396C301.114 57.1396 301.034 57.1396 300.874 57.1396V56.9801Z" fill="white"/>
<path fill-rule="evenodd" clip-rule="evenodd" d="M276.949 56.9801H273.201V53.3916H287.954V56.9801H280.857V69.5002H276.869V56.9801H276.949Z" fill="white"/>
<path fill-rule="evenodd" clip-rule="evenodd" d="M335.482 56.9801V53.3916H350.235V56.9801H343.138V69.5002H339.23V56.9801H335.482Z" fill="white"/>
<path fill-rule="evenodd" clip-rule="evenodd" d="M293.935 69.5002H290.027V53.3916H293.935V69.5002Z" fill="white"/>
<path fill-rule="evenodd" clip-rule="evenodd" d="M246.967 63.5973C246.01 63.5973 244.973 63.5973 244.016 63.5973C243.777 63.5973 243.697 63.5973 243.697 63.2783C243.697 62.0024 243.697 60.8062 243.697 59.5303C243.697 59.291 243.697 59.291 243.937 59.291C245.93 59.291 248.004 59.291 249.997 59.291C250.157 59.291 250.236 59.291 250.236 59.5303C250.236 60.8062 250.236 62.0821 250.236 63.358C250.236 63.5973 250.157 63.5973 249.997 63.5973C248.96 63.5973 248.004 63.5973 246.967 63.5973Z" fill="white"/>
<path fill-rule="evenodd" clip-rule="evenodd" d="M233.729 59.291V63.5973C233.649 63.5973 233.569 63.5973 233.41 63.5973C231.416 63.5973 229.422 63.5973 227.508 63.5973C227.269 63.5973 227.189 63.5175 227.189 63.2783C227.189 62.0821 227.189 60.8062 227.189 59.61C227.189 59.3708 227.189 59.291 227.508 59.291C229.502 59.291 231.496 59.291 233.489 59.291C233.489 59.291 233.649 59.291 233.729 59.291Z" fill="white"/>
<path fill-rule="evenodd" clip-rule="evenodd" d="M235.561 69.6591V65.4326C235.64 65.4326 235.8 65.4326 235.88 65.4326C237.793 65.4326 239.707 65.4326 241.701 65.4326C241.94 65.4326 242.02 65.5124 242.02 65.7516C242.02 66.9478 242.02 68.2237 242.02 69.4199C242.02 69.5794 242.02 69.7389 241.781 69.7389C239.787 69.7389 237.793 69.7389 235.8 69.7389C235.8 69.7389 235.8 69.7389 235.64 69.7389L235.561 69.6591Z" fill="white"/>
<path fill-rule="evenodd" clip-rule="evenodd" d="M243.695 69.6591V65.4326C243.775 65.4326 243.854 65.4326 243.934 65.4326C245.928 65.4326 247.921 65.4326 249.915 65.4326C250.154 65.4326 250.234 65.4326 250.234 65.7516C250.075 67.2668 249.516 68.6224 248.161 69.4996C247.921 69.6591 247.682 69.7389 247.363 69.7389C246.247 69.7389 245.051 69.7389 243.934 69.7389H243.615L243.695 69.6591Z" fill="white"/>
<path fill-rule="evenodd" clip-rule="evenodd" d="M233.729 65.4323V69.6588C233.649 69.6588 233.569 69.6588 233.41 69.6588C232.373 69.6588 231.336 69.6588 230.3 69.6588C229.582 69.6588 229.024 69.4196 228.545 68.9411C227.827 68.1436 227.429 67.2664 227.189 66.15C227.189 65.9108 227.189 65.6715 227.189 65.3525H233.729V65.4323Z" fill="white"/>
<path fill-rule="evenodd" clip-rule="evenodd" d="M348.96 68.6226V69.4998C348.88 69.4998 348.8 69.4998 348.721 69.4998V67.3467C349.119 67.3467 349.438 67.3467 349.837 67.3467C350.076 67.3467 350.236 67.3467 350.316 67.6657C350.316 67.9049 350.316 68.1441 350.236 68.3036C350.236 68.6226 350.395 69.0213 350.475 69.3403C350.236 69.3403 350.156 69.3403 350.156 69.1011C350.156 68.4631 350.156 68.3834 349.438 68.4631C349.359 68.4631 349.199 68.4631 349.119 68.4631L348.96 68.6226ZM348.96 68.3036C349.199 68.3036 349.438 68.3036 349.678 68.3036C349.917 68.3036 349.997 68.1441 349.997 67.9846C349.997 67.8252 349.997 67.6657 349.757 67.6657C349.518 67.6657 349.199 67.6657 348.96 67.6657V68.3834V68.3036Z" fill="white"/>
<rect x="582.5" y="0.84375" width="555" height="122" rx="15.5" fill="#00CCFF" fill-opacity="0.04"/>
<rect x="582.5" y="0.84375" width="555" height="122" rx="15.5" stroke="#00CCFF" stroke-dasharray="8 8"/>
<path d="M846.886 51.6787C844.627 51.6787 842.28 52.297 839.375 53.859L840.989 57.8658C843.511 56.4516 845.595 55.8333 847.121 55.8333C848.852 55.8333 849.615 56.4814 849.615 57.3357V57.394C849.615 57.9838 849.145 58.3079 848.001 58.4258L846.007 58.6319C841.019 59.1621 838.965 61.3425 838.965 64.3472V64.5533C838.965 67.4116 841.312 69.6503 844.627 69.6503C846.81 69.6503 848.706 68.7248 849.859 67.0914L850.23 69.356H854.748V59.074C854.748 54.2129 851.961 51.6787 846.886 51.6787ZM846.445 65.7304C844.774 65.7304 843.981 65.0822 843.981 64.0802V64.0219C843.981 63.1378 844.479 62.4897 846.298 62.2252L847.091 62.1073C848.249 61.9452 848.96 61.7313 849.615 61.3334V62.6374C849.615 64.6117 848.382 65.7304 846.445 65.7304Z" fill="white"/>
<path d="M789.908 66.346L804.404 51.7966L798.621 45.9932L792.838 51.7966L795.717 54.6847L781.227 69.2367L787.003 75.044L792.786 69.2367L789.908 66.346Z" fill="white"/>
<path d="M787.063 45.9913L772.568 60.5469L778.348 66.3508L792.843 51.7952L787.063 45.9913Z" fill="white"/>
<path d="M807.276 54.6905L792.781 69.2461L798.561 75.05L813.056 60.4944L807.276 54.6905Z" fill="white"/>
<path d="M862.808 45.7871H857.674V69.3534H862.808V45.7871Z" fill="white"/>
<path d="M830.334 51.678C828 51.678 826.126 52.7151 825.094 54.3393L824.702 51.9723H820.184V75.2405H825.317V67.1737C826.295 68.6865 828.143 69.6431 830.334 69.6431C834.441 69.6431 837.786 65.9902 837.786 60.9516V60.3618C837.786 55.3271 834.441 51.6729 830.334 51.6729M832.505 60.8064C832.505 63.4573 831.126 65.3732 828.838 65.3732C826.549 65.3732 825.17 63.4586 825.17 60.8064V60.5122C825.17 57.86 826.549 55.9454 828.838 55.9454C831.126 55.9454 832.505 57.86 832.505 60.5122V60.8064Z" fill="white"/>
<path d="M932.122 51.6787C926.871 51.6787 923.174 55.3316 923.174 60.3702V60.9601C923.174 65.9974 926.871 69.6516 932.122 69.6516C937.374 69.6516 941.071 65.9987 941.071 60.9601V60.3702C941.071 55.3329 937.374 51.6787 932.122 51.6787ZM935.79 60.8123C935.79 63.4632 934.411 65.3791 932.122 65.3791C929.833 65.3791 928.455 63.4645 928.455 60.8123V60.518C928.455 57.8658 929.833 55.9512 932.122 55.9512C934.411 55.9512 935.79 57.8658 935.79 60.518V60.8123Z" fill="white"/>
<path d="M945.804 52.7402V52.6521C945.804 52.1517 945.423 51.7979 944.748 51.7979H943.574V54.5084H944.132V53.5945H944.752L945.218 54.5084H945.833L945.26 53.4363C945.609 53.3288 945.804 53.0669 945.804 52.7402ZM944.131 52.2982H944.746C945.099 52.2982 945.245 52.4162 945.245 52.6819V52.7117C945.245 52.9476 945.097 53.0941 944.746 53.0941H944.131V52.2982Z" fill="white"/>
<path d="M944.646 50.3545C943.062 50.3545 941.859 51.5626 941.859 53.1532C941.859 54.7437 943.062 55.9518 944.646 55.9518C946.23 55.9518 947.433 54.7437 947.433 53.1532C947.433 51.5626 946.23 50.3545 944.646 50.3545ZM944.646 55.5681C943.268 55.5681 942.27 54.5661 942.27 53.1519C942.27 51.7376 943.268 50.7356 944.646 50.7356C946.025 50.7356 947.023 51.7376 947.023 53.1519C947.023 54.5661 946.025 55.5681 944.646 55.5681Z" fill="white"/>
<path d="M908.083 45.7871H902.949V69.3534H908.083V45.7871Z" fill="white"/>
<path d="M918.18 65.3753C916.684 65.3753 916.126 64.639 916.126 63.0484V55.9474H922.17V51.9705H916.126V47.9922L910.992 48.7583V63.5488C910.992 67.5854 913.046 69.6478 917.154 69.6478C918.972 69.6478 921.114 69.0878 922.875 68.0858L921.408 64.4329C920.379 64.9929 918.943 65.3766 918.18 65.3766" fill="white"/>
<path d="M892.093 51.6787C889.834 51.6787 887.487 52.297 884.582 53.859L886.196 57.8658C888.718 56.4516 890.802 55.8333 892.328 55.8333C894.059 55.8333 894.822 56.4814 894.822 57.3357V57.394C894.822 57.9838 894.352 58.3079 893.208 58.4258L891.214 58.6319C886.226 59.1621 884.172 61.3425 884.172 64.3472V64.5533C884.172 67.4116 886.519 69.6503 889.834 69.6503C892.015 69.6503 893.913 68.7248 895.066 67.0914L895.437 69.356H899.955V59.074C899.955 54.2129 897.168 51.6787 892.093 51.6787ZM891.653 65.7304C889.98 65.7304 889.188 65.0822 889.188 64.0802V64.0219C889.188 63.1378 889.687 62.4897 891.505 62.2252L892.298 62.1073C893.456 61.9452 894.167 61.7313 894.82 61.3334V62.6374C894.82 64.6117 893.589 65.7304 891.653 65.7304Z" fill="white"/>
<path d="M874.046 51.6787C868.795 51.6787 865.098 55.3316 865.098 60.3702V60.9601C865.098 65.9974 868.795 69.6516 874.046 69.6516C879.297 69.6516 882.994 65.9987 882.994 60.9601V60.3702C882.993 55.3329 879.297 51.6787 874.046 51.6787ZM877.712 60.8123C877.712 63.4632 876.333 65.3791 874.045 65.3791C871.756 65.3791 870.377 63.4645 870.377 60.8123V60.518C870.377 57.8658 871.756 55.9512 874.045 55.9512C876.333 55.9512 877.712 57.8658 877.712 60.518V60.8123Z" fill="white"/>
<path d="M898.146 77.7789L896.287 75.3159H896.274V77.7789H895.061V73.54H896.377L898.197 75.9382H898.21V73.54H899.424V77.7789H898.146Z" fill="white"/>
<path d="M902.303 76.0807V76.7418H904.885L904.756 77.7789H901.025V73.54H904.756V74.5641H902.303V75.1474H904.24V76.0807H902.303Z" fill="white"/>
<path d="M907.465 77.7789V74.6289H905.916V73.54H910.047L910.176 74.6289H908.627V77.7789H907.465Z" fill="white"/>
<path d="M916.373 76.4826L917.018 73.54H918.309L917.147 77.7789H915.598L914.823 75.2122H914.694L913.92 77.7789H912.242L911.209 73.54H912.5L913.274 76.4826L914.178 73.54H915.469L916.243 76.4826H916.373Z" fill="white"/>
<path d="M919.213 75.653C919.213 74.2712 920.147 73.4053 921.626 73.4053C923.104 73.4053 924.039 74.2712 924.039 75.653C924.039 77.0348 923.105 77.9008 921.626 77.9008C920.147 77.9008 919.213 77.0336 919.213 75.653ZM922.778 75.653C922.778 74.9206 922.356 74.4838 921.626 74.4838C920.895 74.4838 920.473 74.9206 920.473 75.653C920.473 76.3867 920.895 76.8223 921.619 76.8223C922.35 76.8223 922.778 76.3854 922.778 75.653Z" fill="white"/>
<path d="M925.406 73.54H927.868C928.99 73.54 929.54 74.0728 929.54 75.0606C929.54 75.7385 929.262 76.2 928.719 76.4178L929.72 77.7815H928.285L927.507 76.6667H926.674V77.7815H925.406V73.54ZM927.704 75.6724C928.126 75.6724 928.277 75.4365 928.277 75.115C928.277 74.7935 928.126 74.5641 927.704 74.5641H926.673V75.6724H927.704Z" fill="white"/>
<path d="M934.055 75.5752L935.733 77.7659V77.7789H934.313L933.022 76.1456H932.506V77.7789H931.215V73.54H932.506V75.0956H933.022L934.184 73.54H935.733L934.055 75.5752Z" fill="white"/>
<path d="M936.773 77.4941V76.3313H936.779C937.485 76.6891 938.173 76.8641 938.77 76.8641C939.223 76.8641 939.451 76.7552 939.451 76.5426C939.451 76.33 939.3 76.2756 938.395 76.1304C937.406 75.9736 936.748 75.6754 936.748 74.8212C936.748 74.0279 937.443 73.416 938.799 73.416C939.343 73.416 939.909 73.5314 940.435 73.7556V74.9067L940.428 74.9132C939.927 74.6229 939.252 74.4401 938.709 74.4401C938.226 74.4401 938.034 74.5554 938.034 74.7486C938.034 74.9975 938.329 75.0208 939.072 75.1491C940.06 75.319 940.719 75.5977 940.719 76.4947C940.719 77.1908 940.2 77.8882 938.71 77.8882C937.974 77.8882 937.388 77.7365 936.773 77.4941Z" fill="white"/>
<rect x="1162.5" y="0.84375" width="556" height="122" rx="15.5" fill="#00CCFF" fill-opacity="0.04"/>
<rect x="1162.5" y="0.84375" width="556" height="122" rx="15.5" stroke="#00CCFF" stroke-dasharray="8 8"/>
<path d="M1410.69 71.8493C1409.53 71.8493 1408.38 71.8493 1407.24 71.8625C1407.12 71.8625 1407.08 71.823 1407.09 71.7111C1407.09 71.665 1407.09 71.6123 1407.09 71.5662C1407.09 65.0749 1407.09 58.5903 1407.09 52.099C1407.09 51.8554 1407.14 51.8027 1407.39 51.8027C1411.56 51.8291 1415.74 51.8093 1419.9 51.8752C1419.97 51.8752 1420.03 51.8751 1420.09 51.8817C1420.36 51.9673 1420.62 51.9015 1420.88 51.9212C1421.18 51.941 1421.48 51.8752 1421.77 51.9607C1422.88 51.9607 1423.95 52.099 1424.98 52.5335C1425.69 52.8363 1426.32 53.2906 1426.82 53.8568C1427.71 54.8509 1428.17 56.0425 1428.24 57.3723C1428.3 58.7417 1428 60.0057 1427.23 61.1578C1426.55 62.1782 1425.62 62.8497 1424.47 63.2777C1423.12 63.778 1421.77 63.7253 1420.4 63.4818C1420.42 63.5081 1420.44 63.541 1420.46 63.5673C1421 64.1006 1421.54 64.6273 1422.06 65.1737C1422.8 65.9374 1423.54 66.6813 1424.29 67.4318C1424.91 68.0638 1425.53 68.7024 1426.16 69.3344C1426.88 70.0718 1427.59 70.8223 1428.34 71.5399C1428.38 71.586 1428.44 71.6386 1428.42 71.6979C1428.4 71.7769 1428.31 71.7308 1428.26 71.7308C1426.91 71.7308 1425.57 71.7308 1424.23 71.7308C1424.12 71.7308 1424.02 71.7308 1423.98 71.5991C1423.97 71.5662 1423.93 71.5399 1423.9 71.5136C1423.29 70.9145 1422.68 70.3285 1422.08 69.7163C1421.39 69.0118 1420.69 68.3206 1420 67.6227C1419.3 66.9315 1418.62 66.2336 1417.93 65.5424C1417.23 64.8445 1416.54 64.1467 1415.84 63.4488C1415.16 62.7642 1414.47 62.0795 1413.79 61.3816C1413.47 61.0459 1413.12 60.7299 1412.8 60.3875C1412.89 60.3151 1412.98 60.348 1413.06 60.348C1416.04 60.348 1419.01 60.348 1421.98 60.348C1422.17 60.348 1422.35 60.3349 1422.54 60.3415C1423.08 60.348 1423.58 60.1637 1424.06 59.9201C1424.76 59.5646 1425.08 58.9458 1425.17 58.215C1425.26 57.4645 1425.22 56.7206 1424.81 56.0359C1424.62 55.7199 1424.35 55.5092 1424.04 55.3512C1423.68 55.1735 1423.28 55.1076 1422.89 55.055C1422.8 54.9891 1422.7 55.022 1422.61 55.0155C1418.79 55.0155 1414.97 55.0155 1411.15 55.0155C1411.07 55.0155 1410.99 55.0155 1410.91 55.0155C1410.79 55.0155 1410.71 55.055 1410.73 55.1932C1410.73 55.259 1410.73 55.3183 1410.73 55.3841C1410.73 60.7694 1410.73 66.1546 1410.73 71.5399C1410.73 71.632 1410.75 71.7308 1410.71 71.823L1410.69 71.8493Z" fill="white"/>
<path d="M1454.47 63.3303C1454.14 63.3172 1453.82 63.2908 1453.49 63.2908C1450.54 63.2908 1447.59 63.2908 1444.64 63.2777C1443.66 63.2777 1442.71 63.0538 1441.86 62.5601C1440.19 61.5923 1439.19 60.1637 1439.03 58.215C1438.9 56.6942 1439.28 55.2985 1440.21 54.0609C1440.49 53.6856 1440.82 53.3828 1441.17 53.0799C1441.86 52.4677 1442.69 52.1912 1443.56 51.9542C1444.02 51.8291 1444.47 51.8027 1444.93 51.8027C1449.41 51.8027 1453.89 51.8027 1458.38 51.8027C1458.71 51.8027 1458.71 51.8027 1458.56 52.0924C1458.11 52.9548 1457.66 53.8107 1457.22 54.6797C1457.14 54.8509 1457.03 54.8904 1456.86 54.8904C1452.93 54.8904 1449.01 54.8904 1445.08 54.8904C1444.89 54.8904 1444.7 54.8904 1444.5 54.9035C1443.97 54.943 1443.48 55.1471 1443.05 55.4368C1442.37 55.8845 1442.13 56.5757 1442.07 57.3394C1442.01 58.0307 1442.13 58.6956 1442.56 59.2618C1442.85 59.6502 1443.29 59.8477 1443.75 59.9662C1444.16 60.0715 1444.58 60.0979 1445.01 60.1045C1448.03 60.1045 1451.06 60.0847 1454.1 60.1242C1455.33 60.144 1456.53 60.46 1457.55 61.171C1459.35 62.435 1460.19 64.1862 1460.03 66.3982C1459.94 67.5964 1459.55 68.6958 1458.86 69.6834C1458.78 69.7887 1458.7 69.8809 1458.61 69.9796C1457.93 70.7433 1457.11 71.27 1456.12 71.5794C1455.43 71.7966 1454.76 71.8559 1454.05 71.8559C1449.38 71.8559 1444.7 71.8559 1440.02 71.8559C1439.92 71.8559 1439.83 71.8559 1439.71 71.8559C1439.76 71.7374 1439.8 71.6386 1439.85 71.5465C1440.34 70.6775 1440.85 69.8084 1441.34 68.9328C1441.45 68.7353 1441.57 68.6629 1441.8 68.6629C1445.76 68.6695 1449.71 68.6629 1453.67 68.6629C1454 68.6629 1454.33 68.6827 1454.64 68.5839C1455.16 68.4259 1455.7 68.2877 1456.13 67.919C1456.87 67.2936 1457.09 66.4838 1456.97 65.5555C1456.81 64.3244 1455.95 63.5213 1454.68 63.4093C1454.62 63.3567 1454.54 63.3764 1454.48 63.3238L1454.47 63.3303Z" fill="white"/>
<path d="M1392.89 51.9698C1393.55 52.1015 1394.05 52.4307 1394.4 53.01C1394.75 53.6025 1395.12 54.1884 1395.48 54.781C1396.14 55.8672 1396.8 56.9601 1397.46 58.0463C1397.84 58.6915 1398.23 59.3433 1398.63 59.9885C1399.29 61.0813 1399.96 62.1807 1400.62 63.2736C1401 63.9056 1401.38 64.5376 1401.76 65.1696C1402.42 66.2559 1403.08 67.3422 1403.74 68.435C1404.16 69.1197 1404.59 69.8044 1404.99 70.4956C1405.2 70.8511 1405.42 71.2001 1405.63 71.5556C1405.71 71.6806 1405.75 71.7662 1405.53 71.7596C1404.41 71.7596 1403.28 71.7596 1402.15 71.7596C1402.03 71.7596 1401.98 71.7201 1401.92 71.6082C1401.72 71.2396 1401.49 70.884 1401.27 70.522C1400.72 69.5739 1400.13 68.6457 1399.56 67.7042C1398.92 66.6377 1398.27 65.5646 1397.64 64.4915C1397.25 63.82 1396.85 63.1485 1396.44 62.4836C1395.8 61.4302 1395.17 60.3703 1394.54 59.3169C1394.13 58.6323 1393.72 57.9542 1393.32 57.2695C1393.04 56.8087 1392.77 56.3412 1392.49 55.8606C1391.13 58.1517 1389.78 60.4295 1388.4 62.7469H1395.86C1395.71 63.0168 1395.57 63.2604 1395.43 63.4974C1394.98 64.2479 1394.53 64.9919 1394.08 65.749C1394 65.8872 1393.9 65.9399 1393.74 65.9399C1391.4 65.9399 1389.07 65.9399 1386.73 65.9333C1386.55 65.9333 1386.44 65.9794 1386.35 66.144C1385.69 67.2697 1385.02 68.3889 1384.36 69.5081C1383.96 70.1796 1383.53 70.8314 1383.18 71.5226C1383.01 71.8452 1382.81 71.8847 1382.51 71.8782C1381.51 71.865 1380.51 71.8782 1379.52 71.8782H1379.26C1379.32 71.7596 1379.36 71.6543 1379.41 71.5621C1379.68 71.121 1379.95 70.68 1380.22 70.2389C1380.74 69.383 1381.27 68.5272 1381.79 67.6713C1382.2 66.9867 1382.62 66.2954 1383.03 65.6107C1383.67 64.5574 1384.31 63.504 1384.95 62.4441C1385.36 61.7726 1385.76 61.0945 1386.17 60.423C1386.81 59.3564 1387.46 58.2899 1388.1 57.2168C1388.5 56.5585 1388.9 55.8936 1389.3 55.2352C1389.77 54.4584 1390.21 53.6684 1390.71 52.9178C1391.05 52.4175 1391.56 52.1147 1392.15 51.9962C1392.31 51.9632 1392.46 51.8579 1392.63 51.8974C1392.7 51.9632 1392.81 51.9106 1392.88 51.9764L1392.89 51.9698Z" fill="white"/>
<path d="M1501.68 71.863C1500.46 71.863 1499.28 71.863 1498.09 71.863C1497.98 71.863 1497.92 71.8104 1497.88 71.7182C1497.65 71.3166 1497.44 70.915 1497.2 70.5134C1496.65 69.5654 1496.08 68.624 1495.53 67.676C1494.91 66.6226 1494.29 65.5627 1493.68 64.5027C1493.08 63.4757 1492.48 62.4421 1491.87 61.4151C1491.26 60.3618 1490.65 59.315 1490.04 58.2682C1489.63 57.5836 1489.24 56.8923 1488.83 56.2076C1488.75 56.0562 1488.71 55.8784 1488.56 55.7534C1487.21 58.0312 1485.86 60.3025 1484.5 62.6067H1491.95C1491.77 62.9161 1491.62 63.2058 1491.44 63.4889C1491.02 64.1933 1490.6 64.8912 1490.18 65.5956C1490.09 65.7602 1489.98 65.8194 1489.79 65.8194C1487.42 65.8129 1485.05 65.8194 1482.69 65.8129C1482.52 65.8129 1482.42 65.8589 1482.33 66.0104C1481.64 67.1756 1480.94 68.3343 1480.26 69.4996C1479.83 70.2238 1479.4 70.9545 1478.99 71.6853C1478.94 71.7709 1478.88 71.7577 1478.8 71.7577C1477.67 71.7577 1476.53 71.7577 1475.4 71.7577C1475.2 71.7577 1475.23 71.6787 1475.3 71.5668C1475.51 71.2179 1475.73 70.8821 1475.93 70.5266C1476.49 69.5786 1477.08 68.6503 1477.65 67.7155C1478.3 66.6424 1478.95 65.5693 1479.6 64.4962C1480.01 63.8247 1480.41 63.1466 1480.82 62.475C1481.45 61.4283 1482.09 60.3815 1482.72 59.3348C1483.14 58.6435 1483.56 57.9456 1483.98 57.2544C1484.61 56.2076 1485.26 55.1674 1485.87 54.1075C1486.11 53.6927 1486.37 53.2912 1486.62 52.8896C1486.86 52.5011 1487.24 52.2378 1487.66 52.0271C1487.96 51.8757 1488.26 51.7835 1488.59 51.8362C1489.29 51.9415 1489.84 52.3036 1490.21 52.8896C1490.47 53.2912 1490.72 53.6927 1490.95 54.1141C1491.25 54.6539 1491.58 55.1609 1491.91 55.6875C1492.6 56.8265 1493.29 57.972 1493.99 59.1109C1494.39 59.7824 1494.8 60.4605 1495.2 61.132C1495.84 62.1788 1496.47 63.2256 1497.11 64.2723C1497.53 64.9636 1497.94 65.6614 1498.36 66.3527C1499 67.3995 1499.63 68.4462 1500.27 69.493C1500.68 70.1711 1501.09 70.8492 1501.5 71.5339C1501.56 71.6326 1501.6 71.7445 1501.67 71.8762L1501.68 71.863Z" fill="white"/>
<path d="M1460.76 54.8907C1460.78 54.8381 1460.8 54.8051 1460.81 54.7854C1461.12 54.3246 1461.43 53.8571 1461.74 53.3963C1462.07 52.8959 1462.39 52.4022 1462.71 51.9018C1462.75 51.8426 1462.8 51.8097 1462.87 51.8163C1462.92 51.8163 1462.98 51.8163 1463.03 51.8163C1468.58 51.8163 1474.13 51.8163 1479.68 51.8163C1479.91 51.8163 1479.99 51.8623 1479.98 52.1125C1479.96 52.9684 1479.97 53.8176 1479.98 54.6735C1479.98 54.8644 1479.93 54.9105 1479.74 54.9105C1477.42 54.9105 1475.09 54.9105 1472.76 54.8973C1472.55 54.8973 1472.51 54.9566 1472.51 55.1606C1472.51 60.6381 1472.51 66.1089 1472.51 71.5863C1472.51 71.8102 1472.48 71.8826 1472.23 71.876C1471.26 71.8628 1470.3 71.876 1469.33 71.876C1469.1 71.876 1468.99 71.7685 1468.99 71.5534C1468.99 66.1089 1468.99 60.671 1468.99 55.2265C1468.99 55.0158 1468.89 54.9105 1468.68 54.9105C1466.13 54.9105 1463.57 54.9105 1461.03 54.9105H1460.75L1460.76 54.8907Z" fill="white"/>
<path d="M1431.99 61.824C1431.99 58.5783 1431.99 55.3261 1431.99 52.0805C1431.99 51.8566 1432.05 51.8105 1432.26 51.8105C1433.26 51.8237 1434.26 51.8171 1435.26 51.8105C1435.43 51.8105 1435.5 51.8369 1435.5 52.041C1435.5 58.5783 1435.5 65.1157 1435.5 71.653C1435.5 71.8374 1435.45 71.8769 1435.28 71.8703C1434.26 71.8637 1433.25 71.8571 1432.23 71.8703C1432.03 71.8703 1431.99 71.811 1431.99 71.6201C1431.99 68.3547 1431.99 65.0893 1431.99 61.824Z" fill="white"/>
<path d="M1410.69 71.8511C1410.69 66.3671 1410.69 60.8831 1410.69 55.3991C1410.69 55.1226 1410.83 54.9844 1411.11 54.9844C1414.76 54.9844 1418.4 54.9844 1422.04 54.9844C1422.26 54.9844 1422.46 54.991 1422.67 54.9975C1422.71 55.0173 1422.71 55.0436 1422.68 55.0765C1422.49 55.0765 1422.28 55.0765 1422.08 55.0765C1418.4 55.0765 1414.72 55.0765 1411.03 55.0765C1410.79 55.0765 1410.73 55.1358 1410.73 55.3794C1410.73 60.7712 1410.73 66.1696 1410.73 71.5615C1410.73 71.6602 1410.77 71.7656 1410.68 71.8511H1410.69Z" fill="white"/>
<path d="M1421.77 51.9676C1421.47 51.9676 1421.17 51.9676 1420.87 51.9676C1420.83 51.9479 1420.83 51.9216 1420.85 51.8887C1421.12 51.8887 1421.38 51.8887 1421.65 51.8887C1421.71 51.8887 1421.77 51.9018 1421.78 51.9676H1421.77Z" fill="white"/>
<path d="M1420.85 51.8894C1420.85 51.8894 1420.86 51.942 1420.87 51.9683C1420.66 51.9683 1420.46 51.9683 1420.25 51.9683C1420.18 51.9683 1420.11 51.9815 1420.09 51.8828C1420.34 51.8828 1420.6 51.8828 1420.85 51.8828V51.8894Z" fill="white"/>
<path d="M1392.89 51.9682C1392.8 51.9682 1392.69 52.0143 1392.64 51.8893C1392.73 51.8827 1392.84 51.8301 1392.89 51.9682Z" fill="white"/>
<path d="M1422.68 55.0813C1422.68 55.0813 1422.67 55.0287 1422.67 55.0024C1422.75 55.0024 1422.84 54.9629 1422.87 55.0813C1422.81 55.0813 1422.75 55.0813 1422.68 55.0813Z" fill="white"/>
<path d="M1454.47 63.3308C1454.56 63.3242 1454.65 63.3045 1454.68 63.4163C1454.59 63.4295 1454.51 63.4492 1454.47 63.3308Z" fill="white"/>
<rect x="1.5" y="147.844" width="556" height="122" rx="15.5" fill="#00CCFF" fill-opacity="0.04"/>
<rect x="1.5" y="147.844" width="556" height="122" rx="15.5" stroke="#00CCFF" stroke-dasharray="8 8"/>
<path d="M299.27 177.911V178.072C298.865 178.474 298.461 178.394 298.057 178.072V177.911H299.27Z" fill="white"/>
<path d="M257.261 208.997C254.994 208.273 252.971 207.789 251.352 209.803C250.381 211.011 250.381 212.783 251.352 213.91C252.971 215.924 255.075 215.682 257.342 214.715C257.342 215.843 257.342 216.809 257.342 217.856C257.342 218.179 257.18 218.259 256.937 218.34C254.671 219.387 250.704 218.662 248.843 216.809C246.738 214.715 246.172 212.219 247.062 209.481C248.033 206.581 250.3 205.132 253.295 204.809C254.428 204.729 255.48 204.81 256.613 205.051C257.018 205.132 257.342 205.212 257.342 205.776C257.342 206.742 257.342 207.789 257.342 208.836L257.261 208.997Z" fill="white"/>
<path d="M293.928 214.797C293.928 215.924 293.928 216.81 293.928 217.776C293.928 218.179 293.766 218.34 293.442 218.421C291.338 218.904 289.153 219.065 287.129 218.018C284.134 216.488 282.758 213.508 283.487 210.206C284.134 207.307 286.805 205.132 290.043 204.891C290.286 204.891 290.609 204.891 290.852 204.891C293.928 204.891 294.333 205.374 293.928 208.434C293.928 208.917 293.685 208.917 293.361 208.756C292.552 208.434 291.743 208.273 290.933 208.354C288.991 208.354 287.372 209.884 287.291 211.736C287.21 213.589 288.667 215.199 290.609 215.441C291.743 215.602 292.795 215.199 293.928 214.797Z" fill="white"/>
<path d="M273.613 218.823C273.127 218.823 272.804 218.823 272.561 218.823C270.213 218.662 269.89 218.179 270.294 215.924C270.375 215.44 270.699 215.521 270.942 215.601C271.994 215.843 273.046 216.004 274.099 215.924C274.503 215.924 274.908 215.843 275.313 215.682C275.717 215.521 276.122 215.199 276.122 214.716C276.122 214.152 275.798 213.83 275.313 213.669C274.665 213.427 274.099 213.266 273.451 213.024C271.023 212.138 270.052 210.769 270.294 208.675C270.537 206.742 272.156 205.293 274.503 205.051C275.717 204.89 277.012 205.051 278.227 205.293C278.712 205.373 278.955 205.615 278.874 206.098C278.874 206.742 279.036 207.628 278.712 208.112C278.388 208.514 277.498 208.031 276.851 207.95C276.122 207.95 275.475 207.87 274.827 208.112C274.341 208.273 274.018 208.514 274.018 208.997C274.018 209.481 274.341 209.803 274.665 209.964C275.232 210.206 275.879 210.367 276.527 210.608C278.793 211.333 279.926 212.783 279.764 214.716C279.684 216.729 278.388 218.098 276.122 218.662C275.151 218.903 274.18 218.984 273.451 218.903L273.613 218.823Z" fill="white"/>
<path d="M297.975 178.152C298.38 178.152 298.784 178.152 299.189 178.152C299.998 178.555 300.322 179.199 300.322 180.085C300.322 185.884 300.322 191.682 300.322 197.481C300.322 198.367 299.999 199.172 299.027 199.414C297.813 199.736 296.842 198.931 296.842 197.481C296.842 192.488 296.842 187.495 296.842 182.582C296.842 181.776 296.842 180.971 296.842 180.246C296.842 179.36 297.085 178.636 297.894 178.233L297.975 178.152Z" fill="white"/>
<path d="M262.038 188.864C262.038 191.682 262.038 194.501 262.038 197.32C262.038 198.609 261.39 199.333 260.338 199.333C259.286 199.333 258.477 198.528 258.477 197.32C258.477 191.602 258.477 185.884 258.477 180.246C258.477 178.958 259.124 178.152 260.257 178.152C261.39 178.152 261.957 178.877 261.957 180.246C261.957 183.146 261.957 186.045 261.957 188.864H262.038Z" fill="white"/>
<path d="M265.598 211.898C265.598 213.912 265.598 215.925 265.598 217.858C265.598 218.422 265.436 218.583 264.869 218.663C262.117 218.744 262.117 218.744 262.117 216.086C262.117 212.784 262.117 209.402 262.117 206.1C262.117 205.455 262.279 205.214 263.008 205.214C265.679 205.214 265.679 205.214 265.679 207.791C265.679 210.368 265.679 210.529 265.679 211.898H265.598Z" fill="white"/>
<path d="M252.488 190.314C252.488 191.603 252.488 192.891 252.488 194.099C252.488 195.308 251.841 196.032 250.789 196.032C249.817 196.032 249.008 195.388 249.008 194.18C249.008 191.522 249.008 188.865 249.008 186.287C249.008 185.24 249.817 184.596 250.708 184.516C251.679 184.516 252.407 185.24 252.488 186.287C252.488 187.657 252.488 188.945 252.488 190.314Z" fill="white"/>
<path d="M306.475 190.153C306.475 188.945 306.475 187.656 306.475 186.448C306.475 185.321 307.203 184.596 308.255 184.596C309.227 184.596 309.955 185.321 310.036 186.448C310.036 188.945 310.036 191.441 310.036 193.938C310.036 195.146 309.308 195.871 308.255 195.871C307.203 195.871 306.556 195.065 306.556 193.938C306.556 192.649 306.556 191.361 306.556 190.153H306.475Z" fill="white"/>
<path d="M268.191 190.233C268.191 188.945 268.191 187.737 268.191 186.448C268.191 185.321 268.92 184.596 269.81 184.596C270.782 184.596 271.591 185.321 271.591 186.448C271.591 189.025 271.591 191.683 271.591 194.26C271.591 195.388 270.862 196.112 269.81 196.112C268.839 196.112 268.191 195.388 268.191 194.26C268.191 192.891 268.191 191.602 268.191 190.233Z" fill="white"/>
<path d="M290.773 190.234C290.773 191.522 290.773 192.811 290.773 194.18C290.773 195.308 290.126 195.952 289.074 195.952C288.021 195.952 287.293 195.308 287.293 194.099C287.293 191.522 287.293 188.865 287.293 186.287C287.293 185.16 287.941 184.516 288.993 184.516C290.045 184.516 290.693 185.16 290.773 186.368C290.773 187.657 290.773 188.945 290.773 190.314V190.234Z" fill="white"/>
<path d="M284.942 230.662C285.913 229.374 287.127 228.729 288.665 228.729C290.689 228.729 292.227 230.099 292.308 232.112C292.308 234.367 292.308 236.542 292.308 238.797C292.308 239.28 292.227 239.441 291.66 239.441C291.013 239.441 291.094 239.038 291.094 238.716C291.094 236.703 291.094 234.689 291.094 232.756C291.094 230.743 290.203 229.776 288.423 229.696C286.723 229.615 285.185 230.823 285.104 232.515C285.023 234.528 285.104 236.542 285.023 238.635C285.023 238.877 285.104 239.28 284.861 239.441C284.699 239.521 284.376 239.521 284.133 239.441C283.809 239.441 283.89 239.119 283.89 238.877C283.89 235.817 283.89 232.756 283.89 229.696C283.89 229.374 283.89 229.052 284.375 229.052C284.78 229.052 284.942 229.293 284.942 229.615C284.942 229.938 284.942 230.179 285.023 230.662H284.942Z" fill="white"/>
<path d="M242.936 192.568C242.936 193.132 242.936 193.696 242.936 194.34C242.936 195.307 242.288 195.951 241.317 196.032C240.346 196.032 239.536 195.548 239.455 194.582C239.374 193.293 239.374 191.924 239.455 190.555C239.455 189.669 240.427 189.025 241.317 189.105C242.207 189.105 242.855 189.83 242.855 190.716C242.855 191.36 242.855 191.924 242.855 192.568H242.936Z" fill="white"/>
<path d="M316.105 192.489C316.105 191.925 316.105 191.281 316.105 190.717C316.105 189.831 316.834 189.187 317.643 189.106C318.453 189.026 319.343 189.589 319.424 190.475C319.667 191.845 319.667 193.294 319.424 194.663C319.262 195.549 318.615 195.952 317.724 195.952C316.834 195.952 316.186 195.308 316.105 194.422C316.105 193.777 316.105 193.214 316.105 192.569V192.489Z" fill="white"/>
<path d="M281.218 192.488C281.218 193.133 281.218 193.777 281.218 194.421C281.137 195.307 280.408 195.871 279.518 195.871C278.628 195.871 277.899 195.227 277.818 194.341C277.818 193.052 277.818 191.764 277.818 190.556C277.818 189.67 278.628 189.025 279.518 189.025C280.328 189.025 281.056 189.67 281.218 190.475C281.218 190.556 281.218 190.717 281.218 190.797C281.218 191.361 281.218 191.925 281.218 192.408V192.488Z" fill="white"/>
<path d="M278.55 233.965C278.55 232.918 278.55 231.871 278.55 230.743C278.55 230.179 278.47 229.777 277.741 229.857C277.417 229.857 276.932 230.018 276.932 229.374C276.932 228.81 277.417 228.971 277.741 228.971C278.389 228.971 278.631 228.73 278.55 228.166C278.55 227.763 278.55 227.361 278.55 226.958C278.55 226.555 278.793 226.475 279.117 226.475C279.441 226.475 279.603 226.636 279.603 226.958C279.603 227.602 279.36 228.407 279.765 228.891C280.169 229.374 280.979 229.052 281.626 229.052C281.95 229.052 282.112 229.213 282.112 229.535C282.112 229.938 281.869 229.938 281.545 229.938C280.898 229.938 280.007 229.616 279.684 230.179C279.36 230.662 279.603 231.548 279.603 232.193C279.603 233.803 279.603 235.334 279.603 236.944C279.603 238.475 280.007 238.877 281.626 238.797C281.869 238.797 282.274 238.475 282.355 239.038C282.355 239.522 282.112 239.602 281.707 239.683C279.684 240.085 278.55 239.199 278.47 237.105C278.47 236.058 278.47 235.011 278.47 234.045L278.55 233.965Z" fill="white"/>
<path d="M307.204 230.582C308.013 229.293 309.065 228.568 310.603 228.729C311.089 228.729 311.413 228.89 311.413 229.454C311.413 230.179 310.927 229.776 310.603 229.776C308.823 229.696 307.527 230.904 307.366 232.998C307.204 234.85 307.366 236.783 307.366 238.635C307.366 239.118 307.366 239.441 306.718 239.441C306.394 239.441 306.232 239.36 306.232 238.957C306.232 235.816 306.232 232.676 306.232 229.535C306.232 229.212 306.313 229.051 306.718 229.051C307.042 229.051 307.204 229.212 307.204 229.535C307.204 229.937 307.204 230.259 307.204 230.662V230.582Z" fill="white"/>
<path d="M271.427 230.743C272.156 229.293 273.127 228.568 274.746 228.649C275.151 228.649 275.555 228.649 275.555 229.293C275.555 230.018 275.07 229.696 274.746 229.696C272.803 229.615 271.508 231.065 271.427 233.32C271.427 235.092 271.427 236.863 271.427 238.555C271.427 238.957 271.508 239.279 270.861 239.36C270.294 239.36 270.294 239.038 270.294 238.635C270.294 235.655 270.294 232.675 270.294 229.696C270.294 229.373 270.213 229.051 270.699 228.971C271.265 228.971 271.184 229.293 271.265 229.615C271.265 229.937 271.346 230.179 271.427 230.662V230.743Z" fill="white"/>
<path fill-rule="evenodd" clip-rule="evenodd" d="M304.776 219.146C308.823 219.307 312.222 216.085 312.303 212.059H312.222C312.303 208.273 309.147 205.052 305.342 204.971C301.052 204.891 297.734 207.871 297.572 211.978C297.41 215.683 300.81 219.065 304.776 219.146ZM308.661 211.898C308.661 209.884 307.123 208.354 305.019 208.354L305.1 208.273C302.995 208.273 301.377 209.804 301.377 211.817C301.296 213.75 302.995 215.361 305.019 215.361C306.962 215.361 308.661 213.83 308.661 211.898Z" fill="white"/>
<path fill-rule="evenodd" clip-rule="evenodd" d="M248.196 225.911V232.193V238.394C248.196 238.476 248.182 238.569 248.169 238.664C248.114 239.033 248.055 239.441 248.763 239.441C249.424 239.507 249.383 239.088 249.346 238.713C249.337 238.629 249.329 238.548 249.329 238.474V234.689C249.329 234.125 249.572 233.964 250.139 233.964H253.862C256.857 233.884 258.718 231.79 258.476 229.052C258.314 226.877 256.857 225.508 254.429 225.186C253.265 225.035 252.132 225.041 251.012 225.048C250.34 225.051 249.673 225.055 249.005 225.025C248.277 224.944 248.196 225.266 248.196 225.911ZM253.619 225.991H251.92V226.072H249.977C249.491 225.991 249.33 226.233 249.33 226.716V232.273C249.33 232.998 249.572 232.998 250.139 232.998H250.139H253.458C255.643 232.998 257.262 231.548 257.262 229.615C257.343 227.521 255.886 226.072 253.619 225.991Z" fill="white"/>
<path fill-rule="evenodd" clip-rule="evenodd" d="M298.057 239.521C300.647 240.166 303.237 238.877 303.723 236.622V236.542C303.075 236.488 302.644 236.622 302.428 236.944C301.456 238.474 300.161 238.958 298.381 238.555C296.843 238.233 295.71 236.944 295.467 235.333C295.305 234.609 295.467 234.367 296.276 234.367H303.237C303.278 234.367 303.319 234.368 303.359 234.369C303.719 234.376 304.047 234.382 304.047 233.803C304.127 231.79 302.59 229.374 300.728 228.81C298.462 228.085 296.195 228.971 294.981 230.984C294.253 232.273 294.091 233.723 294.253 235.092C294.495 237.347 295.952 238.958 298.057 239.521ZM296.115 233.562H299.11H302.024C302.752 233.642 302.833 233.401 302.752 232.756C302.51 230.985 300.891 229.535 299.11 229.535C297.329 229.535 295.71 231.065 295.468 232.837C295.387 233.32 295.549 233.562 296.115 233.562Z" fill="white"/>
<path fill-rule="evenodd" clip-rule="evenodd" d="M262.525 239.682C264.305 239.923 265.843 239.36 266.977 237.99C267.219 238.151 267.219 238.393 267.219 238.554V238.554C267.24 238.655 267.24 238.761 267.24 238.862C267.24 239.168 267.24 239.44 267.786 239.44C268.298 239.376 268.253 239.061 268.212 238.772C268.201 238.696 268.191 238.621 268.191 238.554V232.192C268.191 230.42 266.977 229.131 265.196 228.809C263.091 228.407 260.906 229.292 260.258 230.742V230.903C260.258 230.984 260.213 231.082 260.168 231.181C260.079 231.377 259.989 231.574 260.258 231.628C260.287 231.635 260.317 231.643 260.347 231.651C260.653 231.732 261.009 231.826 261.23 231.386C261.23 231.225 261.311 231.064 261.392 230.903L261.392 230.903C261.958 229.856 263.496 229.373 265.034 229.695C266.41 230.017 266.977 230.742 267.057 232.111C267.138 232.756 266.896 232.997 266.248 233.078C265.921 233.129 265.587 233.173 265.25 233.218C263.999 233.383 262.701 233.554 261.553 234.125C260.177 234.769 259.53 235.977 259.773 237.346C260.016 238.554 261.068 239.521 262.525 239.682ZM262.038 238.474C264.061 239.44 267.38 238.071 267.056 235.01H266.975C266.92 234.9 266.95 234.723 266.981 234.542C267.04 234.194 267.102 233.83 266.57 233.883C266.237 233.933 265.897 233.972 265.554 234.012C264.232 234.166 262.871 234.324 261.714 235.091C261.066 235.494 260.824 236.057 260.824 236.782C260.905 237.588 261.309 238.151 262.038 238.474Z" fill="white"/>
<rect x="582.5" y="147.844" width="555" height="122" rx="15.5" fill="#00CCFF" fill-opacity="0.04"/>
<rect x="582.5" y="147.844" width="555" height="122" rx="15.5" stroke="#00CCFF" stroke-dasharray="8 8"/>
<path d="M879.017 192.265C878.023 192.098 877.023 191.93 876.034 191.758C873.474 191.307 870.893 191.03 868.302 190.836C867.135 190.753 865.963 190.7 864.795 190.616C864.528 190.595 864.424 190.684 864.335 190.93C861.979 197.646 859.786 204.419 857.541 211.177C857.415 211.549 857.619 211.517 857.839 211.538C860.576 211.763 863.288 212.135 865.957 212.8C868.224 213.365 870.428 214.103 872.364 215.454C873.662 216.359 874.704 217.484 875.175 219.039C875.903 221.421 875.055 223.745 872.924 225.294C871.443 226.367 869.773 226.723 867.978 226.592C866.847 226.509 865.764 226.268 864.774 225.681C863.858 225.142 863.167 224.383 862.597 223.504C861.581 221.939 860.566 220.379 859.551 218.814C859.32 218.458 859.179 218.421 858.797 218.62C858.582 218.735 858.383 218.877 858.205 219.044C857.472 219.725 856.797 220.468 856.096 221.18C855.766 221.515 855.688 221.902 855.871 222.321C856.572 223.938 857.284 225.556 857.991 227.173C858.08 227.383 858.279 227.425 858.457 227.493C859.509 227.896 860.608 228.11 861.718 228.283C863.89 228.628 866.083 228.848 868.276 228.655C872.584 228.273 876.431 226.802 879.499 223.64C881.388 221.693 882.409 219.317 882.796 216.652C883.105 214.532 882.99 212.439 882.252 210.418C881.273 207.738 879.42 205.791 877.007 204.341C874.819 203.027 872.406 202.305 869.92 201.813C868.182 201.473 866.434 201.253 864.665 201.143C864.403 201.127 864.335 201.075 864.424 200.803C864.816 199.635 865.188 198.468 865.554 197.295C865.622 197.07 865.717 197.002 865.963 197.018C868.533 197.138 871.103 197.295 873.668 197.5C875.552 197.651 877.431 197.819 879.305 198.06C879.572 198.096 879.687 198.054 879.74 197.756C879.938 196.542 880.169 195.333 880.394 194.118C886.565 202.765 887.434 218.317 876.086 228.67C864.759 239.008 847.831 237.386 838.425 227.048C839.016 227.142 839.545 227.226 840.073 227.309C842.869 227.744 845.679 228.042 848.501 228.241C850.349 228.372 852.201 228.44 854.054 228.519C854.369 228.534 854.452 228.44 854.431 228.136C854.405 227.76 854.416 227.377 854.431 227.001C854.442 226.77 854.379 226.692 854.133 226.671C852.929 226.577 851.725 226.488 850.553 226.189C849.009 225.802 848.762 225.477 848.611 223.902C848.427 222.044 848.407 220.175 848.349 218.312C848.213 214.066 848.213 209.821 848.26 205.576C848.26 205.304 848.323 205.205 848.621 205.199C850.474 205.189 852.327 205.199 854.18 205.095C854.327 205.084 854.468 205.074 854.604 205.006C855.478 204.582 856.358 204.158 857.237 203.744C857.404 203.666 857.467 203.566 857.462 203.383C857.452 202.886 857.446 202.383 857.462 201.881C857.472 201.635 857.394 201.572 857.153 201.577C854.74 201.619 852.322 201.656 849.909 201.687C849.443 201.692 848.982 201.692 848.516 201.708C848.323 201.713 848.27 201.645 848.281 201.452C848.401 199.148 848.506 196.845 848.626 194.547C848.653 194.082 848.762 193.631 848.967 193.213C849.495 192.129 850.317 191.684 851.552 191.799C852.646 191.899 853.672 192.25 854.662 192.694C855.745 193.187 856.823 193.705 857.902 194.212C858.111 194.312 858.326 194.39 858.556 194.438C858.928 194.506 859.226 194.406 859.467 194.113C859.88 193.6 860.294 193.092 860.749 192.611C861.089 192.25 861.048 191.972 860.645 191.663C859.776 190.993 858.886 190.349 858.043 189.648C857.478 189.177 856.844 188.962 856.132 188.931C851.254 188.701 846.805 189.994 842.816 192.789C841.078 194.008 839.702 195.547 838.89 197.547C838.398 198.766 838.304 200.054 838.226 201.342C838.163 202.32 838.173 202.31 837.205 202.389C836.357 202.457 835.509 202.561 834.656 202.635C834.441 202.655 834.368 202.739 834.352 202.949C834.3 203.823 834.242 204.702 834.169 205.576C834.148 205.812 834.248 205.796 834.42 205.786C835.467 205.712 836.514 205.665 837.561 205.587C837.823 205.566 837.891 205.634 837.88 205.896C837.744 209.272 837.786 212.653 837.943 216.029C838.058 218.453 838.252 220.871 838.472 223.289C838.487 223.473 838.498 223.656 838.498 223.839C838.514 224.462 838.372 224.656 837.77 224.834C836.818 225.121 836.723 225.085 836.158 224.279C833.656 220.714 832.054 216.783 831.515 212.465C830.536 204.66 832.525 197.672 837.556 191.606C841.021 187.429 845.412 184.607 850.621 183.089C854.128 182.063 857.708 181.781 861.335 182.241C867.884 183.074 873.38 185.947 877.866 190.773C878.279 191.218 878.661 191.689 879.059 192.15L879.017 192.25V192.265Z" fill="white"/>
<path d="M886.726 223.475C887.83 223.475 888.72 224.37 888.725 225.474C888.725 226.589 887.809 227.505 886.705 227.5C885.611 227.489 884.705 226.584 884.705 225.49C884.705 224.375 885.611 223.475 886.731 223.48L886.726 223.475Z" fill="white"/>
<path d="M887.596 226.374C887.292 226.505 887.256 226.254 887.151 226.112C886.999 225.914 886.952 225.62 886.58 225.657C886.35 225.678 886.313 225.746 886.298 225.955C886.287 226.102 886.444 226.39 886.172 226.39C885.952 226.39 886.073 226.112 886.067 225.966C886.046 225.589 886.067 225.212 886.057 224.835C886.057 224.647 886.109 224.568 886.303 224.584C886.523 224.6 886.743 224.584 886.957 224.589C887.214 224.605 887.439 224.699 887.517 224.971C887.596 225.238 887.512 225.463 887.25 225.579C887.104 225.647 887.161 225.709 887.208 225.793C887.329 225.987 887.454 226.18 887.585 226.379L887.596 226.374Z" fill="white"/>
<path d="M886.716 225.457C886.319 225.457 886.193 225.29 886.308 224.908C886.314 224.887 886.314 224.845 886.329 224.845C886.591 224.761 886.852 224.772 887.109 224.845C887.276 224.892 887.318 225.039 887.281 225.201C887.218 225.473 886.994 225.457 886.79 225.462C886.763 225.462 886.743 225.462 886.716 225.462V225.457Z" fill="white"/>
<rect x="1162.5" y="147.844" width="556" height="122" rx="15.5" fill="#00CCFF" fill-opacity="0.04"/>
<rect x="1162.5" y="147.844" width="556" height="122" rx="15.5" stroke="#00CCFF" stroke-dasharray="8 8"/>
<path d="M1540.5 205.43C1540.5 202.979 1539.1 201.929 1536.47 201.404C1533.76 200.879 1532.18 200.616 1532.18 198.69C1532.18 196.765 1533.23 196.502 1535.16 196.502C1537.09 196.502 1538.4 197.553 1538.4 198.953L1538.66 199.216H1539.71L1539.97 198.953C1539.97 196.24 1537.79 195.189 1535.16 195.189C1532.53 195.189 1530.61 196.852 1530.61 198.69C1530.61 200.528 1532.27 201.929 1534.9 202.454C1537.61 202.979 1538.92 203.242 1538.92 205.43C1538.92 207.618 1538.14 207.881 1535.42 207.881C1532.71 207.881 1531.92 206.48 1531.92 204.905L1531.66 204.642H1530.61L1530.35 204.905C1530.35 207.356 1532.27 209.194 1535.42 209.194C1538.92 209.194 1540.5 207.618 1540.5 205.43ZM1529.03 202.717L1529.3 202.454V201.666C1529.3 197.903 1527.11 195.189 1523.43 195.189C1519.75 195.189 1517.57 197.903 1517.57 201.666V202.191C1517.57 205.955 1519.49 209.194 1523.69 209.194C1527.89 209.194 1528.77 206.743 1529.03 205.167L1528.77 204.905H1527.72L1527.46 205.167C1526.93 206.83 1525.79 207.881 1523.69 207.881C1520.19 207.881 1519.14 204.642 1519.14 203.067L1519.4 202.804H1529.03V202.717ZM1527.46 201.404H1519.4L1519.14 201.141C1519.14 199.216 1520.19 196.59 1523.43 196.59C1526.67 196.59 1527.72 199.303 1527.72 201.141L1527.37 201.404H1527.46ZM1515.64 208.669V195.802L1515.38 195.539H1514.33L1514.07 195.802V208.669L1514.33 208.931H1515.38L1515.64 208.669ZM1515.64 193.089V191.426L1515.38 191.163H1514.33L1514.07 191.426V193.089L1514.33 193.351H1515.38L1515.64 193.089ZM1505.49 207.793C1502.77 207.793 1501.2 205.868 1501.2 202.191C1501.2 198.515 1502.86 196.59 1505.49 196.59C1508.11 196.59 1509.78 198.515 1509.78 202.191C1509.78 205.955 1508.11 207.793 1505.49 207.793ZM1509.78 207.006C1509.78 210.507 1508.99 213.132 1505.75 213.132C1502.51 213.132 1502.51 212.082 1502.25 210.682L1501.99 210.419H1500.94L1500.67 210.682C1500.94 212.87 1502.6 214.445 1505.75 214.445C1508.9 214.445 1511.35 212.257 1511.35 206.918V195.714L1511.09 195.452H1510.3L1510.04 195.714L1509.78 197.377H1509.51C1508.99 196.327 1507.59 195.189 1505.22 195.189C1501.46 195.189 1499.62 198.165 1499.62 202.191C1499.62 206.218 1501.55 209.194 1505.22 209.194C1508.9 209.194 1508.99 208.143 1509.51 207.006H1509.78ZM1492.36 196.59C1495.07 196.59 1496.91 198.778 1496.91 202.191C1496.91 205.605 1494.98 207.793 1492.36 207.793C1489.73 207.793 1487.81 205.605 1487.81 202.191C1487.81 198.778 1489.73 196.59 1492.36 196.59ZM1492.36 209.194C1495.86 209.194 1498.49 206.743 1498.49 202.191C1498.49 197.64 1495.77 195.189 1492.36 195.189C1488.94 195.189 1486.23 197.64 1486.23 202.191C1486.23 206.743 1488.86 209.194 1492.36 209.194ZM1484.31 208.669V190.463L1484.04 190.2H1482.99L1482.73 190.463V208.669L1482.99 208.931H1484.04L1484.31 208.669ZM1474.77 196.59C1477.48 196.59 1479.32 198.778 1479.32 202.191C1479.32 205.605 1477.39 207.793 1474.77 207.793C1472.14 207.793 1470.21 205.605 1470.21 202.191C1470.21 198.778 1472.14 196.59 1474.77 196.59ZM1474.77 209.194C1478.27 209.194 1480.89 206.743 1480.89 202.191C1480.89 197.64 1478.18 195.189 1474.77 195.189C1471.35 195.189 1468.64 197.64 1468.64 202.191C1468.64 206.743 1471.26 209.194 1474.77 209.194ZM1466.98 208.669V200.616C1466.98 197.115 1465.05 195.277 1462.16 195.277C1459.27 195.277 1458.66 196.065 1457.87 197.465H1457.61L1457.35 195.802L1457.08 195.539H1456.3L1456.03 195.802V208.669L1456.3 208.931H1457.35L1457.61 208.669V201.404C1457.61 198.428 1459.01 196.59 1461.9 196.59C1464.79 196.59 1465.4 197.99 1465.4 200.616V208.669L1465.66 208.931H1466.71L1467.06 208.669H1466.98ZM1453.32 208.669V200.616C1453.32 197.115 1451.4 195.277 1448.51 195.277C1445.62 195.277 1445.01 196.065 1444.22 197.465H1443.96V190.463L1443.69 190.2H1442.64L1442.38 190.463V208.669L1442.64 208.931H1443.69L1443.96 208.669V201.404C1443.96 198.428 1445.36 196.59 1448.24 196.59C1451.13 196.59 1451.75 197.99 1451.75 200.616V208.669L1452.01 208.931H1453.06L1453.41 208.669H1453.32ZM1430.3 202.191C1430.3 198.428 1432.23 196.59 1434.85 196.59C1437.48 196.59 1438.62 198.253 1438.88 199.828L1439.14 200.091H1440.19L1440.45 199.828C1440.19 197.115 1438 195.277 1434.85 195.277C1431.7 195.277 1428.73 197.465 1428.73 202.279C1428.73 207.093 1431.44 209.281 1434.85 209.281C1438.27 209.281 1440.19 207.356 1440.45 204.73L1440.19 204.467H1439.14L1438.88 204.73C1438.62 206.393 1437.48 207.968 1434.85 207.968C1432.14 207.968 1430.3 206.13 1430.3 202.367M1427.33 202.717L1427.59 202.454V201.666C1427.59 197.903 1425.4 195.189 1421.72 195.189C1418.05 195.189 1415.86 197.903 1415.86 201.666V202.191C1415.86 205.955 1417.78 209.194 1421.99 209.194C1426.19 209.194 1427.06 206.743 1427.33 205.167L1427.06 204.905H1426.01L1425.75 205.167C1425.22 206.83 1424.09 207.881 1421.99 207.881C1418.49 207.881 1417.43 204.642 1417.43 203.067L1417.7 202.804H1427.33V202.717ZM1425.66 201.404H1417.61L1417.35 201.141C1417.35 199.216 1418.4 196.59 1421.64 196.59C1424.87 196.59 1425.92 199.303 1425.92 201.141L1425.57 201.404H1425.66ZM1418.49 191.251V190.463L1418.22 190.2H1404.31L1404.04 190.463V191.251L1404.31 191.513H1410.17L1410.43 191.776V208.669L1410.7 208.931H1411.75L1412.01 208.669V191.776L1412.27 191.513H1418.13L1418.49 191.251Z" fill="white"/>
<path d="M1404.05 205.167V208.931H1391.97V190.2H1396.26V205.167H1404.13H1404.05ZM1348.2 208.931C1352.58 208.931 1356.25 205.955 1357.31 201.929L1367.9 210.244L1378.49 201.929V208.931H1390.57V205.167H1382.69V190.2H1378.4V197.202L1368.25 205.167L1365.97 203.417L1370.87 199.565L1376.21 195.452L1373.15 193.088L1362.99 201.053L1360.72 199.303L1370.87 191.338L1367.81 188.975L1357.22 197.29C1356.17 193.263 1352.49 190.288 1348.11 190.288H1340.5V209.018H1348.11L1348.2 208.931ZM1344.79 205.167V193.876H1348.2C1351 193.876 1353.37 196.414 1353.37 199.565C1353.37 202.716 1351.09 205.255 1348.2 205.255H1344.79V205.167Z" fill="white"/>
<path d="M1420.06 221.711H1417.79L1417.61 221.886V228.275L1417.44 228.45H1416.04L1415.86 228.275V221.886L1415.69 221.711H1413.41L1413.23 221.536V220.398L1413.41 220.223H1419.8L1419.97 220.398V221.536L1420.06 221.711Z" fill="white"/>
<path d="M1423.91 228.363H1422.51L1422.34 228.188V220.486L1422.51 220.311H1423.91L1424.09 220.486V228.188L1423.91 228.363Z" fill="white"/>
<path d="M1432.84 221.711H1430.57L1430.39 221.886V228.275L1430.21 228.45H1428.81L1428.64 228.275V221.886L1428.46 221.711H1426.19L1426.01 221.536V220.398L1426.19 220.223H1432.67L1432.84 220.398V221.536H1432.67L1432.84 221.711Z" fill="white"/>
<path d="M1440.63 228.363H1439.58L1439.41 228.188L1438.79 226.7L1438.53 226.525H1435.64L1435.38 226.7L1434.77 228.188L1434.59 228.363H1433.54L1433.37 228.188V227.05L1435.99 220.398L1436.17 220.223H1437.66L1437.83 220.398L1440.46 227.05V228.188L1440.28 228.363H1440.63ZM1437.39 222.411H1437.22L1436.17 225.124L1436.34 225.299H1438.27L1438.44 225.124L1437.39 222.411Z" fill="white"/>
<path d="M1443.17 220.311H1444.75L1445.01 220.486L1448.07 225.737H1448.25V220.486L1448.42 220.311H1449.82L1450 220.486V228.188L1449.82 228.363H1448.25L1447.99 228.188L1444.92 222.936H1444.75V228.188L1444.57 228.363H1443.17L1443 228.188V220.486L1443.17 220.311Z" fill="white"/>
<path d="M1454.2 228.363H1452.8L1452.62 228.188V220.486L1452.8 220.311H1454.2L1454.38 220.486V228.188L1454.2 228.363Z" fill="white"/>
<path d="M1463.65 225.3C1463.65 227.4 1462.51 228.538 1460.41 228.538C1458.31 228.538 1457.17 227.4 1457.17 225.3V220.486L1457.34 220.311H1458.75L1458.92 220.486V225.3C1458.92 226.437 1459.36 227.138 1460.5 227.138C1461.63 227.138 1462.07 226.437 1462.07 225.3V220.486L1462.25 220.311H1463.65L1463.82 220.486V225.3H1463.65Z" fill="white"/>
<path d="M1475.03 228.363H1473.63L1473.46 228.188V223.724H1473.28L1471.44 228.188L1471.27 228.363H1469.95L1469.78 228.188L1467.94 223.724H1467.77V228.188L1467.59 228.363H1466.19L1466.02 228.188V220.486L1466.19 220.311H1467.94L1468.12 220.486L1470.39 226.087H1470.57L1472.84 220.486L1473.02 220.311H1474.77L1474.94 220.486V228.363H1475.03Z" fill="white"/>
<path d="M1486.49 225.125H1484.31L1484.13 225.3V228.276L1483.96 228.451H1482.56L1482.38 228.276V220.573L1482.56 220.398H1486.32C1487.9 220.398 1489.03 221.186 1489.03 222.762C1489.03 224.337 1487.9 225.212 1486.32 225.212L1486.49 225.125ZM1486.49 221.711H1484.31L1484.13 221.886V223.724L1484.31 223.9H1486.49C1487.19 223.9 1487.63 223.637 1487.63 222.849C1487.63 222.061 1487.11 221.711 1486.49 221.711Z" fill="white"/>
<path d="M1496.91 228.363H1495.86L1495.68 228.188L1495.07 226.7L1494.81 226.525H1491.92L1491.66 226.7L1491.04 228.188L1490.87 228.363H1489.82L1489.64 228.188V227.05L1492.27 220.398L1492.44 220.223H1493.93L1494.11 220.398L1496.73 227.05V228.188L1496.56 228.363H1496.91ZM1493.58 222.411H1493.41L1492.36 225.124L1492.53 225.299H1494.46L1494.63 225.124L1493.58 222.411Z" fill="white"/>
<path d="M1504.18 225.037V225.212L1505.67 227.138V228.276L1505.49 228.451H1504.79L1504.53 228.276L1502.25 225.3L1501.99 225.125H1500.85L1500.68 225.3V228.276L1500.5 228.451H1499.1L1498.93 228.276V220.573L1499.1 220.398H1502.86C1504.44 220.398 1505.58 221.186 1505.58 222.762C1505.58 224.075 1504.79 224.862 1503.91 225.037H1504.18ZM1503.13 221.711H1500.94L1500.76 221.886V223.724L1500.94 223.9H1503.13C1503.83 223.9 1504.26 223.637 1504.26 222.849C1504.26 222.061 1503.74 221.711 1503.13 221.711Z" fill="white"/>
<path d="M1513.8 221.711H1511.53L1511.35 221.886V228.275L1511.18 228.45H1509.78L1509.6 228.275V221.886L1509.43 221.711H1507.15L1506.97 221.536V220.398L1507.15 220.223H1513.54L1513.71 220.398V221.536L1513.8 221.711Z" fill="white"/>
<path d="M1516.08 220.311H1517.65L1517.92 220.486L1520.98 225.737H1521.16V220.486L1521.33 220.311H1522.73L1522.91 220.486V228.188L1522.73 228.363H1521.16L1520.89 228.188L1517.83 222.936H1517.65V228.188L1517.48 228.363H1516.08L1515.9 228.188V220.486L1516.08 220.311Z" fill="white"/>
<path d="M1530.87 228.363H1525.53L1525.35 228.188V220.486L1525.53 220.311H1530.87L1531.04 220.486V221.623L1530.87 221.799H1527.1L1526.93 221.974V223.549L1527.1 223.724H1530.61L1530.78 223.899V225.037L1530.61 225.212H1527.1L1526.93 225.387V227.225L1527.1 227.4H1530.87L1531.04 227.575V228.713H1530.87V228.363Z" fill="white"/>
<path d="M1538.57 225.037V225.212L1540.06 227.138V228.276L1539.89 228.451H1539.19L1538.92 228.276L1536.65 225.3L1536.39 225.125H1535.25L1535.07 225.3V228.276L1534.9 228.451H1533.5L1533.32 228.276V220.573L1533.5 220.398H1537.26C1538.84 220.398 1539.97 221.186 1539.97 222.762C1539.97 224.075 1539.19 224.862 1538.31 225.037H1538.57ZM1537.61 221.711H1535.42L1535.25 221.886V223.724L1535.42 223.9H1537.61C1538.31 223.9 1538.75 223.637 1538.75 222.849C1538.75 222.061 1538.31 221.711 1537.61 221.711Z" fill="white"/>
</svg>
