<svg width="1296" height="1296" viewBox="0 0 1296 1296" fill="none" xmlns="http://www.w3.org/2000/svg">
<g clip-path="url(#clip0_224_237)">
<g opacity="0.4">
<path fill-rule="evenodd" clip-rule="evenodd" d="M986.741 1079.44C901.329 1146.45 798.649 1186.17 689.792 1194.27C635.861 1198.39 581.732 1194.34 528.798 1182.51C501.833 1176.47 475.395 1193.34 469.352 1220.31C463.308 1247.07 480.177 1273.77 507.013 1279.75C553.77 1290.24 601.325 1295.49 648.946 1295.49C665.018 1295.49 681.158 1294.89 697.297 1293.7C825.88 1284.07 947.223 1237.11 1048.24 1157.81C1069.89 1140.81 1073.68 1109.52 1056.68 1087.87C1039.74 1066.29 1008.26 1062.3 986.741 1079.44Z" fill="white" fill-opacity="0.1"/>
<path fill-rule="evenodd" clip-rule="evenodd" d="M144.66 865.495C133.502 840.323 104.079 829.032 78.9737 839.991C53.8017 851.082 42.3781 880.505 53.4697 905.61C101.887 1015.6 179.462 1109.71 277.892 1177.72C286.526 1183.76 296.422 1186.55 306.185 1186.55C321.992 1186.55 337.534 1179.11 347.231 1165.1C362.839 1142.45 357.193 1111.44 334.545 1095.83C251.325 1038.24 185.639 958.611 144.66 865.495Z" fill="white" fill-opacity="0.1"/>
<path fill-rule="evenodd" clip-rule="evenodd" d="M55.9942 736.235C83.4242 734.176 104.013 710.266 101.955 682.836C97.4382 621.4 103.549 559.234 120.219 498.13C127.459 471.564 111.784 444.2 85.2175 436.96C58.1195 429.522 31.2872 445.462 24.1142 471.896C4.45482 543.958 -2.78459 617.415 2.59516 690.274C4.58766 716.442 26.4387 736.367 52.2084 736.367C53.4703 736.367 54.6658 736.301 55.9942 736.235Z" fill="white" fill-opacity="0.1"/>
<path fill-rule="evenodd" clip-rule="evenodd" d="M168.397 341.366C183.739 341.366 198.882 334.326 208.579 321.043C234.017 286.373 263.771 254.626 297.046 226.532C318.034 208.732 320.624 177.317 302.891 156.263C285.158 135.342 253.676 132.685 232.688 150.418C193.436 183.627 158.368 221.152 128.281 262.065C112.009 284.248 116.858 315.464 139.041 331.669C147.874 338.245 158.235 341.366 168.397 341.366Z" fill="white" fill-opacity="0.1"/>
<path fill-rule="evenodd" clip-rule="evenodd" d="M622.552 0.849939C595.055 1.91261 573.602 25.0256 574.665 52.5221C575.728 80.085 600.103 102.335 626.337 100.409C931.522 88.2543 1183.91 325.229 1195.59 627.491C1199.71 735.617 1171.42 842.149 1113.7 935.465C1099.22 958.91 1106.4 989.594 1129.84 1004.01C1138.01 1009.12 1146.98 1011.51 1155.94 1011.51C1172.68 1011.51 1188.95 1003.14 1198.38 987.867C1266.59 877.616 1300 751.69 1295.09 623.638C1281.34 266.517 977.748 -11.7692 622.552 0.849939Z" fill="white" fill-opacity="0.1"/>
</g>
<path fill-rule="evenodd" clip-rule="evenodd" d="M878.499 505.382C868.921 427.064 806.562 294 648 294C489.438 294 427.079 427.064 417.544 505.382C312.023 515.088 240 594.136 240 703.627C240 781.86 286.04 853.266 358.191 885.898C384.346 896.289 412.52 902 437.558 902H858.184C873.259 902 903.666 899.896 938.883 885.512C1010.05 853.309 1056 781.903 1056 703.627C1056 594.136 983.977 515.088 878.499 505.382Z" fill="url(#paint0_linear_224_237)"/>
<path d="M399.441 683.856H391.366C388.104 683.856 385.657 685.166 384.026 687.785C382.395 690.405 381.579 694.052 381.579 698.728V725.597H373.527V677.181H380.438L381.172 685.377C381.824 682.787 383.007 680.772 384.72 679.336C386.433 677.899 388.512 677.181 390.959 677.181L400.612 677.16L399.441 683.856Z" fill="#58595B"/>
<path d="M446.492 718.767H454.608V683.969H446.492L446.496 677.16H462.649L462.645 725.576H446.492V718.767Z" fill="#58595B"/>
<path d="M365.445 683.977H357.329V718.775H365.445L365.441 725.584H349.288L349.292 677.168H365.445V683.977V683.977Z" fill="#58595B"/>
<path d="M498.849 680.307C502.451 682.401 505.242 685.281 507.221 688.948C509.198 692.617 510.188 696.738 510.188 701.311C510.188 705.929 509.198 710.082 507.221 713.771C505.242 717.461 502.451 720.352 498.849 722.445C495.245 724.538 491.07 725.584 486.322 725.584H470.703V677.168H486.322C491.07 677.168 495.245 678.214 498.849 680.307ZM478.762 718.787H486.322C491.236 718.787 495.1 717.234 497.912 714.127C500.723 711.02 502.129 706.748 502.129 701.311C502.129 695.874 500.723 691.624 497.912 688.56C495.1 685.497 491.236 683.964 486.322 683.964H478.762V718.787Z" fill="#58595B"/>
<path d="M571.593 723.459C568.889 722.058 566.659 720.114 564.904 717.626C563.148 715.139 562.048 712.327 561.604 709.191L569.413 708.188C569.978 711.24 571.299 713.707 573.378 715.588C575.456 717.469 577.988 718.41 580.975 718.41C583.397 718.41 585.434 717.773 587.089 716.497C588.744 715.222 589.571 713.603 589.571 711.637C589.571 710.048 589.087 708.773 588.119 707.811C587.15 706.85 585.939 706.118 584.487 705.616C583.034 705.114 581.076 704.592 578.615 704.048C575.346 703.296 572.672 702.523 570.594 701.728C568.515 700.934 566.75 699.617 565.297 697.777C563.844 695.937 563.118 693.429 563.118 690.251C563.118 687.701 563.823 685.433 565.237 683.446C566.649 681.461 568.636 679.914 571.199 678.805C573.761 677.698 576.678 677.144 579.946 677.144C583.013 677.144 585.808 677.771 588.33 679.025C590.852 680.279 592.94 682.004 594.596 684.199C596.25 686.394 597.32 688.83 597.804 691.506L589.874 692.384C589.228 689.834 587.967 687.816 586.091 686.332C584.214 684.848 581.923 684.105 579.22 684.105C576.677 684.105 574.659 684.618 573.166 685.642C571.673 686.667 570.927 688.056 570.927 689.812C570.927 691.151 571.36 692.238 572.228 693.074C573.095 693.911 574.196 694.547 575.527 694.986C576.859 695.425 578.695 695.896 581.036 696.398C584.426 697.15 587.21 697.945 589.389 698.781C591.569 699.618 593.435 701.018 594.989 702.983C596.542 704.949 597.319 707.666 597.319 711.136C597.319 713.937 596.613 716.435 595.201 718.63C593.788 720.825 591.8 722.529 589.238 723.742C586.675 724.954 583.739 725.56 580.43 725.56C577.242 725.56 574.296 724.859 571.593 723.459Z" fill="#58595B"/>
<path d="M603.63 725.56V677.144H611.439V725.56H603.63Z" fill="#58595B"/>
<path d="M657.845 714.177C656.311 717.836 653.971 720.648 650.823 722.612C647.675 724.578 643.881 725.56 639.442 725.56C635.164 725.56 631.331 724.515 627.941 722.424C624.551 720.334 621.887 717.449 619.95 713.77C618.013 710.091 617.045 705.93 617.045 701.289C617.045 696.648 618.003 692.499 619.92 688.84C621.836 685.182 624.49 682.318 627.88 680.248C631.27 678.179 635.104 677.144 639.382 677.144C642.53 677.144 645.445 677.793 648.129 679.088C650.813 680.385 653.063 682.214 654.879 684.575C656.695 686.938 657.885 689.687 658.451 692.823L650.763 694.328C650.117 691.359 648.724 688.956 646.586 687.115C644.446 685.276 641.884 684.356 638.898 684.356C636.234 684.356 633.833 685.077 631.694 686.519C629.555 687.962 627.88 689.969 626.67 692.54C625.459 695.112 624.854 698.028 624.854 701.289C624.854 704.592 625.468 707.529 626.7 710.1C627.931 712.672 629.656 714.679 631.876 716.121C634.095 717.564 636.617 718.285 639.443 718.285C642.872 718.285 645.657 717.366 647.796 715.525C649.935 713.686 651.247 711.135 651.731 707.874H642.287V701.289H659.903C660.064 706.223 659.378 710.519 657.845 714.177Z" fill="#58595B"/>
<path d="M703.793 725.56H693.296L675.678 691.707L673.741 687.306V725.56H665.682V677.144H676.053L693.359 710.349L695.671 715.398V677.144H703.793V725.56H703.793Z" fill="#58595B"/>
<path d="M557.957 700.415C557.957 685.854 550.155 677.16 537.087 677.16C523.877 677.16 515.341 686.644 515.341 701.323C515.341 708.383 517.289 714.393 520.974 718.703C524.819 723.199 530.391 725.576 537.087 725.576C542.587 725.576 547.175 724.097 550.723 721.18C553.794 718.656 556.044 715.016 557.244 710.64H549.236C548.566 712.798 545.884 718.987 537.263 718.987C533.045 718.987 529.518 717.385 527.064 714.354C524.884 711.662 523.633 707.907 523.54 703.781L523.533 703.438H557.901C557.957 702.693 557.957 701.536 557.957 700.415ZM549.583 697.121H523.516L523.541 696.762C524.077 688.978 529.416 683.749 536.824 683.749C540.592 683.749 543.81 685.038 546.13 687.478C548.357 689.82 549.583 693.126 549.583 696.786V697.121V697.121Z" fill="#58595B"/>
<path d="M443.733 700.423C443.733 685.861 435.93 677.168 422.862 677.168C409.652 677.168 401.116 686.652 401.116 701.331C401.116 708.391 403.064 714.401 406.749 718.71C410.595 723.207 416.166 725.584 422.862 725.584C428.362 725.584 432.95 724.105 436.498 721.188C439.569 718.664 441.819 715.024 443.019 710.648H435.011C434.341 712.806 431.659 718.995 423.038 718.995C418.82 718.995 415.293 717.393 412.839 714.362C410.659 711.67 409.408 707.915 409.315 703.789L409.308 703.446H443.676C443.733 702.701 443.733 701.544 443.733 700.423ZM435.359 697.128H409.291L409.315 696.77C409.852 688.986 415.191 683.756 422.599 683.756C426.368 683.756 429.585 685.046 431.905 687.485C434.132 689.828 435.358 693.134 435.358 696.793V697.128H435.359Z" fill="#58595B"/>
<path d="M921.931 676.76C926.701 676.76 930.879 677.773 934.467 679.799C938.097 681.825 940.883 684.632 942.824 688.219C944.808 691.765 945.8 695.817 945.8 700.375C945.8 704.976 944.808 709.07 942.824 712.658C940.883 716.246 938.097 719.052 934.467 721.078C930.879 723.104 926.701 724.117 921.931 724.117H906.736V676.76H921.931ZM912.814 719.179H921.931C925.603 719.179 928.769 718.419 931.428 716.9C934.129 715.338 936.198 713.143 937.633 710.315C939.068 707.487 939.785 704.174 939.785 700.375C939.785 696.577 939.068 693.284 937.633 690.499C936.198 687.671 934.129 685.518 931.428 684.041C928.769 682.521 925.603 681.762 921.931 681.762H912.814V719.179Z" fill="#436AF3"/>
<path fill-rule="evenodd" clip-rule="evenodd" d="M905.486 725.367V675.51H921.931C926.881 675.51 931.277 676.562 935.079 678.709C938.908 680.847 941.863 683.821 943.919 687.617C946.017 691.369 947.05 695.633 947.05 700.375C947.05 705.159 946.017 709.464 943.921 713.258C941.865 717.055 938.909 720.03 935.079 722.168C931.277 724.315 926.881 725.367 921.931 725.367H905.486ZM934.467 721.078C938.097 719.052 940.883 716.246 942.824 712.658C944.808 709.07 945.8 704.976 945.8 700.375C945.8 695.817 944.808 691.765 942.824 688.219C940.883 684.632 938.097 681.825 934.467 679.799C930.879 677.773 926.701 676.76 921.931 676.76H906.736V724.117H921.931C926.701 724.117 930.879 723.104 934.467 721.078ZM936.518 691.064C935.193 688.454 933.301 686.49 930.828 685.138L930.818 685.132L930.808 685.126C928.372 683.734 925.429 683.012 921.931 683.012H914.064V717.929H921.931C925.428 717.929 928.37 717.207 930.805 715.816C933.292 714.378 935.191 712.365 936.518 709.75C937.848 707.128 938.535 704.016 938.535 700.375C938.535 696.734 937.848 693.646 936.521 691.071L936.518 691.064ZM931.428 716.9C928.769 718.419 925.603 719.179 921.931 719.179H912.814V681.762H921.931C925.603 681.762 928.769 682.521 931.428 684.041C934.129 685.518 936.198 687.671 937.633 690.499C939.068 693.284 939.785 696.577 939.785 700.375C939.785 704.174 939.068 707.487 937.633 710.315C936.198 713.143 934.129 715.338 931.428 716.9Z" fill="#436AF3"/>
<path d="M874.458 724.117C869.477 724.117 865.573 722.598 862.745 719.559C859.917 716.52 858.503 712.384 858.503 707.15V676.76H864.455V707.15C864.455 710.864 865.404 713.755 867.304 715.824C869.245 717.85 871.989 718.863 875.534 718.863H878.13C881.676 718.863 884.419 717.85 886.361 715.824C888.302 713.755 889.273 710.864 889.273 707.15V676.76H895.161V707.15C895.161 712.384 893.747 716.52 890.919 719.559C888.091 722.598 884.187 724.117 879.206 724.117H874.458Z" fill="#436AF3"/>
<path fill-rule="evenodd" clip-rule="evenodd" d="M857.253 675.51H865.705V707.15C865.705 710.648 866.594 713.197 868.215 714.968C869.862 716.681 872.241 717.613 875.534 717.613H878.13C881.427 717.613 883.807 716.679 885.454 714.963C887.114 713.192 888.023 710.644 888.023 707.15V675.51H896.411V707.15C896.411 712.614 894.93 717.084 891.834 720.411C888.723 723.754 884.459 725.367 879.206 725.367H874.458C869.205 725.367 864.941 723.754 861.83 720.411C858.735 717.084 857.253 712.614 857.253 707.15V675.51ZM886.361 715.824C884.419 717.85 881.676 718.863 878.13 718.863H875.534C871.989 718.863 869.245 717.85 867.304 715.824C865.404 713.755 864.455 710.864 864.455 707.15V676.76H858.503V707.15C858.503 712.384 859.917 716.52 862.745 719.559C865.573 722.598 869.477 724.117 874.458 724.117H879.206C884.187 724.117 888.091 722.598 890.919 719.559C893.747 716.52 895.161 712.384 895.161 707.15V676.76H889.273V707.15C889.273 710.864 888.302 713.755 886.361 715.824Z" fill="#436AF3"/>
<path d="M826.59 724.877C822.2 724.877 818.275 723.843 814.814 721.775C811.353 719.664 808.631 716.752 806.647 713.038C804.705 709.323 803.734 705.124 803.734 700.439C803.734 695.753 804.705 691.554 806.647 687.839C808.631 684.125 811.353 681.234 814.814 679.166C818.275 677.055 822.2 676 826.59 676C830.938 676 834.842 677.055 838.303 679.166C841.764 681.234 844.465 684.125 846.407 687.839C848.391 691.554 849.383 695.753 849.383 700.439C849.383 705.124 848.391 709.323 846.407 713.038C844.465 716.752 841.764 719.664 838.303 721.775C834.842 723.843 830.938 724.877 826.59 724.877ZM826.59 719.496C829.84 719.496 832.731 718.694 835.264 717.09C837.796 715.444 839.78 713.185 841.215 710.315C842.65 707.403 843.368 704.111 843.368 700.439C843.368 696.766 842.65 693.495 841.215 690.625C839.78 687.713 837.796 685.455 835.264 683.851C832.731 682.205 829.84 681.382 826.59 681.382C823.34 681.382 820.428 682.205 817.853 683.851C815.321 685.455 813.337 687.713 811.902 690.625C810.467 693.495 809.749 696.766 809.749 700.439C809.749 704.068 810.467 707.34 811.902 710.252C813.337 713.164 815.321 715.444 817.853 717.09C820.428 718.694 823.34 719.496 826.59 719.496Z" fill="#436AF3"/>
<path fill-rule="evenodd" clip-rule="evenodd" d="M814.163 722.842L814.163 722.842C810.504 720.611 807.629 717.53 805.544 713.627L805.539 713.617L805.539 713.617C803.493 709.703 802.484 705.301 802.484 700.439C802.484 695.576 803.493 691.174 805.539 687.26L805.544 687.25L805.544 687.251C807.629 683.347 810.505 680.285 814.168 678.095C817.84 675.858 821.993 674.75 826.59 674.75C831.148 674.75 835.279 675.859 838.949 678.095C842.612 680.286 845.469 683.349 847.512 687.255C849.601 691.169 850.633 695.574 850.633 700.439C850.633 705.303 849.601 709.708 847.512 713.621C845.469 717.528 842.614 720.61 838.954 722.842L838.944 722.848L838.944 722.848C835.274 725.041 831.145 726.127 826.59 726.127C821.995 726.127 817.845 725.042 814.173 722.848L814.163 722.842ZM846.407 713.038C848.391 709.323 849.383 705.124 849.383 700.439C849.383 695.753 848.391 691.554 846.407 687.839C844.465 684.125 841.764 681.234 838.303 679.166C834.842 677.055 830.938 676 826.59 676C822.2 676 818.275 677.055 814.814 679.166C811.353 681.234 808.631 684.125 806.647 687.839C804.705 691.554 803.734 695.753 803.734 700.439C803.734 705.124 804.705 709.323 806.647 713.038C808.631 716.752 811.353 719.664 814.814 721.775C818.275 723.843 822.2 724.877 826.59 724.877C830.938 724.877 834.842 723.843 838.303 721.775C841.764 719.664 844.465 716.752 846.407 713.038ZM840.097 691.184L840.094 691.178C838.752 688.454 836.917 686.377 834.595 684.907L834.589 684.903L834.583 684.899C832.268 683.395 829.618 682.632 826.59 682.632C823.563 682.632 820.887 683.395 818.526 684.904L818.522 684.907L818.522 684.907C816.2 686.377 814.365 688.454 813.023 691.178L813.02 691.184L813.02 691.184C811.683 693.857 810.999 696.932 810.999 700.439C810.999 703.9 811.682 706.978 813.023 709.699C814.364 712.422 816.199 714.521 818.524 716.035C820.884 717.502 823.561 718.246 826.59 718.246C829.621 718.246 832.275 717.502 834.589 716.038C836.919 714.521 838.755 712.44 840.096 709.76C841.434 707.041 842.118 703.943 842.118 700.439C842.118 696.932 841.434 693.857 840.097 691.184ZM841.215 710.315C839.78 713.185 837.796 715.444 835.264 717.09C832.731 718.694 829.84 719.496 826.59 719.496C823.34 719.496 820.428 718.694 817.853 717.09C815.321 715.444 813.337 713.164 811.902 710.252C810.467 707.34 809.749 704.068 809.749 700.439C809.749 696.766 810.467 693.495 811.902 690.625C813.337 687.713 815.321 685.455 817.853 683.851C820.428 682.205 823.34 681.382 826.59 681.382C829.84 681.382 832.731 682.205 835.264 683.851C837.796 685.455 839.78 687.713 841.215 690.625C842.65 693.495 843.368 696.766 843.368 700.439C843.368 704.111 842.65 707.403 841.215 710.315Z" fill="#436AF3"/>
<path d="M802.373 718.863V724.117H773.249V676.76H779.2V718.863H802.373Z" fill="#436AF3"/>
<path fill-rule="evenodd" clip-rule="evenodd" d="M803.623 717.613V725.367H771.999V675.51H780.45V717.613H803.623ZM802.373 718.863H779.2V676.76H773.249V724.117H802.373V718.863Z" fill="#436AF3"/>
<path d="M743.499 676C746.622 676 749.513 676.633 752.172 677.899C754.874 679.123 757.132 680.875 758.947 683.154C760.762 685.434 761.965 688.072 762.556 691.068L756.668 692.208C755.866 688.958 754.241 686.341 751.793 684.357C749.344 682.373 746.453 681.382 743.119 681.382C739.953 681.382 737.083 682.205 734.508 683.851C731.976 685.455 729.992 687.692 728.557 690.562C727.122 693.432 726.404 696.703 726.404 700.375C726.404 704.047 727.122 707.34 728.557 710.252C730.034 713.164 732.06 715.444 734.635 717.09C737.252 718.694 740.206 719.496 743.499 719.496C747.002 719.496 750.083 718.398 752.742 716.203C755.444 713.966 757.237 711.033 758.124 707.403L764.012 708.036C763.379 711.328 762.07 714.262 760.086 716.836C758.145 719.369 755.718 721.353 752.806 722.788C749.935 724.181 746.833 724.877 743.499 724.877C739.109 724.877 735.141 723.822 731.596 721.711C728.093 719.601 725.349 716.689 723.365 712.974C721.382 709.26 720.39 705.06 720.39 700.375C720.39 695.732 721.382 691.554 723.365 687.839C725.349 684.125 728.093 681.234 731.596 679.166C735.099 677.055 739.067 676 743.499 676Z" fill="#436AF3"/>
<path fill-rule="evenodd" clip-rule="evenodd" d="M763.74 709.264C763.038 712.062 761.82 714.586 760.086 716.836C758.145 719.369 755.718 721.353 752.806 722.788C749.935 724.181 746.833 724.877 743.499 724.877C739.109 724.877 735.141 723.822 731.596 721.711C728.093 719.601 725.349 716.689 723.365 712.974C721.382 709.26 720.39 705.06 720.39 700.375C720.39 695.732 721.382 691.554 723.365 687.839C725.349 684.125 728.093 681.234 731.596 679.166C735.099 677.055 739.067 676 743.499 676C746.622 676 749.513 676.633 752.172 677.899C754.874 679.123 757.132 680.875 758.947 683.154C760.512 685.119 761.621 687.351 762.276 689.849C762.381 690.249 762.474 690.655 762.556 691.068C762.555 691.068 762.556 691.068 762.556 691.068L756.668 692.208C755.866 688.958 754.241 686.341 751.793 684.357C749.344 682.373 746.453 681.382 743.119 681.382C739.953 681.382 737.083 682.205 734.508 683.851C731.976 685.455 729.992 687.692 728.557 690.562C727.122 693.432 726.404 696.703 726.404 700.375C726.404 704.047 727.122 707.34 728.557 710.252C730.034 713.164 732.06 715.444 734.635 717.09C737.252 718.694 740.206 719.496 743.499 719.496C747.002 719.496 750.083 718.398 752.742 716.203C755.444 713.966 757.237 711.033 758.124 707.403L764.012 708.036C763.932 708.451 763.841 708.86 763.74 709.264ZM751.947 715.239C754.426 713.185 756.083 710.493 756.909 707.106L757.169 706.043L765.496 706.938L765.239 708.272C764.571 711.749 763.184 714.864 761.077 717.599C759.017 720.285 756.439 722.391 753.358 723.909L753.351 723.912C750.303 725.391 747.013 726.127 743.499 726.127C738.899 726.127 734.708 725.019 730.957 722.786L730.951 722.782C727.249 720.552 724.349 717.47 722.263 713.563C720.172 709.648 719.14 705.242 719.14 700.375C719.14 695.548 720.173 691.164 722.263 687.251C724.35 683.343 727.25 680.281 730.956 678.092C734.669 675.856 738.861 674.75 743.499 674.75C746.792 674.75 749.865 675.418 752.699 676.766C755.573 678.07 757.987 679.942 759.925 682.376C761.87 684.819 763.154 687.643 763.782 690.826L764.025 692.057L755.739 693.661L755.454 692.507C754.713 689.504 753.228 687.13 751.006 685.328C748.794 683.536 746.185 682.632 743.119 682.632C740.183 682.632 737.548 683.391 735.182 684.904L735.177 684.907C732.85 686.38 731.016 688.439 729.675 691.121C728.338 693.794 727.654 696.869 727.654 700.375C727.654 703.878 728.337 706.975 729.675 709.693C731.056 712.413 732.931 714.514 735.298 716.03C737.702 717.501 740.424 718.246 743.499 718.246C746.717 718.246 749.515 717.246 751.947 715.239Z" fill="#436AF3"/>
</g>
<defs>
<linearGradient id="paint0_linear_224_237" x1="648" y1="261" x2="648" y2="902" gradientUnits="userSpaceOnUse">
<stop stop-color="white" stop-opacity="0.2"/>
<stop offset="1" stop-color="white"/>
</linearGradient>
<clipPath id="clip0_224_237">
<rect width="1296" height="1296" fill="white"/>
</clipPath>
</defs>
</svg>
