<svg width="131" height="17" viewBox="0 0 131 17" fill="none" xmlns="http://www.w3.org/2000/svg">
<path fill-rule="evenodd" clip-rule="evenodd" d="M24.0276 4.29874L24.0277 4.29861L24.0279 4.29809C24.0701 4.19732 24.1096 4.10308 24.1475 4.0193C24.1294 3.90567 24.1203 3.80779 24.1124 3.72254V3.72252C24.0982 3.57012 24.0877 3.45808 24.037 3.36864C23.4472 2.32973 22.8503 1.29436 22.228 0.274349C22.0484 -0.0205424 21.7866 0.00132326 21.6057 0.310989C21.4341 0.605747 21.2685 0.903916 21.1028 1.20211L21.1027 1.20229L21.1025 1.2027C21.0012 1.38499 20.8999 1.56728 20.7973 1.74881C20.3941 2.46134 19.9907 3.17371 19.5872 3.88607C17.9506 6.77595 16.314 9.66565 14.695 12.5652C14.5549 12.8158 14.4875 13.2437 14.6057 13.4783C15.1601 14.5775 15.7794 15.6448 16.404 16.7061C16.5908 17.0229 16.8662 17.004 17.0842 16.6925C17.1586 16.5868 17.2226 16.4727 17.2863 16.3594L17.3183 16.3025L18.4908 14.2314C20.2154 11.1853 21.9401 8.13907 23.6581 5.08894C23.8073 4.82446 23.9255 4.54254 24.0276 4.29876L24.0276 4.29874ZM14.8922 16.6738C14.7841 16.6966 14.6885 16.7212 14.6012 16.7438C14.435 16.7866 14.2985 16.8218 14.1617 16.8222C12.8338 16.8272 11.5059 16.8284 10.1779 16.8295C8.84993 16.8307 7.52191 16.8319 6.19374 16.8369C5.66719 16.8387 5.27183 16.6484 5.00826 16.1916C4.72028 15.6927 4.43154 15.1944 4.14282 14.696L4.14278 14.6959L4.14274 14.6958L4.1427 14.6958C3.50659 13.5978 2.87051 12.4998 2.24254 11.3971C2.03181 11.0273 1.8317 10.6514 1.63159 10.2755C1.40409 9.84805 1.1766 9.42068 0.933557 9.00251C0.652849 8.51969 0.848458 8.10778 1.06771 7.71538C1.80047 6.40214 2.54311 5.09438 3.28572 3.78669L3.28581 3.78653L3.28588 3.78642L3.28588 3.78641L3.28597 3.78624L3.28607 3.78608L3.28616 3.78591L3.28626 3.78574L3.28635 3.78558L3.28645 3.78541L3.28654 3.78524L3.28664 3.78508L3.28673 3.78491C3.6332 3.1748 3.97966 2.5647 4.32511 1.95406C4.39555 1.82952 4.46066 1.70068 4.52577 1.57184L4.52577 1.57184L4.52578 1.57184L4.52578 1.57184L4.52578 1.57184L4.52578 1.57183L4.52578 1.57183L4.52578 1.57183L4.52578 1.57183L4.52579 1.57182L4.52579 1.57182L4.52579 1.57182C4.7786 1.07161 5.03143 0.571347 5.59627 0.321818C5.81552 0.2249 6.06254 0.139801 6.29775 0.138028C8.32291 0.122664 10.3481 0.125027 12.3738 0.127391L12.3741 0.127391C12.8888 0.127391 13.0282 0.346639 12.7865 0.794C12.2895 1.71354 11.7825 2.62836 11.2654 3.53726C11.0131 3.98048 10.6543 4.2216 10.0977 4.182C9.45114 4.1365 8.79398 4.12468 8.1516 4.19382C7.85908 4.22514 7.47909 4.41721 7.33194 4.65537C6.6736 5.71969 6.05072 6.80943 5.49344 7.92931C5.33861 8.24016 5.31911 8.75194 5.46981 9.05687C5.89458 9.91408 6.3744 10.7441 6.85414 11.574C7.00313 11.8317 7.15211 12.0894 7.29943 12.348C7.54941 12.7865 7.93945 12.9685 8.44236 12.9614C8.9913 12.9538 9.54035 12.9511 10.0894 12.9484H10.0894H10.0895H10.0895H10.0895H10.0895H10.0896H10.0896H10.0896H10.0896H10.0896H10.0897C10.7824 12.9449 11.4752 12.9415 12.1678 12.9283C12.5726 12.9206 12.8563 13.0388 13.0584 13.4076C13.4713 14.162 13.8953 14.9109 14.3485 15.7116L14.3486 15.7117L14.349 15.7124L14.3501 15.7144L14.3511 15.7161L14.3524 15.7184L14.3548 15.7227C14.5294 16.0312 14.7084 16.3473 14.8927 16.6744L14.8922 16.6738ZM88.7589 14.9089C87.7183 14.9042 87.7152 14.8924 87.4572 13.889L87.4558 13.8836C86.7632 11.1924 86.0653 8.50229 85.3526 5.81636C85.3216 5.69936 85.2258 5.5996 85.13 5.49977C85.0849 5.45285 85.0399 5.40592 85.0015 5.35718C84.9657 5.40553 84.9242 5.45235 84.8827 5.49918L84.8826 5.49928C84.7927 5.60066 84.7027 5.70211 84.67 5.81931C84.1914 7.54459 83.7294 9.27488 83.2675 11.0053L83.267 11.0071L83.2245 11.1664C83.1817 11.3267 83.1387 11.4871 83.0957 11.6474L83.0956 11.6478C82.8876 12.424 82.6795 13.2005 82.4905 13.9811C82.2914 14.8038 82.1767 14.9119 81.3305 14.9078C81.2566 14.9074 81.1804 14.9126 81.1042 14.9178C80.924 14.9301 80.7435 14.9424 80.5923 14.8818C80.3595 14.7884 80.0534 14.5875 80.0026 14.3794C79.7152 13.2009 79.4587 12.0147 79.2022 10.8286L79.2022 10.8285L79.2022 10.8284L79.2022 10.8282L79.2021 10.8281L79.2021 10.828L79.2021 10.8278L79.2021 10.8277L79.202 10.8276L79.202 10.8274L79.202 10.8273L79.2018 10.8263C79.1161 10.4299 79.0304 10.0336 78.9435 9.63754C78.8379 9.15655 78.7315 8.67575 78.6251 8.19494C78.46 7.44878 78.2948 6.70263 78.1327 5.95582C78.0124 5.40093 77.8942 4.84537 77.7761 4.28978L77.7759 4.28894L77.7757 4.28816L77.7756 4.28731L77.7754 4.28662C77.6444 3.6705 77.5134 3.05434 77.3793 2.43899C77.2971 2.06077 77.4567 1.89826 77.8201 1.88762C77.8264 1.88762 77.8327 1.88782 77.8391 1.88801C77.8519 1.88841 77.8648 1.8888 77.8774 1.88762C79.1977 1.81434 79.2243 1.82616 79.4801 3.12451C79.6549 4.01129 79.8274 4.89853 79.9998 5.78577L80.0002 5.78746L80.0005 5.7892L80.0009 5.79105L80.0012 5.79294L80.0016 5.79495L80.002 5.79705L80.0025 5.79932L80.0025 5.79969L80.0026 5.80003L80.0027 5.80037L80.0027 5.80071L80.0028 5.80105L80.0029 5.80139L80.003 5.80173L80.003 5.80207L80.0031 5.80241L80.0032 5.80276L80.0032 5.8031C80.3096 7.37921 80.616 8.95529 80.9351 10.5287C80.971 10.7051 81.0833 10.8663 81.1955 11.0274C81.2476 11.1022 81.2996 11.177 81.344 11.2532C81.3906 11.1774 81.4434 11.1033 81.4961 11.0293C81.6103 10.8693 81.7243 10.7093 81.7749 10.5311C82.1693 9.13628 82.5483 7.7372 82.9273 6.33802L82.9275 6.33723L82.9283 6.3343L82.9301 6.32785C83.0578 5.85651 83.1854 5.38515 83.3137 4.91395C83.383 4.65911 83.4539 4.40461 83.5247 4.1501L83.5251 4.14873L83.5255 4.14729C83.6839 3.57823 83.8424 3.0091 83.9839 2.43604C84.0779 2.05723 84.2829 1.87876 84.6629 1.88171L84.7391 1.88197C84.79 1.88224 84.841 1.8825 84.8922 1.88171C85.9471 1.86339 86.0008 1.9219 86.2609 2.91354C86.9263 5.45528 87.6024 7.99465 88.2944 10.5293C88.3427 10.7065 88.4552 10.8664 88.5679 11.0264C88.6205 11.1012 88.6732 11.176 88.7193 11.2526C88.7636 11.1707 88.8153 11.0902 88.867 11.0098L88.8671 11.0096C88.9778 10.8371 89.0886 10.6646 89.1276 10.4773C89.4932 8.71433 89.8454 6.94858 90.1976 5.18291C90.3596 4.37099 90.5216 3.55909 90.6848 2.74747C90.8391 1.97981 91.7734 1.53895 92.4317 1.94731C92.5546 2.02354 92.6208 2.31548 92.5931 2.48863C92.482 3.1842 92.3342 3.87444 92.1817 4.56292C91.6966 6.7563 91.2058 8.94865 90.715 11.1405L90.6145 11.5895C90.5299 11.9673 90.4432 12.3447 90.3565 12.7222L90.356 12.7242L90.3555 12.7264C90.2337 13.2567 90.1119 13.787 89.9958 14.3186C89.8627 14.9269 89.4445 14.9177 89.0242 14.9084C88.935 14.9064 88.8456 14.9044 88.7589 14.9084V14.9089ZM30.3931 3.91866C30.3111 4.08583 30.2316 4.25445 30.1522 4.42307C29.9839 4.78022 29.8156 5.13736 29.6225 5.48059C28.3322 7.77408 27.0358 10.0644 25.7395 12.3548C25.1763 13.3498 24.613 14.3449 24.0503 15.3402C23.9543 15.5104 23.8607 15.6819 23.7671 15.8534L23.767 15.8535L23.7669 15.8537L23.7669 15.8538L23.7668 15.8539L23.7668 15.854L23.7667 15.8541L23.7666 15.8542L23.7666 15.8543L23.7665 15.8545L23.7664 15.8546L23.7664 15.8547L23.7663 15.8547L23.7663 15.8548L23.7663 15.8549L23.7662 15.8549L23.7662 15.855L23.7661 15.8551L23.7661 15.8551C23.633 16.0989 23.5 16.3427 23.3601 16.5825C23.0959 17.0345 22.7638 17.0416 22.4996 16.5866C22.2691 16.1894 22.045 15.7883 21.821 15.3872L21.8209 15.3871L21.8209 15.3871L21.8208 15.387L21.8208 15.3869L21.8208 15.3869L21.8207 15.3868L21.8207 15.3868L21.8207 15.3867L21.8206 15.3866C21.5164 14.842 21.2121 14.2973 20.8916 13.7624C20.5937 13.266 20.6765 12.8351 20.9401 12.3736C22.0174 10.4902 23.0876 8.60265 24.1573 6.71511C24.8591 5.476 25.5594 4.23598 26.2596 2.99603L26.2605 2.99452C26.6914 2.23143 27.1223 1.46838 27.5535 0.705587C27.5768 0.664356 27.5983 0.617824 27.62 0.570947C27.6766 0.448508 27.7343 0.323708 27.8266 0.28482C28.0027 0.210358 28.3626 0.181401 28.4181 0.271818C29.0522 1.30483 29.6491 2.36088 30.2401 3.41989C30.2875 3.50458 30.2918 3.61345 30.2962 3.72211C30.2981 3.77191 30.3001 3.82166 30.3063 3.86902L30.3931 3.91866ZM39.7682 7.43234L39.7682 7.4325L39.7682 7.43262V7.4327C39.7449 7.826 39.7203 8.24304 39.6825 8.69331H39.682C39.719 8.97655 39.7534 9.28607 39.7898 9.61347L39.7898 9.61354C39.8793 10.4187 39.9808 11.3319 40.1636 12.2285C40.4272 13.5239 41.3804 14.2791 42.6013 14.6278C44.0857 15.0518 45.6066 14.9938 47.1244 14.9358C47.4786 14.9223 47.8326 14.9088 48.1859 14.9014C48.3431 14.8979 48.6103 14.6727 48.6303 14.5238C48.7249 13.8229 48.1428 13.2319 47.4401 13.2142C47.1617 13.2073 46.883 13.2019 46.6043 13.1965C45.6243 13.1776 44.6437 13.1587 43.6692 13.0718C42.7065 12.9855 42.0529 12.3709 41.9873 11.423C41.862 9.60044 41.7556 7.76608 41.8272 5.94414C41.8916 4.30717 42.5363 3.73511 44.1857 3.58796C44.9445 3.52016 45.7107 3.53316 46.4761 3.54616C46.7248 3.55038 46.9733 3.5546 47.2215 3.55605C48.1824 3.56196 48.4395 3.36753 48.6292 2.44208C48.7013 2.08986 48.5931 1.87593 48.2049 1.87889C47.7501 1.88209 47.2948 1.8779 46.8394 1.8737C45.7837 1.86396 44.728 1.85422 43.6792 1.9368C41.4826 2.10937 40.4165 3.07914 39.9916 5.24325C39.8572 5.92785 39.8157 6.63079 39.7682 7.43234ZM113.463 5.46396C114.476 5.46513 114.48 5.48008 114.919 6.80677L114.938 6.86396C115.48 8.50625 116.054 10.1385 116.63 11.769C116.674 11.8919 116.771 11.996 116.867 12.1L116.868 12.1001L116.868 12.1003C116.912 12.1482 116.957 12.1961 116.996 12.2459C117.042 12.195 117.094 12.1465 117.146 12.098L117.146 12.098C117.257 11.9947 117.367 11.8914 117.415 11.7642L117.507 11.5147C118.16 9.74347 118.813 7.97189 119.411 6.18198C119.599 5.62234 119.879 5.44269 120.44 5.45332C121.612 5.4746 121.658 5.48878 121.25 6.54897C120.704 7.96956 120.149 9.38665 119.593 10.8037L119.593 10.8056L119.592 10.8079L119.591 10.81C119.127 11.994 118.663 13.178 118.204 14.3639C118.059 14.7392 117.828 14.9082 117.431 14.9034C117.241 14.9012 117.076 14.9027 116.933 14.9039C116.503 14.9077 116.266 14.9098 116.094 14.8045C115.883 14.6745 115.772 14.381 115.524 13.7253L115.494 13.6459C114.749 11.6737 113.975 9.71271 113.201 7.75191L113.195 7.73827L113.19 7.72634C112.976 7.18444 112.762 6.64254 112.549 6.10043C112.387 5.68794 112.489 5.47164 112.947 5.46455C113.049 5.46281 113.15 5.46312 113.251 5.46343C113.322 5.46364 113.393 5.46386 113.463 5.46337V5.46396ZM17.6393 4.85701C17.6549 4.8105 17.6713 4.7615 17.6907 4.70978V4.70919C17.6696 4.66484 17.6491 4.61945 17.6284 4.57368L17.6284 4.57355L17.6283 4.57344C17.5813 4.46926 17.5334 4.36314 17.4755 4.26301L17.2384 3.85324L17.2384 3.85321L17.2379 3.85238C16.6033 2.75575 15.9686 1.65886 15.325 0.567114C14.9356 -0.0935849 14.7323 -0.0965398 14.3576 0.559432C13.7454 1.63144 13.1331 2.70404 12.5611 3.79674C12.4476 4.01303 12.4086 4.37825 12.5144 4.58095C13.2253 5.94431 13.9735 7.28934 14.7341 8.62611C15.0112 9.11306 15.2777 9.10715 15.5573 8.62374C16.1177 7.65358 16.6638 6.67522 17.2098 5.69685L17.5376 5.10986C17.5799 5.03442 17.6079 4.95079 17.6393 4.85703L17.6393 4.85701ZM60.6809 11.1403C60.6809 10.8333 60.6788 10.5261 60.6766 10.219V10.2187C60.6719 9.53173 60.6671 8.84475 60.6863 8.15833C60.7294 6.62123 61.7252 5.58113 63.264 5.48717C63.8696 5.4504 64.4775 5.45147 65.0855 5.45254H65.0856C65.3766 5.45306 65.6675 5.45357 65.9583 5.44994C66.4163 5.44403 66.5167 5.66268 66.3938 6.07577C66.148 6.89957 66.0026 7.00358 65.1457 7.0024C64.6315 7.00181 64.115 7.02663 63.6033 7.07627C63.0684 7.12828 62.7298 7.44031 62.6406 7.97513C62.5844 8.31257 62.5484 8.65769 62.546 8.99927C62.536 10.758 62.5271 12.5167 62.5478 14.2754C62.5537 14.7594 62.3634 14.9089 61.9072 14.9154L61.8686 14.9159C60.6715 14.9321 60.6715 14.9321 60.6709 13.7217C60.6709 13.5018 60.6715 13.282 60.6721 13.0622L60.6721 13.0579C60.6727 12.8395 60.6733 12.6211 60.6733 12.4026V11.1409H60.6798L60.6809 11.1403ZM56.4616 5.41028C57.3799 5.66026 58.0826 6.21577 58.3261 7.08803L58.3266 7.08862C58.9306 9.25333 59.0423 11.4505 58.1677 13.5833C57.8291 14.4089 57.0933 14.8226 56.2293 15.0105C54.9617 15.2865 53.7 15.2759 52.4294 15.0182C51.3745 14.8043 50.5643 14.2535 50.2795 13.2146C50.0872 12.5141 49.9886 11.7882 49.9034 11.1603L49.9033 11.1602C49.8693 10.9098 49.8374 10.675 49.8026 10.4636C49.8375 10.0979 49.8619 9.76269 49.8848 9.44907L49.8849 9.44848L49.885 9.44705V9.44698C49.9314 8.81084 49.9714 8.26345 50.0785 7.72982C50.3699 6.28195 51.2924 5.4611 52.7739 5.26313C54.0144 5.09766 55.2383 5.07698 56.4616 5.41028ZM55.5137 13.5426C56.0845 13.4835 56.5573 13.1011 56.5922 12.4575L56.5928 12.4569C56.6059 12.2168 56.6204 11.9764 56.6349 11.7358L56.6349 11.7357C56.7016 10.6291 56.7685 9.51973 56.7098 8.41829C56.6501 7.31378 56.1436 6.81796 55.3145 6.76005C54.6319 6.71218 53.9387 6.70568 53.2579 6.76832C52.6835 6.82151 52.1652 7.09571 52.0553 7.73455C51.9176 8.53471 51.8485 11.3873 51.8869 11.9948C51.9413 12.8641 52.3248 13.4332 53.0677 13.5284C53.872 13.6312 54.7058 13.6265 55.5137 13.5426ZM111.504 10.8514H111.499C111.499 10.5967 111.499 10.342 111.5 10.0873C111.5 9.57785 111.501 9.06844 111.499 8.55903C111.492 6.46761 110.333 5.70171 108.81 5.53861C107.56 5.4043 106.292 5.43422 105.027 5.46409C104.627 5.47352 104.228 5.48294 103.829 5.48719C103.704 5.48838 103.463 5.77736 103.479 5.90914C103.58 6.79441 103.938 7.04439 104.848 7.03789C106.031 7.02902 107.216 7.02134 108.397 7.09048C109.321 7.14426 109.864 7.9332 109.653 8.83442C109.62 8.97507 109.313 9.19195 109.212 9.15532C108.158 8.76791 107.077 8.84424 106.003 8.92011L105.809 8.9337C104.969 8.99162 104.168 9.26642 103.694 10.0104C103.153 10.8602 103.174 11.8413 103.339 12.7915C103.517 13.8222 104.133 14.5987 105.198 14.6826C106.941 14.8197 108.697 14.8434 110.446 14.825C111.116 14.8179 111.49 14.2388 111.502 13.4889C111.511 12.8772 111.508 12.2656 111.506 11.6539V11.6527C111.505 11.386 111.505 11.1193 111.505 10.8526L111.504 10.8514ZM107.205 13.4021L107.205 13.4021C106.756 13.3679 106.307 13.3336 105.874 13.2318C105.202 13.0734 105.034 12.6781 105.059 11.7349C105.08 10.9146 105.244 10.651 105.935 10.4773C106.969 10.2173 108.014 10.225 109.033 10.5399C109.248 10.6061 109.427 10.8608 109.569 11.0665C109.658 11.1959 109.674 11.3957 109.673 11.5635C109.672 11.8187 109.675 12.0386 109.677 12.2281V12.2284V12.2287C109.685 12.8268 109.689 13.1225 109.544 13.2712C109.401 13.4166 109.116 13.4217 108.551 13.4318C108.34 13.4356 108.091 13.4401 107.795 13.4528H107.794C107.599 13.4321 107.402 13.4171 107.205 13.4021ZM71.349 10.8687C70.7733 10.8643 70.1977 10.8599 69.6236 10.889H69.6247C69.4386 10.8985 69.1496 11.0852 69.1023 11.2471C68.8181 12.2222 69.3594 13.14 70.3741 13.296C70.9412 13.3829 71.5228 13.3811 72.1034 13.3792C72.3082 13.3785 72.5128 13.3779 72.7167 13.3811C72.9422 13.3847 73.1681 13.3802 73.3938 13.3757H73.3939H73.3939C73.7229 13.3691 74.0517 13.3625 74.3791 13.3811C74.5753 13.3923 74.8625 13.5034 74.9352 13.6529C75.0474 13.8838 75.1039 14.1417 75.1603 14.3994L75.1603 14.3995C75.1834 14.5053 75.2066 14.6111 75.2336 14.7149C75.1374 14.737 75.0411 14.7651 74.9449 14.7932C74.7379 14.8536 74.531 14.914 74.3241 14.9152C74.041 14.9167 73.7577 14.9201 73.4742 14.9236C72.4002 14.9365 71.325 14.9494 70.2594 14.8573C68.2815 14.686 67.2993 13.5879 67.2166 11.6047C67.1764 10.6508 67.1705 9.69289 67.2089 8.73966C67.2963 6.57082 68.1473 5.56972 70.2908 5.22755C71.5808 5.0219 72.8827 5.04258 74.0712 5.73874C74.7508 6.13705 75.2265 6.7097 75.2956 7.49923C75.3677 8.32421 75.4168 9.1687 75.3193 9.98601C75.233 10.7099 74.9322 10.863 74.2106 10.8683C73.6919 10.872 73.1734 10.8711 72.6548 10.8703H72.6547H72.6547C72.4277 10.8699 72.2008 10.8695 71.9738 10.8695V10.8719C71.7656 10.8719 71.5573 10.8703 71.349 10.8687ZM69.88 6.89821C69.6437 6.96854 69.3712 7.2457 69.3015 7.48268L69.3021 7.48209C69.1597 7.9655 69.0988 8.48614 69.1065 8.99023C69.1088 9.13561 69.451 9.37613 69.6555 9.3974C70.0462 9.43842 70.4424 9.43073 70.8386 9.42303C70.9961 9.41997 71.1536 9.41691 71.3108 9.41691V9.41927C71.4723 9.41927 71.6339 9.42111 71.7955 9.42295C72.2059 9.42762 72.6163 9.4323 73.0246 9.40686C73.2255 9.39445 73.5062 9.29221 73.5984 9.13915C73.8974 8.64274 73.5062 7.25397 72.9808 6.99395C71.9744 6.49636 70.9142 6.59209 69.88 6.89821ZM129.473 10.8707C130.36 10.8636 130.724 10.5344 130.775 9.64091C130.807 9.08895 130.818 8.52989 130.769 7.9803C130.663 6.80487 130.078 5.92906 128.962 5.49824C127.732 5.0237 126.451 5.03788 125.181 5.29731C123.978 5.54316 123.084 6.20445 122.76 7.44429C122.343 9.04167 122.427 10.6739 122.634 12.2807C122.805 13.6122 123.641 14.5873 124.986 14.7279C126.287 14.8641 127.602 14.8676 128.917 14.8711C129.377 14.8723 129.837 14.8735 130.296 14.8804C130.406 14.8822 130.58 14.7315 130.62 14.6157C130.784 14.1405 130.209 13.3717 129.703 13.3711C129.287 13.3702 128.871 13.3738 128.455 13.3773L128.455 13.3773C127.743 13.3834 127.032 13.3895 126.321 13.3734C124.934 13.3415 124.487 12.867 124.428 11.5024C124.408 11.0285 124.585 10.8488 125.058 10.8636C125.582 10.8803 126.107 10.8767 126.632 10.8731C126.852 10.8716 127.073 10.8701 127.293 10.8701V10.8731C127.517 10.8731 127.74 10.8735 127.964 10.874C128.466 10.875 128.969 10.876 129.472 10.8719L129.473 10.8707ZM126.199 9.41776H126.199C125.795 9.41875 125.391 9.41973 124.988 9.41516C124.628 9.41102 124.406 9.25974 124.438 8.85729C124.447 8.73635 124.452 8.61494 124.457 8.49358V8.49343V8.49334C124.464 8.30879 124.471 8.12437 124.496 7.94188C124.588 7.24868 125.052 6.77591 125.736 6.73395C126.364 6.69613 126.999 6.68608 127.625 6.73572C128.626 6.81432 129.412 8.2415 128.943 9.1315C128.863 9.28396 128.572 9.38916 128.371 9.40275C128.302 9.40748 128.233 9.41102 128.164 9.41398C127.846 9.42717 127.527 9.4238 127.208 9.42043H127.208C127.042 9.41867 126.875 9.41691 126.709 9.41752L126.708 9.41693C126.538 9.41693 126.369 9.41735 126.199 9.41776ZM97.5764 10.8735C97.0244 10.8767 96.4722 10.8799 95.9209 10.8649L95.9215 10.8661C95.4812 10.8537 95.3524 11.0765 95.3548 11.46C95.363 12.7684 95.9109 13.3493 97.2352 13.3777C97.9411 13.3929 98.6474 13.3862 99.3537 13.3796C99.7745 13.3756 100.195 13.3717 100.616 13.3724C101.134 13.3735 101.725 14.0927 101.584 14.5856C101.545 14.7209 101.312 14.8941 101.17 14.8929C100.653 14.8895 100.134 14.9132 99.6157 14.9368C98.3231 14.9958 97.0301 15.0547 95.7554 14.6949C94.1917 14.2535 93.6782 13.2796 93.5458 11.98C93.439 10.9329 93.4734 9.8667 93.5074 8.8103L93.5104 8.71733C93.5783 6.59813 94.5138 5.52671 96.6064 5.22177C97.8622 5.03857 99.1222 5.06694 100.291 5.68568C100.85 5.98116 101.239 6.42025 101.465 7.0183C101.85 8.03713 101.833 9.07723 101.624 10.1173C101.523 10.6232 101.152 10.8761 100.62 10.8726C100.061 10.8688 99.5013 10.8695 98.9418 10.8702C98.718 10.8705 98.4943 10.8708 98.2706 10.8708C98.0393 10.8708 97.8078 10.8721 97.5764 10.8735ZM95.4033 8.48954C95.3907 8.59908 95.3782 8.70807 95.3624 8.81425V8.81365C95.301 9.22851 95.5421 9.40994 95.9315 9.41407C96.3367 9.41826 96.7416 9.41741 97.1466 9.41655C97.3134 9.4162 97.4802 9.41585 97.6471 9.41585V9.4188C97.8041 9.4188 97.9611 9.42071 98.1181 9.42261C98.5145 9.42741 98.9107 9.43221 99.3048 9.40639C99.5045 9.39339 99.7864 9.28938 99.8745 9.13691C100.376 8.26878 99.6038 6.81324 98.5956 6.73464C97.952 6.68441 97.2872 6.64718 96.6596 6.76005C96.2885 6.82683 95.8506 7.12586 95.6621 7.44853C95.4888 7.74393 95.4457 8.11988 95.4033 8.48954Z" fill="#58595B"/>
</svg>
