<svg width="200" height="100" viewBox="0 0 200 100" fill="none" xmlns="http://www.w3.org/2000/svg">
<path d="M172.623 29.7013C172.623 27.9214 171.606 27.1586 169.699 26.7772C167.728 26.3959 166.584 26.2052 166.584 24.8067C166.584 23.4083 167.347 23.2176 168.745 23.2176C170.144 23.2176 171.097 23.9804 171.097 24.9974L171.288 25.1881H172.051L172.242 24.9974C172.242 23.0269 170.652 22.2641 168.745 22.2641C166.839 22.2641 165.44 23.4718 165.44 24.8067C165.44 26.1416 166.648 27.1586 168.555 27.54C170.525 27.9214 171.479 28.1121 171.479 29.7013C171.479 31.2904 170.907 31.4811 168.936 31.4811C166.966 31.4811 166.394 30.464 166.394 29.3199L166.203 29.1292H165.44L165.249 29.3199C165.249 31.0997 166.648 32.4346 168.936 32.4346C171.479 32.4346 172.623 31.2904 172.623 29.7013ZM164.296 27.7307L164.487 27.54V26.9679C164.487 24.2346 162.897 22.2641 160.228 22.2641C157.558 22.2641 155.969 24.2346 155.969 26.9679V27.3493C155.969 30.0826 157.367 32.4346 160.418 32.4346C163.47 32.4346 164.105 30.6547 164.296 29.5106L164.105 29.3199H163.342L163.152 29.5106C162.77 30.7183 161.944 31.4811 160.418 31.4811C157.876 31.4811 157.113 29.1292 157.113 27.985L157.304 27.7943H164.296V27.7307ZM163.152 26.7772H157.304L157.113 26.5866C157.113 25.1881 157.876 23.2811 160.228 23.2811C162.58 23.2811 163.342 25.2517 163.342 26.5866L163.088 26.7772H163.152ZM154.57 32.0532V22.7091L154.38 22.5184H153.617L153.426 22.7091V32.0532L153.617 32.2439H154.38L154.57 32.0532ZM154.57 20.7385V19.5308L154.38 19.3401H153.617L153.426 19.5308V20.7385L153.617 20.9292H154.38L154.57 20.7385ZM147.197 31.4175C145.226 31.4175 144.082 30.0191 144.082 27.3493C144.082 24.6796 145.29 23.2811 147.197 23.2811C149.104 23.2811 150.311 24.6796 150.311 27.3493C150.311 30.0826 149.104 31.4175 147.197 31.4175ZM150.311 30.8454C150.311 33.3881 149.739 35.295 147.387 35.295C145.036 35.295 145.036 34.5322 144.845 33.5152L144.654 33.3245H143.891L143.701 33.5152C143.891 35.1043 145.099 36.2485 147.387 36.2485C149.676 36.2485 151.456 34.6594 151.456 30.7819V22.6455L151.265 22.4548H150.693L150.502 22.6455L150.311 23.8532H150.121C149.739 23.0904 148.722 22.2641 147.006 22.2641C144.273 22.2641 142.938 24.4253 142.938 27.3493C142.938 30.2733 144.336 32.4346 147.006 32.4346C149.676 32.4346 149.739 31.6718 150.121 30.8454H150.311ZM137.662 23.2811C139.632 23.2811 140.967 24.8703 140.967 27.3493C140.967 29.8284 139.569 31.4175 137.662 31.4175C135.755 31.4175 134.357 29.8284 134.357 27.3493C134.357 24.8703 135.755 23.2811 137.662 23.2811ZM137.662 32.4346C140.205 32.4346 142.112 30.6547 142.112 27.3493C142.112 24.0439 140.141 22.2641 137.662 22.2641C135.183 22.2641 133.212 24.0439 133.212 27.3493C133.212 30.6547 135.119 32.4346 137.662 32.4346ZM131.814 32.0532V18.8316L131.623 18.6409H130.86L130.67 18.8316V32.0532L130.86 32.2439H131.623L131.814 32.0532ZM124.885 23.2811C126.856 23.2811 128.191 24.8703 128.191 27.3493C128.191 29.8284 126.792 31.4175 124.885 31.4175C122.978 31.4175 121.58 29.8284 121.58 27.3493C121.58 24.8703 122.978 23.2811 124.885 23.2811ZM124.885 32.4346C127.428 32.4346 129.335 30.6547 129.335 27.3493C129.335 24.0439 127.364 22.2641 124.885 22.2641C122.406 22.2641 120.436 24.0439 120.436 27.3493C120.436 30.6547 122.343 32.4346 124.885 32.4346ZM119.228 32.0532V26.2052C119.228 23.6625 117.83 22.3277 115.732 22.3277C113.634 22.3277 113.189 22.8998 112.617 23.9168H112.426L112.236 22.7091L112.045 22.5184H111.473L111.282 22.7091V32.0532L111.473 32.2439H112.236L112.426 32.0532V26.7772C112.426 24.616 113.444 23.2811 115.541 23.2811C117.639 23.2811 118.084 24.2982 118.084 26.2052V32.0532L118.274 32.2439H119.037L119.292 32.0532H119.228ZM109.312 32.0532V26.2052C109.312 23.6625 107.913 22.3277 105.816 22.3277C103.718 22.3277 103.273 22.8998 102.701 23.9168H102.51V18.8316L102.32 18.6409H101.557L101.366 18.8316V32.0532L101.557 32.2439H102.32L102.51 32.0532V26.7772C102.51 24.616 103.527 23.2811 105.625 23.2811C107.723 23.2811 108.168 24.2982 108.168 26.2052V32.0532L108.358 32.2439H109.121L109.375 32.0532H109.312ZM92.5941 27.3493C92.5941 24.616 93.9925 23.2811 95.8995 23.2811C97.8064 23.2811 98.6328 24.4889 98.8235 25.6331L99.0142 25.8238H99.7769L99.9676 25.6331C99.7769 23.6625 98.1878 22.3277 95.8995 22.3277C93.6111 22.3277 91.4499 23.9168 91.4499 27.4129C91.4499 30.909 93.4204 32.4981 95.8995 32.4981C98.3785 32.4981 99.7769 31.0997 99.9676 29.1927L99.7769 29.002H99.0142L98.8235 29.1927C98.6328 30.4005 97.8064 31.5447 95.8995 31.5447C93.9289 31.5447 92.5941 30.2098 92.5941 27.4765M90.4328 27.7307L90.6235 27.54V26.9679C90.6235 24.2346 89.0344 22.2641 86.3646 22.2641C83.6949 22.2641 82.1058 24.2346 82.1058 26.9679V27.3493C82.1058 30.0826 83.5042 32.4346 86.5553 32.4346C89.6065 32.4346 90.2421 30.6547 90.4328 29.5106L90.2421 29.3199H89.4793L89.2886 29.5106C88.9073 30.7183 88.0809 31.4811 86.5553 31.4811C84.0127 31.4811 83.2499 29.1292 83.2499 27.985L83.4406 27.7943H90.4328V27.7307ZM89.2251 26.7772H83.3771L83.1864 26.5866C83.1864 25.1881 83.9491 23.2811 86.3011 23.2811C88.653 23.2811 89.4158 25.2517 89.4158 26.5866L89.1615 26.7772H89.2251ZM84.0127 19.4037V18.8316L83.822 18.6409H73.7151L73.5244 18.8316V19.4037L73.7151 19.5944H77.974L78.1647 19.785V32.0532L78.3554 32.2439H79.1182L79.3089 32.0532V19.785L79.4996 19.5944H83.7585L84.0127 19.4037Z" fill="white"/>
<path d="M73.5255 29.5108V32.2441H64.7534V18.6411H67.8681V29.5108H73.589H73.5255ZM32.9707 32.2441C36.149 32.2441 38.8187 30.0829 39.5815 27.1589L47.2729 33.1976L54.9644 27.1589V32.2441H63.7364V29.5108H58.0155V18.6411H54.9008V23.7264L47.5272 29.5108L45.8745 28.2395L49.4342 25.4426L53.3117 22.4551L51.0869 20.7388L43.7133 26.5233L42.0606 25.2519L49.4342 19.4675L47.2094 17.7512L39.518 23.7899C38.7552 20.8659 36.0854 18.7047 32.9071 18.7047H27.377V32.3077H32.9071L32.9707 32.2441ZM30.4917 29.5108V21.3109H32.9707C35.0048 21.3109 36.7211 23.1543 36.7211 25.4426C36.7211 27.731 35.0684 29.5744 32.9707 29.5744H30.4917V29.5108Z" fill="white"/>
<path d="M48.802 70.2488L46.932 65.5228H37.616L35.848 70.2488H29.524L39.622 46.1768H45.266L55.262 70.2488H48.802ZM42.342 52.6028L39.282 60.8648H45.334L42.342 52.6028ZM74.4215 46.1768H82.2755C83.6582 46.1768 84.9049 46.3014 86.0155 46.5508C87.1262 46.8001 88.0782 47.2081 88.8715 47.7748C89.6649 48.3414 90.2769 49.0668 90.7075 49.9508C91.1382 50.8348 91.3535 51.9001 91.3535 53.1468C91.3535 54.4841 91.1042 55.6061 90.6055 56.5128C90.1069 57.4194 89.4269 58.1561 88.5655 58.7228C87.7269 59.2668 86.7409 59.6634 85.6075 59.9128C84.4742 60.1621 83.2729 60.2868 82.0035 60.2868H78.7055V70.2488H74.4215V46.1768ZM81.6975 56.6828C82.4002 56.6828 83.0689 56.6374 83.7035 56.5468C84.3382 56.4334 84.9049 56.2521 85.4035 56.0028C85.9022 55.7308 86.2989 55.3681 86.5935 54.9148C86.8882 54.4614 87.0355 53.8721 87.0355 53.1468C87.0355 52.4441 86.8882 51.8774 86.5935 51.4468C86.2989 50.9934 85.9022 50.6421 85.4035 50.3928C84.9275 50.1434 84.3722 49.9848 83.7375 49.9168C83.1255 49.8261 82.4909 49.7808 81.8335 49.7808H78.7055V56.6828H81.6975ZM115.811 67.2568H128.391V70.2488H112.445V46.1768H127.881V49.1348H115.811V56.3428H127.167V59.2328H115.811V67.2568ZM158.025 55.9008L164.587 46.1768H167.511L159.521 57.6348L168.361 70.2488H165.301L157.957 59.4028L150.647 70.2488H147.587L156.427 57.6008L148.369 46.1768H151.429L158.025 55.9008Z" fill="white"/>
</svg>
