<svg width="1720" height="174" viewBox="0 0 1720 174" fill="none" xmlns="http://www.w3.org/2000/svg">
<rect x="0.5" y="1.24316" width="1719" height="172" rx="15.5" fill="#436AF3" fill-opacity="0.1"/>
<rect x="0.5" y="1.24316" width="1719" height="172" rx="15.5" stroke="#436AF3" stroke-dasharray="8 8"/>
<path d="M978.966 68.1531C978.966 65.2375 977.3 63.988 974.176 63.3632C970.948 62.7384 969.074 62.426 969.074 60.1352C969.074 57.8443 970.323 57.532 972.614 57.532C974.905 57.532 976.467 58.7815 976.467 60.4476L976.779 60.76H978.029L978.341 60.4476C978.341 57.2196 975.738 55.97 972.614 55.97C969.49 55.97 967.199 57.9485 967.199 60.1352C967.199 62.3219 969.178 63.988 972.302 64.6127C975.53 65.2375 977.092 65.5499 977.092 68.1531C977.092 70.7564 976.155 71.0687 972.927 71.0687C969.699 71.0687 968.761 69.4027 968.761 67.5284L968.449 67.216H967.199L966.887 67.5284C966.887 70.444 969.178 72.6307 972.927 72.6307C977.092 72.6307 978.966 70.7564 978.966 68.1531ZM965.325 64.9251L965.638 64.6127V63.6756C965.638 59.198 963.034 55.97 958.661 55.97C954.287 55.97 951.684 59.198 951.684 63.6756V64.3003C951.684 68.7779 953.975 72.6307 958.973 72.6307C963.971 72.6307 965.013 69.7151 965.325 67.8407L965.013 67.5284H963.763L963.451 67.8407C962.826 69.8192 961.472 71.0687 958.973 71.0687C954.808 71.0687 953.559 67.216 953.559 65.3416L953.871 65.0293H965.325V64.9251ZM963.451 63.3632H953.871L953.559 63.0508C953.559 60.76 954.808 57.6361 958.661 57.6361C962.514 57.6361 963.763 60.8641 963.763 63.0508L963.347 63.3632H963.451ZM949.393 72.0059V56.6989L949.081 56.3865H947.831L947.519 56.6989V72.0059L947.831 72.3183H949.081L949.393 72.0059ZM949.393 53.4709V51.4925L949.081 51.1801H947.831L947.519 51.4925V53.4709L947.831 53.7833H949.081L949.393 53.4709ZM937.314 70.9646C934.086 70.9646 932.212 68.6738 932.212 64.3003C932.212 59.9269 934.191 57.6361 937.314 57.6361C940.438 57.6361 942.417 59.9269 942.417 64.3003C942.417 68.7779 940.438 70.9646 937.314 70.9646ZM942.417 70.0274C942.417 74.1926 941.48 77.3165 937.627 77.3165C933.774 77.3165 933.774 76.0669 933.462 74.4009L933.149 74.0885H931.9L931.587 74.4009C931.9 77.0041 933.878 78.8784 937.627 78.8784C941.375 78.8784 944.291 76.2752 944.291 69.9233V56.5948L943.979 56.2824H943.042L942.729 56.5948L942.417 58.5732H942.104C941.48 57.3237 939.814 55.97 937.002 55.97C932.525 55.97 930.338 59.5104 930.338 64.3003C930.338 69.0903 932.629 72.6307 937.002 72.6307C941.375 72.6307 941.48 71.3811 942.104 70.0274H942.417ZM921.695 57.6361C924.923 57.6361 927.11 60.2393 927.11 64.3003C927.11 68.3614 924.819 70.9646 921.695 70.9646C918.571 70.9646 916.28 68.3614 916.28 64.3003C916.28 60.2393 918.571 57.6361 921.695 57.6361ZM921.695 72.6307C925.86 72.6307 928.984 69.7151 928.984 64.3003C928.984 58.8856 925.756 55.97 921.695 55.97C917.634 55.97 914.406 58.8856 914.406 64.3003C914.406 69.7151 917.53 72.6307 921.695 72.6307ZM912.115 72.0059V50.3471L911.803 50.0347H910.553L910.241 50.3471V72.0059L910.553 72.3183H911.803L912.115 72.0059ZM900.765 57.6361C903.993 57.6361 906.18 60.2393 906.18 64.3003C906.18 68.3614 903.889 70.9646 900.765 70.9646C897.641 70.9646 895.35 68.3614 895.35 64.3003C895.35 60.2393 897.641 57.6361 900.765 57.6361ZM900.765 72.6307C904.93 72.6307 908.054 69.7151 908.054 64.3003C908.054 58.8856 904.826 55.97 900.765 55.97C896.704 55.97 893.476 58.8856 893.476 64.3003C893.476 69.7151 896.6 72.6307 900.765 72.6307ZM891.498 72.0059V62.426C891.498 58.2609 889.207 56.0742 885.771 56.0742C882.334 56.0742 881.605 57.0113 880.668 58.6774H880.356L880.043 56.6989L879.731 56.3865H878.794L878.482 56.6989V72.0059L878.794 72.3183H880.043L880.356 72.0059V63.3632C880.356 59.8228 882.022 57.6361 885.458 57.6361C888.894 57.6361 889.623 59.3022 889.623 62.426V72.0059L889.936 72.3183H891.185L891.602 72.0059H891.498ZM875.254 72.0059V62.426C875.254 58.2609 872.963 56.0742 869.526 56.0742C866.09 56.0742 865.361 57.0113 864.424 58.6774H864.112V50.3471L863.799 50.0347H862.55L862.237 50.3471V72.0059L862.55 72.3183H863.799L864.112 72.0059V63.3632C864.112 59.8228 865.778 57.6361 869.214 57.6361C872.65 57.6361 873.379 59.3022 873.379 62.426V72.0059L873.692 72.3183H874.941L875.358 72.0059H875.254ZM847.868 64.3003C847.868 59.8228 850.158 57.6361 853.282 57.6361C856.406 57.6361 857.76 59.6145 858.072 61.4889L858.385 61.8013H859.634L859.947 61.4889C859.634 58.2609 857.031 56.0742 853.282 56.0742C849.534 56.0742 845.993 58.6774 845.993 64.4045C845.993 70.1316 849.221 72.7348 853.282 72.7348C857.343 72.7348 859.634 70.444 859.947 67.3201L859.634 67.0077H858.385L858.072 67.3201C857.76 69.2985 856.406 71.1729 853.282 71.1729C850.054 71.1729 847.868 68.9862 847.868 64.5086M844.327 64.9251L844.64 64.6127V63.6756C844.64 59.198 842.036 55.97 837.663 55.97C833.29 55.97 830.686 59.198 830.686 63.6756V64.3003C830.686 68.7779 832.977 72.6307 837.975 72.6307C842.974 72.6307 844.015 69.7151 844.327 67.8407L844.015 67.5284H842.765L842.453 67.8407C841.828 69.8192 840.474 71.0687 837.975 71.0687C833.81 71.0687 832.561 67.216 832.561 65.3416L832.873 65.0293H844.327V64.9251ZM842.349 63.3632H832.769L832.457 63.0508C832.457 60.76 833.706 57.6361 837.559 57.6361C841.412 57.6361 842.661 60.8641 842.661 63.0508L842.245 63.3632H842.349ZM833.81 51.2842V50.3471L833.498 50.0347H816.941L816.629 50.3471V51.2842L816.941 51.5966H823.918L824.23 51.909V72.0059L824.543 72.3183H825.792L826.105 72.0059V51.909L826.417 51.5966H833.394L833.81 51.2842Z" fill="white"/>
<path d="M816.631 67.841V72.3186H802.261V50.0349H807.363V67.841H816.735H816.631ZM750.197 72.3186C755.403 72.3186 759.776 68.7782 761.026 63.9882L773.626 73.8805L786.225 63.9882V72.3186H800.595V67.841H791.223V50.0349H786.121V58.3653L774.042 67.841L771.335 65.7584L777.166 61.1768L783.518 56.2827L779.873 53.4712L767.794 62.947L765.087 60.8644L777.166 51.3886L773.521 48.5771L760.922 58.4694C759.672 53.6795 755.299 50.1391 750.092 50.1391H741.033V72.4227H750.092L750.197 72.3186ZM746.136 67.841V54.4084H750.197C753.529 54.4084 756.34 57.4281 756.34 61.1768C756.34 64.9254 753.633 67.9451 750.197 67.9451H746.136V67.841Z" fill="white"/>
<path d="M945.981 105.029L955.53 90.8784H959.786L948.158 107.553L961.023 125.91H956.57L945.882 110.126L935.244 125.91H930.791L943.656 107.503L931.929 90.8784H936.382L945.981 105.029Z" fill="white"/>
<path d="M884.547 121.555H902.854V125.91H879.648V90.8784H902.112V95.1831H884.547V105.673H901.073V109.878H884.547V121.555Z" fill="white"/>
<path d="M824.314 90.8784H835.744C837.756 90.8784 839.57 91.0598 841.187 91.4227C842.803 91.7855 844.189 92.3793 845.343 93.2039C846.498 94.0286 847.388 95.0841 848.015 96.3706C848.642 97.657 848.955 99.2074 848.955 101.022C848.955 102.968 848.592 104.601 847.866 105.92C847.141 107.239 846.151 108.312 844.898 109.136C843.677 109.928 842.242 110.505 840.593 110.868C838.944 111.231 837.195 111.412 835.348 111.412H830.549V125.91H824.314V90.8784ZM834.903 106.167C835.926 106.167 836.899 106.101 837.822 105.969C838.746 105.805 839.57 105.541 840.296 105.178C841.022 104.782 841.599 104.254 842.028 103.595C842.457 102.935 842.671 102.077 842.671 101.022C842.671 99.999 842.457 99.1744 842.028 98.5477C841.599 97.8879 841.022 97.3767 840.296 97.0138C839.603 96.651 838.795 96.4201 837.872 96.3211C836.981 96.1892 836.057 96.1232 835.101 96.1232H830.549V106.167H834.903Z" fill="white"/>
<path d="M787.031 125.91L784.31 119.032H770.753L768.18 125.91H758.977L773.672 90.8784H781.885L796.432 125.91H787.031ZM777.63 100.23L773.177 112.253H781.984L777.63 100.23Z" fill="white"/>
</svg>
