<svg width="36" height="36" viewBox="0 0 36 36" fill="none" xmlns="http://www.w3.org/2000/svg">
<rect width="36" height="36" rx="4" fill="#DFEBFF"/>
<path d="M20.0537 27.5V26.1725C20.0537 25.8254 20.3253 25.5388 20.672 25.5203L23.2769 25.3982C23.8015 25.3701 24.2394 24.9881 24.3384 24.4722L24.458 22.1444C24.6764 21.0069 26.4976 21.6918 26.2971 20.4213C26.0216 19.2939 25.2065 18.177 25.0038 17.1307C24.5544 14.8112 24.8407 11.9884 22.4826 9.99959C21.0415 8.78417 19.2914 8.46236 17.4478 8.50339C14.3725 8.57173 11.4965 9.87741 10.2119 12.8387C8.95797 15.728 10.2116 18.1275 11.2921 20.7298C12.1205 22.7251 11.6141 27.5 11.6141 27.5" stroke="#436AF3" stroke-width="1.5" stroke-linecap="round"/>
<path d="M17.3046 19.4803C19.2958 19.4803 20.91 17.8661 20.91 15.8749C20.91 13.8838 19.2958 12.2695 17.3046 12.2695C15.3135 12.2695 13.6992 13.8838 13.6992 15.8749C13.6992 17.8661 15.3135 19.4803 17.3046 19.4803Z" stroke="#436AF3" stroke-width="1.5" stroke-linecap="round" stroke-linejoin="round"/>
<path d="M18.3629 16.7596L17.2866 16.1163V14.7324" stroke="#436AF3" stroke-width="1.5" stroke-linecap="round" stroke-linejoin="round"/>
</svg>
