<svg width="36" height="36" viewBox="0 0 36 36" fill="none" xmlns="http://www.w3.org/2000/svg">
<rect width="36" height="36" rx="4" fill="#DFEBFF"/>
<path d="M24.5078 25.8884C25.2054 25.1908 25.6335 24.2256 25.6258 23.1641" stroke="#436AF3" stroke-width="1.5" stroke-linecap="round" stroke-linejoin="round"/>
<path d="M18.8086 27H21.9688" stroke="#436AF3" stroke-width="1.5" stroke-linecap="round" stroke-linejoin="round"/>
<path d="M12.8926 26.793C13.2545 26.9185 13.6408 26.9905 14.0446 26.9992C14.0747 27.0002 16.3272 27.0002 16.3272 27.0002" stroke="#436AF3" stroke-width="1.5" stroke-linecap="round" stroke-linejoin="round"/>
<path d="M10.374 22.0977V23.166C10.3565 23.9424 10.5774 24.6702 10.9685 25.2783" stroke="#436AF3" stroke-width="1.5" stroke-linecap="round" stroke-linejoin="round"/>
<path d="M10.375 16.2578V19.4754" stroke="#436AF3" stroke-width="1.5" stroke-linecap="round" stroke-linejoin="round"/>
<path d="M11.0726 10.5664C10.6484 11.157 10.3925 11.878 10.373 12.6583V13.5165" stroke="#436AF3" stroke-width="1.5" stroke-linecap="round" stroke-linejoin="round"/>
<path d="M16.2567 9.00001H14.1356C13.7571 8.99904 13.3923 9.05353 13.0469 9.15569" stroke="#436AF3" stroke-width="1.5" stroke-linecap="round" stroke-linejoin="round"/>
<path d="M25.6266 20.234V14.9994C25.6266 14.4701 25.4223 13.9612 25.0555 13.5798L21.2638 9.63049C20.8776 9.22768 20.3434 9 19.7859 9H19.1875" stroke="#436AF3" stroke-width="1.5" stroke-linecap="round" stroke-linejoin="round"/>
<path d="M20.2695 9.0625V11.9552C20.2686 13.3669 21.4118 14.5131 22.8236 14.516H25.5625" stroke="#436AF3" stroke-width="1.5" stroke-linecap="round" stroke-linejoin="round"/>
</svg>
