<svg width="107" height="13" viewBox="0 0 107 13" fill="none" xmlns="http://www.w3.org/2000/svg">
<path d="M0 11.6513L0.639434 11.0118C0.795394 10.8558 0.873373 10.6791 0.873373 10.4816V0.390625H1.02933L8.67159 7.28427V2.21543C8.67159 2.01783 8.59361 1.84105 8.43765 1.68517L7.79821 1.04573V0.889775H11.8377V1.04573L11.1983 1.68517C11.0423 1.84113 10.9644 2.01791 10.9644 2.21543V12.2284H10.8084L3.16606 5.31911V10.4815C3.16606 10.679 3.24404 10.8558 3.4 11.0117L4.03943 11.6512V11.8072H0V11.6513Z" fill="#58595B"/>
<path d="M12.96 11.6522L13.5994 11.0126C13.7554 10.8567 13.8333 10.68 13.8333 10.4825V2.21628C13.8333 2.01868 13.7554 1.8419 13.5994 1.68602L12.96 1.04658V0.890625H19.4012C20.5242 0.890625 21.3846 1.14539 21.9824 1.65483C22.5804 2.16427 22.8793 2.84012 22.8793 3.68238C22.8793 4.95088 22.2243 5.74627 20.9141 6.06864V6.09983C22.5257 6.38064 23.3316 7.26953 23.3316 8.76682C23.3316 9.76496 22.9806 10.5214 22.2788 11.0361C21.577 11.5507 20.597 11.8081 19.3389 11.8081H12.96V11.6522ZM19.0893 5.21078C19.9732 5.21078 20.4151 4.82603 20.4151 4.0566C20.4151 3.69267 20.3033 3.40157 20.0797 3.18323C19.8561 2.96489 19.526 2.85572 19.0893 2.85572H16.3288V5.21078H19.0893ZM19.0426 9.81175C20.2175 9.81175 20.805 9.34902 20.805 8.42363C20.805 7.55034 20.2175 7.11357 19.0426 7.11357H16.3288V9.81175H19.0426Z" fill="#58595B"/>
<path d="M26.3251 10.4895C25.2438 9.46533 24.7031 8.0955 24.7031 6.37994C24.7031 4.65386 25.249 3.27619 26.3408 2.24686C27.4326 1.21752 28.8154 0.702776 30.4895 0.702776C30.8638 0.702776 31.3213 0.736581 31.8619 0.80419C32.4026 0.871799 32.7405 0.905524 32.8756 0.905524C33.2708 0.905524 33.6347 0.775531 33.9674 0.515625L34.1234 0.578009L33.1876 4.27441L33.0161 4.22762C32.9018 3.8325 32.6444 3.48939 32.2441 3.19829C31.8438 2.90719 31.3109 2.7616 30.6455 2.7616C29.6993 2.7616 28.9169 3.09173 28.2983 3.75198C27.6797 4.41224 27.3703 5.29345 27.3703 6.39562C27.3703 7.46659 27.6614 8.33221 28.2436 8.99246C28.8259 9.65272 29.5901 9.98284 30.5363 9.98284C31.6385 9.98284 32.5066 9.55138 33.1409 8.6883L34.607 10.3883C33.5881 11.4801 32.2 12.0261 30.4428 12.0261C28.779 12.0259 27.4065 11.5138 26.3251 10.4895Z" fill="#58595B"/>
<path d="M37.664 10.8723C36.8114 10.1028 36.3851 8.98508 36.3851 7.51906V2.21628C36.3851 2.01868 36.3071 1.8419 36.1512 1.68602L35.5117 1.04658V0.890625H39.7228V1.04658L39.0833 1.68602C38.9273 1.84198 38.8493 2.01876 38.8493 2.21628V7.58145C38.8493 8.37162 39.0417 8.96434 39.4265 9.35939C39.8111 9.75459 40.3622 9.95203 41.0796 9.95203C41.7867 9.95203 42.3299 9.75198 42.7094 9.35163C43.089 8.95128 43.2787 8.36125 43.2787 7.58145V2.21628C43.2787 2.01868 43.2008 1.8419 43.0448 1.68602L42.4053 1.04658V0.890625H46.6475V1.04658L46.0081 1.68602C45.8522 1.84198 45.7742 2.01876 45.7742 2.21628V7.51906C45.7742 8.98516 45.3452 10.1028 44.4875 10.8723C43.6297 11.6417 42.4937 12.0265 41.0796 12.0265C39.6552 12.0265 38.5167 11.6417 37.664 10.8723Z" fill="#58595B"/>
<path d="M47.7852 11.6504L48.4247 11.0109C48.5806 10.8549 48.6586 10.6158 48.6586 10.2935V5.83286C48.6586 5.51057 48.5806 5.2714 48.4247 5.11544L47.7852 4.47601V4.32005H50.9357V5.6613C51.1124 5.23499 51.4374 4.88151 51.9105 4.60078C52.3836 4.32005 52.8956 4.17969 53.4467 4.17969C54.2577 4.17969 54.8868 4.43959 55.3339 4.95949C55.7811 5.47938 56.0045 6.20724 56.0045 7.143V10.2935C56.0045 10.6158 56.0825 10.855 56.2385 11.011L56.878 11.6505V11.8064H53.6651V7.65766C53.6651 7.21053 53.5611 6.85443 53.3531 6.5893C53.1453 6.32417 52.8385 6.19157 52.433 6.19157C51.9547 6.19157 51.596 6.33977 51.3568 6.63609C51.1176 6.93241 50.9981 7.31455 50.9981 7.78243V10.2935C50.9981 10.6157 51.0761 10.8549 51.232 11.0109L51.8715 11.6504V11.8063H47.7852L47.7852 11.6504Z" fill="#58595B"/>
<path d="M57.5801 11.6514L58.2195 11.0119C58.3755 10.856 58.4535 10.6169 58.4535 10.2945V5.8339C58.4535 5.51161 58.3755 5.27244 58.2195 5.11648L57.5801 4.47705V4.32109H60.7929V10.2946C60.7929 10.6169 60.8708 10.856 61.0269 11.012L61.6664 11.6515V11.8075H57.5801V11.6514ZM58.6328 2.8238C58.3573 2.56389 58.2195 2.24152 58.2195 1.85685C58.2195 1.47217 58.3573 1.14981 58.6328 0.889899C58.9083 0.629913 59.2332 0.5 59.6076 0.5C59.982 0.5 60.3068 0.629993 60.5824 0.889899C60.8579 1.14981 60.9957 1.47217 60.9957 1.85685C60.9957 2.24152 60.858 2.56389 60.5824 2.8238C60.3068 3.0837 59.982 3.2137 59.6076 3.2137C59.2332 3.2137 58.9084 3.0837 58.6328 2.8238Z" fill="#58595B"/>
<path d="M63.0065 5.98916C62.653 5.30294 62.258 4.80387 61.8213 4.49187V4.32031H64.6909L66.235 7.93873H66.2663L67.6231 4.32031H70.5397V4.49187C70.0927 4.80379 69.6976 5.30294 69.3543 5.98916L66.2663 12.1497H66.1103L63.0065 5.98916Z" fill="#58595B"/>
<path d="M71.8808 10.9875C71.1425 10.2961 70.7734 9.36293 70.7734 8.18793C70.7734 7.00263 71.1374 6.0383 71.8652 5.29484C72.593 4.55138 73.5808 4.17969 74.8285 4.17969C76.0347 4.17969 76.9392 4.53064 77.5422 5.23245C78.1454 5.93427 78.447 6.87787 78.447 8.06324C78.447 8.3024 78.4364 8.52597 78.4157 8.73394H73.1754C73.2273 9.12899 73.4197 9.46173 73.7524 9.73201C74.085 10.0024 74.5269 10.1376 75.078 10.1376C75.7748 10.1376 76.3102 9.92961 76.6845 9.51366L77.9791 11.0421C77.272 11.6972 76.2374 12.0248 74.8753 12.0248C73.6171 12.0248 72.619 11.679 71.8808 10.9875ZM73.5964 6.3476C73.3261 6.62833 73.1754 6.97152 73.1441 7.37694H76.0762C76.0553 6.95062 75.9255 6.60236 75.6862 6.33201C75.4472 6.06165 75.1092 5.92651 74.6725 5.92651C74.2254 5.92643 73.8667 6.06688 73.5964 6.3476Z" fill="#58595B"/>
<path d="M79.5226 11.6504L80.1621 11.0109C80.3182 10.8549 80.3961 10.6158 80.3961 10.2935V5.83286C80.3961 5.51057 80.3182 5.2714 80.1621 5.11544L79.5226 4.47601V4.32005H82.6732V5.83286C82.8499 5.35453 83.1411 4.95949 83.5465 4.64757C83.9521 4.33565 84.42 4.17969 84.9502 4.17969C85.3348 4.17969 85.6625 4.25244 85.9328 4.39803L85.3245 6.73758C84.9917 6.44641 84.6174 6.30082 84.2016 6.30082C83.7441 6.30082 83.3853 6.45155 83.1254 6.7531C82.8655 7.05473 82.7354 7.48096 82.7354 8.03205V10.2935C82.7354 10.6157 82.8133 10.8549 82.9693 11.0109L83.6088 11.6504V11.8063H79.5225V11.6504H79.5226Z" fill="#58595B"/>
<path d="M86.1816 11.0106L87.2734 9.41982C87.97 9.99164 88.807 10.2776 89.7844 10.2776C90.4499 10.2776 90.7826 10.0696 90.7826 9.65376C90.7826 9.45615 90.6968 9.30542 90.5252 9.20147C90.3537 9.09745 90.1275 9.02469 89.8468 8.98305C89.566 8.94149 89.2489 8.8894 88.8954 8.82709C87.3669 8.56718 86.6027 7.8341 86.6027 6.62798C86.6027 5.76498 86.9068 5.14114 87.5151 4.75639C88.1233 4.37164 88.8954 4.17934 89.8312 4.17934C90.195 4.17934 90.5773 4.21314 90.9775 4.28067C91.3779 4.34828 91.6455 4.38209 91.7807 4.38209C92.1238 4.38209 92.4669 4.25209 92.81 3.99219L92.966 4.05457L92.233 6.90871L92.0771 6.86192C91.7651 6.19652 91.0632 5.86378 89.9715 5.86378C89.3164 5.86378 88.9889 6.05616 88.9889 6.44083C88.9889 6.61753 89.0695 6.75798 89.2306 6.86192C89.3919 6.96587 89.6076 7.03609 89.8779 7.07243C90.1483 7.10892 90.4551 7.15824 90.7982 7.22063C91.4741 7.33495 92.0381 7.56374 92.4904 7.90693C92.9427 8.25004 93.1687 8.74911 93.1687 9.40414C93.1687 10.236 92.8542 10.8806 92.2252 11.3381C91.5962 11.7956 90.7306 12.0244 89.6284 12.0244C88.152 12.0245 87.003 11.6865 86.1816 11.0106Z" fill="#58595B"/>
<path d="M94.7751 11.4241C94.3176 11.0238 94.0889 10.4962 94.0889 9.8411C94.0889 9.01974 94.3877 8.40627 94.9855 8.00078C95.5835 7.5952 96.5166 7.38216 97.7851 7.36126C98.1802 7.35089 98.4506 7.30157 98.5961 7.21314C98.7418 7.12479 98.8144 6.97144 98.8144 6.75302C98.8144 6.53468 98.7027 6.35267 98.4792 6.20716C98.2557 6.06157 97.9152 5.98882 97.4577 5.98882C96.7609 5.98882 96.1268 6.2488 95.5549 6.7687L94.3383 5.33379C95.1079 4.56436 96.2255 4.17969 97.6916 4.17969C98.877 4.17969 99.7478 4.41885 100.304 4.8971C100.86 5.37543 101.138 6.10322 101.138 7.08069V10.2935C101.138 10.6158 101.216 10.855 101.372 11.011L102.012 11.6505V11.8064H98.8613V10.7926C98.6742 11.1566 98.3725 11.4529 97.9567 11.6816C97.5408 11.9104 97.0573 12.0248 96.5062 12.0248C95.8097 12.0247 95.2325 11.8244 94.7751 11.4241ZM98.4091 9.95811C98.6794 9.68261 98.8145 9.35248 98.8145 8.96772V8.45298C98.6794 8.50491 98.3519 8.54655 97.8321 8.57775C96.8963 8.62968 96.4284 8.95213 96.4284 9.54478C96.4284 9.78394 96.5063 9.98146 96.6624 10.1374C96.8182 10.2934 97.0522 10.3714 97.3642 10.3714C97.7904 10.3714 98.1387 10.2337 98.4091 9.95811Z" fill="#58595B"/>
<path d="M102.651 11.6506L103.291 11.0111C103.447 10.8551 103.525 10.616 103.525 10.2936V1.51289C103.525 1.19052 103.447 0.951432 103.291 0.795394L102.651 0.15596V0H105.864V10.2936C105.864 10.6159 105.942 10.8551 106.098 11.0111L106.738 11.6506V11.8065H102.651V11.6506Z" fill="#58595B"/>
</svg>
