<svg width="36" height="34" viewBox="0 0 36 34" fill="none" xmlns="http://www.w3.org/2000/svg">
<path d="M25.0429 12.8477L15.3589 22.5317L9.58594 16.7597" stroke="#436AF3" stroke-width="2" stroke-miterlimit="10"/>
<path d="M18.078 3.92122L22.8016 2.0015L25.4921 6.32901L25.5993 6.50146L25.7964 6.55033L30.7451 7.77712L30.383 12.8574L30.3686 13.0597L30.4991 13.2148L33.7795 17.1151L30.499 21.0183L30.3686 21.1734L30.383 21.3755L30.7451 26.4557L25.7967 27.6796L25.5994 27.7284L25.4921 27.901L22.8007 32.23L18.0781 30.3089L17.8899 30.2323L17.7015 30.3088L12.9789 32.2272L10.2874 27.898L10.1801 27.7254L9.98283 27.6766L5.03442 26.4527L5.39649 21.3725L5.4109 21.1703L5.28041 21.0152L2 17.1149L5.28052 13.2117L5.4109 13.0566L5.39649 12.8544L5.03442 7.77432L9.98283 6.55039L10.1801 6.50159L10.2874 6.32901L12.9788 2L17.7013 3.92116L17.8896 3.99777L18.078 3.92122Z" stroke="#436AF3" stroke-width="2"/>
</svg>
