<svg width="96" height="26" viewBox="0 0 96 26" fill="none" xmlns="http://www.w3.org/2000/svg">
<path d="M24.6687 25.5432C23.927 25.4232 23.1716 25.3573 22.4463 25.1729C20.2869 24.6241 18.5537 23.4174 17.2011 21.6503C17.0322 21.4298 17.0167 21.2705 17.1721 21.0283C17.7558 20.1187 18.3124 19.1916 18.8808 18.2722C18.9411 18.1747 19.0126 18.0842 19.0887 17.9766C20.8841 22.6145 26.8329 23.4405 29.7866 19.5597C30.78 20.0907 31.7786 20.6245 32.8127 21.1773C32.2005 22.1209 31.4731 22.8888 30.6187 23.5349C29.0905 24.6905 27.3733 25.3498 25.4539 25.466C25.3097 25.4747 25.1675 25.5166 25.0244 25.5431C24.9058 25.5432 24.7872 25.5432 24.6687 25.5432Z" fill="#58595B"/>
<path d="M96.0006 16.2056C95.6819 16.2421 95.3632 16.2786 94.9846 16.3219C94.9846 17.17 94.9846 18.0345 94.9846 18.9269C94.7145 18.9269 94.5031 18.9269 94.2528 18.9269C94.2528 18.053 94.2528 17.1987 94.2528 16.2994C93.9162 16.2843 93.6142 16.2708 93.29 16.2563C93.29 16.0602 93.29 15.8912 93.29 15.6719C94.2022 15.6719 95.1014 15.6719 96.0006 15.6719C96.0006 15.8497 96.0006 16.0277 96.0006 16.2056Z" fill="#58595B"/>
<path d="M37.4582 12.4661C36.5636 12.4661 35.7521 12.4661 34.9082 12.4661C34.9082 11.317 34.9082 10.1987 34.9082 9.03322C35.729 9.03322 36.552 9.03322 37.4331 9.03322C37.4331 6.00432 37.4331 3.02122 37.4331 0C38.607 0 39.7231 0 40.893 0C40.893 2.97658 40.893 5.96068 40.893 9.01373C41.1021 9.01373 41.2581 9.01373 41.4142 9.01373C43.0593 9.01373 44.7057 9.05416 46.349 9.00031C47.5487 8.96104 48.5974 9.30259 49.5579 9.97333C50.5153 10.6419 51.5479 11.1377 52.6793 11.4304C54.6012 11.9275 56.384 11.6381 57.8901 10.3259C59.0823 9.28725 60.1728 8.13161 61.305 7.02451C62.0665 6.27998 62.7694 5.46482 63.5917 4.79568C65.058 3.60253 67.4556 3.31798 69.2088 4.83373C70.1484 5.64613 71.0161 6.54199 71.9118 7.40487C72.3279 7.80578 72.7248 8.22694 73.1453 8.6231C75.1057 10.4697 76.1106 11.0007 78.7377 11.5811C78.7462 11.7491 78.7554 11.931 78.7663 12.1462C77.9254 12.2532 77.1387 12.1477 76.3595 11.9714C74.8463 11.629 73.5059 10.9052 72.2456 10.0325C71.2473 9.34124 70.2923 8.58782 69.3012 7.88593C68.7467 7.49323 68.1784 7.11027 67.5797 6.79165C66.548 6.24263 65.5042 6.32148 64.5519 6.97742C63.8342 7.47183 63.187 8.06756 62.4901 8.59388C61.3206 9.47723 60.1463 10.3551 58.956 11.21C57.4123 12.3188 55.6614 12.8123 53.777 12.8061C52.6978 12.8026 51.619 12.7137 50.5399 12.6625C49.2097 12.5995 47.8801 12.5026 46.5491 12.4804C44.7268 12.4501 42.9036 12.4763 41.0807 12.4794C41.0529 12.4794 41.0251 12.4935 40.9447 12.5153C40.9371 12.6538 40.921 12.8093 40.9209 12.9649C40.9192 14.9805 40.917 16.9961 40.9206 19.0116C40.924 20.8817 42.5976 21.9182 44.3097 21.1189C44.792 20.8938 45.0433 20.4885 45.2005 20.011C45.2736 19.7886 45.3114 19.5544 45.3696 19.3069C45.472 19.2952 45.5723 19.2738 45.6725 19.2736C46.6928 19.2712 47.7132 19.2721 48.8179 19.2721C48.771 19.6807 48.7534 20.044 48.6848 20.3974C48.1854 22.9736 46.2503 24.6474 43.6324 24.7612C41.3536 24.8603 39.4574 24.1495 38.2315 22.1091C37.7105 21.2421 37.4543 20.2917 37.4569 19.2729C37.4622 17.198 37.4583 15.1232 37.4583 13.0484C37.4582 12.8744 37.4582 12.7006 37.4582 12.4661Z" fill="#58595B"/>
<path d="M0 8.69946C1.32868 8.69946 2.57222 8.68841 3.81499 8.7151C3.95229 8.71802 4.12532 8.91245 4.21376 9.0591C6.1035 12.1908 7.9815 15.3297 9.86695 18.464C10.3309 19.2352 10.8129 19.9956 11.3315 20.8334C11.5457 20.5153 11.7255 20.2718 11.8812 20.0137C13.7938 16.8436 15.7601 13.7041 17.5927 10.4884C18.8307 8.31626 20.713 7.16583 23.0325 6.63683C26.6184 5.81898 30.6459 7.48491 32.6745 10.5406C32.7136 10.5994 32.7421 10.6653 32.7932 10.7611C31.7754 11.3053 30.775 11.8401 29.7562 12.3847C28.9495 11.3465 27.9575 10.5965 26.7224 10.1998C25.0217 9.65353 23.3848 9.82887 21.8379 10.7123C21.5702 10.8652 21.3187 11.1134 21.1584 11.3774C19.2053 14.5921 17.2847 17.8266 15.3222 21.0354C14.7601 21.9546 14.133 22.8422 13.458 23.6818C12.8155 24.481 11.9226 24.8929 10.8931 24.6386C10.3719 24.5099 9.83005 24.2269 9.44019 23.8615C8.9072 23.3619 8.44661 22.7561 8.06503 22.1289C5.40169 17.7514 2.76688 13.3568 0.123948 8.96706C0.0880519 8.90747 0.064735 8.84035 0 8.69946Z" fill="#58595B"/>
<path d="M81.0507 6.17487C81.9721 6.18615 82.6238 6.67266 83.2008 7.33864C83.9172 8.1657 84.6547 8.97596 85.4122 9.76559C85.9884 10.3662 86.6363 10.8783 87.4479 11.1526C87.5646 11.192 87.6246 11.3992 87.7109 11.5289C87.5712 11.5763 87.3962 11.7025 87.2977 11.6582C86.7885 11.4295 86.252 11.2192 85.8118 10.8875C84.7492 10.0867 83.7081 9.25231 82.7087 8.37402C81.835 7.6061 80.9432 7.52104 79.8799 7.93307C78.2736 8.55549 76.5591 8.62314 74.8608 8.72569C74.7397 8.73298 74.6094 8.59131 74.4834 8.51883C74.5935 8.40861 74.6863 8.23305 74.8165 8.19853C75.7594 7.94849 76.7223 7.76732 77.6533 7.48161C78.239 7.30183 78.7759 6.96734 79.3436 6.72328C79.8918 6.48765 80.4517 6.27911 81.0065 6.05859C81.0213 6.09733 81.0361 6.13614 81.0507 6.17487Z" fill="#58595B"/>
<path d="M55.9431 4.55078C56.2089 4.65793 56.7455 4.79883 57.2005 5.07434C57.958 5.53308 58.669 6.07029 59.3836 6.59622C59.481 6.66786 59.4861 6.86467 59.534 7.00358C59.3947 7.04822 59.2312 7.16281 59.1206 7.12461C58.7591 6.99951 58.4189 6.8142 58.0668 6.6605C57.6339 6.47151 57.2081 6.25759 56.76 6.11432C56.0428 5.88498 55.3546 5.92395 54.6722 6.33207C53.365 7.11387 52.0269 7.84383 50.7009 8.59426C50.5854 8.65969 50.4688 8.75771 50.347 8.76707C50.2374 8.77551 50.0725 8.71223 50.0194 8.6264C49.9671 8.54211 49.9876 8.36723 50.0443 8.2732C50.1077 8.16796 50.2486 8.10998 50.3542 8.02944C51.6121 7.07046 52.8764 6.11984 54.1238 5.14743C54.5857 4.78748 55.0832 4.57279 55.9431 4.55078Z" fill="#58595B"/>
<path d="M82.1983 17.6922C82.1983 17.043 82.1983 16.3937 82.1983 15.7067C82.4116 15.7067 82.605 15.7067 82.8261 15.7067C82.8261 16.7735 82.8261 17.8319 82.8261 18.9056C82.3938 19.0429 82.0908 18.9637 81.8593 18.5204C81.5672 17.9613 81.2009 17.441 80.7805 16.9148C80.7805 17.5781 80.7805 18.2414 80.7805 18.9296C80.5321 18.9296 80.3461 18.9296 80.1221 18.9296C80.1221 17.8682 80.1221 16.7994 80.1221 15.7072C80.5305 15.6067 80.8507 15.6381 81.0862 16.0929C81.381 16.6618 81.7558 17.1892 82.0961 17.7345C82.1302 17.7203 82.1642 17.7063 82.1983 17.6922Z" fill="#58595B"/>
<path d="M69.4021 24.4602C69.1254 24.4602 68.9369 24.4602 68.7217 24.4602C68.7217 23.3831 68.7217 22.3231 68.7217 21.2364C69.1353 21.1352 69.4549 21.1591 69.6918 21.6189C69.9875 22.1931 70.3668 22.724 70.7916 23.2595C70.7916 22.5927 70.7916 21.926 70.7916 21.228C71.0281 21.228 71.2118 21.228 71.4334 21.228C71.4334 22.2876 71.4334 23.3572 71.4334 24.4338C70.9908 24.5647 70.6867 24.4689 70.4574 24.0313C70.1712 23.4853 69.8127 22.9772 69.4021 22.4644C69.4021 23.1154 69.4021 23.7662 69.4021 24.4602Z" fill="#58595B"/>
<path d="M86.2941 18.913C85.8115 19.0589 85.5273 18.9117 85.3049 18.4839C85.0209 17.9376 84.6605 17.4309 84.2476 16.9168C84.2476 17.5803 84.2476 18.2439 84.2476 18.9311C83.9978 18.9311 83.8114 18.9311 83.5889 18.9311C83.5889 17.8682 83.5889 16.7987 83.5889 15.7081C84.0323 15.58 84.343 15.6771 84.5785 16.1343C84.8649 16.6904 85.2326 17.2047 85.6474 17.7117C85.6474 17.056 85.6474 16.4003 85.6474 15.7071C85.8808 15.7071 86.0744 15.7071 86.2941 15.7071C86.2941 16.7749 86.2941 17.8336 86.2941 18.913Z" fill="#58595B"/>
<path d="M86.1424 23.2614C85.89 23.2471 85.6861 23.2355 85.4511 23.2222C85.4511 23.0624 85.4511 22.9101 85.4511 22.7325C85.8824 22.7325 86.3061 22.7325 86.7646 22.7325C86.7646 23.3006 86.7646 23.8687 86.7646 24.5343C86.5509 24.4446 86.3817 24.3735 86.1575 24.2793C85.4517 24.6836 84.7982 24.6619 84.2586 24.1638C83.7331 23.6786 83.5816 22.744 83.9113 22.0215C84.193 21.4044 84.823 21.0483 85.5007 21.1231C86.1744 21.1976 86.5824 21.5631 86.7171 22.2319C86.4 22.2791 86.1303 22.3504 85.8915 21.9824C85.6165 21.5587 84.9252 21.644 84.6542 22.1075C84.3726 22.5893 84.3726 23.1002 84.653 23.5856C84.8471 23.9215 85.1779 23.9994 85.5401 23.9442C85.892 23.8906 86.0695 23.6639 86.1424 23.2614Z" fill="#58595B"/>
<path d="M67.5805 21.211C67.5805 22.3088 67.5805 23.3569 67.5805 24.442C67.3561 24.442 67.1439 24.442 66.8806 24.442C66.8806 24.0097 66.8806 23.5721 66.8806 23.0975C66.4261 23.0975 66.0199 23.0975 65.5456 23.0975C65.5456 23.531 65.5456 23.9787 65.5456 24.452C65.2776 24.452 65.0768 24.452 64.8438 24.452C64.8438 23.3747 64.8438 22.303 64.8438 21.2138C65.0581 21.2138 65.2478 21.2138 65.497 21.2138C65.5163 21.6097 65.5358 22.0123 65.556 22.4266C65.9978 22.4266 66.406 22.4266 66.8688 22.4266C66.8688 22.0094 66.8688 21.617 66.8688 21.2109C67.1285 21.211 67.3334 21.211 67.5805 21.211Z" fill="#58595B"/>
<path d="M87.0596 15.6875C87.8692 15.6875 88.6505 15.6875 89.4596 15.6875C89.4596 15.8753 89.4596 16.0447 89.4596 16.2646C88.9023 16.2646 88.3466 16.2646 87.7615 16.2646C87.7615 16.5127 87.7615 16.712 87.7615 16.958C88.2592 16.958 88.7573 16.958 89.3065 16.958C89.3166 17.1547 89.3246 17.3082 89.3356 17.5206C88.8013 17.5206 88.2922 17.5206 87.7579 17.5206C87.7579 17.8072 87.7579 18.0382 87.7579 18.3287C88.3193 18.3287 88.8876 18.3287 89.4822 18.3287C89.4822 18.5569 89.4822 18.7271 89.4822 18.9272C88.6872 18.9272 87.8929 18.9272 87.0597 18.9272C87.0596 17.8664 87.0596 16.7961 87.0596 15.6875Z" fill="#58595B"/>
<path d="M67.9298 15.6953C67.9298 15.9071 67.9298 16.0658 67.9298 16.2763C67.3536 16.2763 66.7998 16.2763 66.2296 16.2763C66.2296 16.5286 66.2296 16.7275 66.2296 16.9716C66.7501 16.9716 67.2481 16.9716 67.7765 16.9716C67.7765 17.1695 67.7765 17.3223 67.7765 17.5162C67.2753 17.5162 66.7774 17.5162 66.2428 17.5162C66.2428 17.7963 66.2428 18.0377 66.2428 18.3365C66.8034 18.3365 67.3717 18.3365 67.9621 18.3365C67.9621 18.5627 67.9621 18.7327 67.9621 18.9298C67.1567 18.9298 66.3633 18.9298 65.5332 18.9298C65.5332 17.8621 65.5332 16.7925 65.5332 15.6953C66.3261 15.6953 67.116 15.6953 67.9298 15.6953Z" fill="#58595B"/>
<path d="M58.2139 21.7936C58.2139 22.069 58.2139 22.2589 58.2139 22.5065C58.7347 22.5065 59.2432 22.5065 59.7734 22.5065C59.7824 22.7061 59.7888 22.8492 59.7978 23.0515C59.2717 23.0515 58.7634 23.0515 58.2278 23.0515C58.2278 23.3384 58.2278 23.5687 58.2278 23.8597C58.7822 23.8597 59.3489 23.8597 59.946 23.8597C59.946 24.0868 59.946 24.2545 59.946 24.4528C59.144 24.4528 58.3399 24.4528 57.5098 24.4528C57.5098 23.3791 57.5098 22.3208 57.5098 21.2305C58.2998 21.2305 59.0889 21.2305 59.9106 21.2305C59.9106 21.401 59.9106 21.5699 59.9106 21.7936C59.3538 21.7936 58.8016 21.7936 58.2139 21.7936Z" fill="#58595B"/>
<path d="M92.1076 21.2266C92.1076 21.4409 92.1076 21.5864 92.1076 21.7908C91.5423 21.7908 90.9903 21.7908 90.4152 21.7908C90.4152 22.0501 90.4152 22.2507 90.4152 22.5104C90.9273 22.5104 91.4361 22.5104 91.9638 22.5104C91.9638 22.7113 91.9638 22.8537 91.9638 23.0571C91.4547 23.0571 90.9465 23.0571 90.4149 23.0571C90.4149 23.3476 90.4149 23.5782 90.4149 23.8676C90.9817 23.8676 91.5495 23.8676 92.1427 23.8676C92.1427 24.0941 92.1427 24.2622 92.1427 24.4566C91.3384 24.4566 90.5448 24.4566 89.7129 24.4566C89.7129 23.3909 89.7129 22.3222 89.7129 21.2266C90.5061 21.2266 91.2957 21.2266 92.1076 21.2266Z" fill="#58595B"/>
<path d="M92.9287 23.4343C93.2899 23.3785 93.5649 23.3395 93.7463 23.7517C93.8865 24.0706 94.5459 24.106 94.8294 23.8794C95.0595 23.6957 95.0344 23.4063 94.7415 23.2791C94.4593 23.1565 94.149 23.0992 93.8526 23.0083C93.25 22.8233 93.0139 22.546 93.038 22.0585C93.0616 21.5816 93.3887 21.2617 93.9706 21.1467C94.8227 20.9782 95.4952 21.3933 95.5402 22.1343C95.2235 22.1852 94.9639 22.2303 94.717 21.876C94.6101 21.7227 94.1891 21.7706 93.9106 21.7687C93.8509 21.7683 93.7328 21.9549 93.7442 22.0419C93.7582 22.1491 93.8595 22.2937 93.9582 22.3319C94.2464 22.4435 94.5525 22.5088 94.8508 22.595C95.4364 22.7642 95.6803 23.0471 95.6721 23.5433C95.6638 24.0408 95.3639 24.3758 94.8018 24.5155C93.8162 24.7605 93.0219 24.3126 92.9287 23.4343Z" fill="#58595B"/>
<path d="M63.7755 22.2708C63.4769 22.301 63.2177 22.3827 62.9866 22.0267C62.6707 21.54 61.9413 21.6348 61.6686 22.1654C61.4469 22.5964 61.4396 23.0486 61.6504 23.4898C61.8059 23.8154 62.0743 23.9674 62.4381 23.9546C62.7764 23.9428 62.9842 23.7648 63.1001 23.4591C63.1259 23.3911 63.1562 23.3247 63.1875 23.2502C63.3982 23.2502 63.6002 23.2502 63.8025 23.2502C63.777 24.0603 63.218 24.5709 62.3845 24.5639C61.4587 24.5561 60.8117 23.8837 60.7887 22.9055C60.7651 21.8983 61.3756 21.1789 62.3062 21.1173C63.0963 21.0649 63.7064 21.5345 63.7755 22.2708Z" fill="#58595B"/>
<path d="M92.9066 16.7246C92.5841 16.7657 92.3152 16.8115 92.0727 16.4511C91.7852 16.0236 91.1012 16.1097 90.8312 16.568C90.557 17.0337 90.5201 17.5558 90.8201 17.9979C90.9663 18.2133 91.3099 18.3758 91.5815 18.4061C91.9992 18.4525 92.1812 18.1008 92.2968 17.7271C92.5133 17.7271 92.7293 17.7271 92.9482 17.7271C92.8445 18.5888 92.2708 19.076 91.4379 19.0327C90.5323 18.9856 89.932 18.3154 89.923 17.3414C89.9138 16.3519 90.4931 15.6529 91.3734 15.5914C92.2199 15.5323 92.8021 15.9566 92.9066 16.7246Z" fill="#58595B"/>
<path d="M75.842 16.7131C75.4792 16.7881 75.2211 16.7686 74.9844 16.4317C74.7096 16.0408 74.0883 16.1155 73.7902 16.5074C73.4991 16.8901 73.485 17.6683 73.7618 18.065C74.0932 18.5399 74.7794 18.5503 75.074 18.0849C75.3383 17.6674 75.3382 17.6674 75.8526 17.7378C75.8271 18.5029 75.2767 19.019 74.4745 19.0301C73.5747 19.0426 72.927 18.4271 72.8559 17.4919C72.7792 16.4833 73.3187 15.7178 74.1911 15.5978C75.0504 15.4795 75.689 15.9013 75.842 16.7131Z" fill="#58595B"/>
<path d="M56.5823 15.6985C56.218 16.7961 55.865 17.8596 55.5166 18.9095C55.467 18.9278 55.4398 18.9456 55.4119 18.9471C54.6978 18.9836 54.6974 18.9834 54.4768 18.3017C54.2 17.4467 53.9238 16.5915 53.6465 15.7335C54.3363 15.5838 54.3428 15.588 54.54 16.2131C54.7119 16.7574 54.8854 17.3013 55.1465 17.8465C55.3202 17.3097 55.494 16.773 55.6677 16.2362C55.8621 15.6348 55.8621 15.6348 56.5823 15.6985Z" fill="#58595B"/>
<path d="M71.2729 15.7123C70.774 16.7611 69.779 17.5831 70.1534 18.9206C69.8675 18.9206 69.6578 18.9206 69.3569 18.9206C69.7112 17.609 68.7445 16.7643 68.2334 15.7465C68.8595 15.5674 68.9457 15.6009 69.2569 16.1247C69.4072 16.3777 69.5606 16.629 69.7523 16.947C69.9183 16.6727 70.0961 16.4535 70.1932 16.203C70.3908 15.693 70.739 15.5629 71.2729 15.7123Z" fill="#58595B"/>
<path d="M59.9463 18.9319C59.9463 17.8537 59.9463 16.7964 59.9463 15.7031C60.1607 15.7031 60.3726 15.7031 60.6386 15.7031C60.6386 16.5605 60.6386 17.4243 60.6386 18.3265C61.1871 18.3265 61.6839 18.3265 62.2185 18.3265C62.2185 18.5465 62.2185 18.727 62.2185 18.9319C61.462 18.9319 60.7177 18.9319 59.9463 18.9319Z" fill="#58595B"/>
<path d="M55.6417 21.7902C55.6417 22.7151 55.6417 23.5667 55.6417 24.4475C55.3907 24.4475 55.1801 24.4475 54.9339 24.4475C54.9339 23.5757 54.9339 22.7233 54.9339 21.8185C54.6001 21.8185 54.2994 21.8185 53.9678 21.8185C53.9678 21.5973 53.9678 21.4281 53.9678 21.2266C54.8337 21.2266 55.71 21.2266 56.6056 21.2266C56.6056 21.4134 56.6056 21.5828 56.6056 21.7902C56.2893 21.7902 55.9982 21.7902 55.6417 21.7902Z" fill="#58595B"/>
<path d="M78.9239 23.8773C78.9239 24.1142 78.9239 24.2713 78.9239 24.4527C78.1583 24.4527 77.4143 24.4527 76.6475 24.4527C76.6475 23.3695 76.6475 22.3131 76.6475 21.2266C76.8594 21.2266 77.0592 21.2266 77.3306 21.2266C77.3306 22.0835 77.3306 22.9581 77.3306 23.8773C77.8958 23.8773 78.3918 23.8773 78.9239 23.8773Z" fill="#58595B"/>
<path d="M62.7266 18.9232C62.7266 17.8366 62.7266 16.7875 62.7266 15.7031C62.9523 15.7031 63.1641 15.7031 63.4294 15.7031C63.4294 16.569 63.4294 17.4343 63.4294 18.3398C63.9779 18.3398 64.4755 18.3398 65.003 18.3398C65.003 18.5506 65.003 18.7203 65.003 18.9233C64.2651 18.9232 63.5195 18.9232 62.7266 18.9232Z" fill="#58595B"/>
<path d="M88.52 24.4556C88.287 24.4556 88.0862 24.4556 87.8613 24.4556C87.8613 23.3728 87.8613 22.3142 87.8613 21.2266C88.0755 21.2266 88.2756 21.2266 88.52 21.2266C88.52 22.2826 88.52 23.3508 88.52 24.4556Z" fill="#58595B"/>
<path d="M77.9353 15.586C76.9626 15.5823 76.3151 16.2675 76.3096 17.306C76.3042 18.3292 76.9707 19.0364 77.9347 19.0305C78.8804 19.0247 79.5345 18.3304 79.5382 17.3287C79.5421 16.2876 78.8999 15.5895 77.9353 15.586ZM77.9146 18.4259C77.3734 18.4215 77.036 17.9976 76.9948 17.3087C77.0552 17.0838 77.0544 16.8062 77.1913 16.6471C77.3655 16.4448 77.6378 16.247 77.8916 16.2098C78.4427 16.1292 78.8175 16.6048 78.8271 17.2936C78.8365 17.9694 78.465 18.4302 77.9146 18.4259Z" fill="#58595B"/>
<path d="M81.3249 21.1174C80.3797 21.1051 79.7235 21.7814 79.6971 22.7953C79.6701 23.8351 80.3017 24.5495 81.264 24.5676C82.2242 24.5855 82.8945 23.9199 82.9206 22.9227C82.9482 21.8699 82.2941 21.1299 81.3249 21.1174ZM81.9579 23.6624C81.7094 23.9647 81.2673 24.0595 80.9154 23.874C80.5082 23.6594 80.4239 23.2773 80.4114 22.8585C80.4214 22.4319 80.5025 22.0328 80.9285 21.8126C81.2858 21.6279 81.7229 21.7312 81.9651 22.041C82.2892 22.4554 82.2855 23.2637 81.9579 23.6624Z" fill="#58595B"/>
<path d="M74.0601 21.1172C73.1069 21.1125 72.4385 21.8261 72.4356 22.852C72.4326 23.8592 73.0751 24.5536 74.0228 24.5676C74.9962 24.5821 75.6614 23.8943 75.6675 22.8668C75.6736 21.8387 75.0151 21.122 74.0601 21.1172ZM74.4708 23.8605C74.0334 24.1122 73.4503 23.9416 73.2931 23.4589C73.1892 23.14 73.176 22.7637 73.2271 22.4292C73.2977 21.9664 73.6426 21.7215 74.0588 21.7247C74.4868 21.7279 74.8117 22.0118 74.9102 22.4797C74.9374 22.6086 74.9396 22.7429 74.9474 22.8186C74.9365 23.276 74.8482 23.6435 74.4708 23.8605Z" fill="#58595B"/>
<path d="M58.3998 15.829C58.3609 15.732 58.1116 15.6811 57.9593 15.6797C57.825 15.6785 57.6058 15.7425 57.568 15.8359C57.1599 16.8459 56.7802 17.8674 56.3594 18.9734C56.7285 18.9022 57.1128 19.1387 57.1994 18.6518C57.2657 18.2794 57.4771 18.1749 57.8246 18.2198C57.9991 18.2423 58.1855 18.1954 58.354 18.2344C58.4701 18.2614 58.6374 18.3673 58.6565 18.4629C58.7635 18.9985 59.0911 19.0376 59.5671 18.9037C59.1783 17.8642 58.806 16.8398 58.3998 15.829ZM57.5541 17.658C57.6887 17.2792 57.8099 16.9378 57.9792 16.461C58.1398 16.9308 58.2572 17.2739 58.3885 17.658C58.0949 17.658 57.8539 17.658 57.5541 17.658Z" fill="#58595B"/>
</svg>
