<svg width="33" height="33" viewBox="0 0 33 33" fill="none" xmlns="http://www.w3.org/2000/svg">
<path d="M31.8 16.1C31.8 24.7709 24.7709 31.8 16.1 31.8C7.42913 31.8 0.4 24.7709 0.4 16.1C0.4 7.42913 7.42913 0.4 16.1 0.4C24.7709 0.4 31.8 7.42913 31.8 16.1Z" stroke="#A6A6A6" stroke-width="0.8"/>
<path fill-rule="evenodd" clip-rule="evenodd" d="M9.48056 11.816H12.4076V22.017H9.48056V11.816ZM10.8696 10.54H10.8486C9.78856 10.54 9.10156 9.76 9.10156 8.772C9.10156 7.764 9.80856 7 10.8896 7C11.9696 7 12.6336 7.763 12.6546 8.77C12.6546 9.757 11.9696 10.54 10.8696 10.54V10.54ZM24.1196 22.018H20.8016V16.738C20.8016 15.356 20.2816 14.414 19.1406 14.414C18.2676 14.414 17.7816 15.05 17.5556 15.664C17.4706 15.884 17.4846 16.19 17.4846 16.498V22.018H14.1956C14.1956 22.018 14.2386 12.666 14.1956 11.816H17.4846V13.416C17.6786 12.716 18.7296 11.718 20.4056 11.718C22.4856 11.718 24.1206 13.186 24.1206 16.345V22.018H24.1196Z" fill="#A6A6A6"/>
</svg>
