<svg width="129" height="19" viewBox="0 0 129 19" fill="none" xmlns="http://www.w3.org/2000/svg">
<path d="M18.2506 3.34907H15.3125C14.1253 3.34907 13.235 3.80908 12.6415 4.72909C12.0479 5.6491 11.7511 6.93036 11.7511 8.57238V18.01H8.8208V1.00456H11.3356L11.6028 3.88329C11.8402 2.97348 12.2705 2.26581 12.8938 1.76133C13.5171 1.25677 14.2738 1.00456 15.1641 1.00456L18.6769 0.99707L18.2506 3.34907Z" fill="#2D2D2D"/>
<path d="M35.3715 15.611H38.3246V3.38873H35.3715L35.373 0.997192H41.2507L41.2492 18.0026H35.3715V15.611Z" fill="#2D2D2D"/>
<path d="M5.87924 3.38861H2.92607V15.6109H5.87924L5.87773 18.0025H0L0.00151449 0.99707H5.87924V3.38861Z" fill="#2D2D2D"/>
<path d="M54.4231 2.0997C55.734 2.83502 56.7495 3.8467 57.4696 5.13481C58.1893 6.42324 58.5495 7.87078 58.5495 9.47709C58.5495 11.099 58.1892 12.5576 57.4696 13.8535C56.7495 15.1493 55.734 16.1649 54.4231 16.8999C53.112 17.6352 51.5927 18.0025 49.8649 18.0025H44.1813V0.99707H49.8649C51.5927 0.99707 53.112 1.36469 54.4231 2.0997ZM47.114 15.6153H49.8649C51.6531 15.6153 53.0591 15.0697 54.0821 13.9785C55.1052 12.8872 55.6168 11.3867 55.6168 9.47701C55.6168 7.56732 55.1053 6.07467 54.0821 4.99835C53.0591 3.92242 51.6531 3.38422 49.8649 3.38422H47.114V15.6153Z" fill="#2D2D2D"/>
<path d="M80.8939 17.2574C79.9099 16.7655 79.0986 16.0827 78.4598 15.2088C77.821 14.3353 77.4207 13.3475 77.2593 12.2461L80.1009 11.8936C80.3063 12.9658 80.7872 13.8321 81.5436 14.4928C82.2998 15.1536 83.2212 15.4841 84.3081 15.4841C85.1892 15.4841 85.9306 15.2604 86.5329 14.8122C87.1349 14.3644 87.436 13.7955 87.436 13.1051C87.436 12.5471 87.2598 12.0994 86.9074 11.7614C86.555 11.4238 86.1144 11.1667 85.5858 10.9905C85.0571 10.8142 84.3447 10.6308 83.4491 10.4398C82.2596 10.1754 81.2865 9.90387 80.5304 9.62473C79.7739 9.34598 79.1316 8.88334 78.6029 8.23698C78.0743 7.59093 77.81 6.70981 77.81 5.59364C77.81 4.6981 78.0667 3.90132 78.5809 3.20361C79.0948 2.50631 79.8179 1.96285 80.7506 1.57355C81.683 1.1848 82.7442 0.98999 83.9336 0.98999C85.0495 0.98999 86.0666 1.21031 86.9844 1.65079C87.9021 2.09134 88.6619 2.69714 89.2643 3.46809C89.8663 4.23905 90.2555 5.09465 90.4318 6.03435L87.5462 6.34275C87.3111 5.44713 86.8523 4.73851 86.1694 4.21705C85.4865 3.69598 84.6529 3.43509 83.6693 3.43509C82.7441 3.43509 82.0096 3.61508 81.4665 3.97481C80.923 4.33478 80.6515 4.82284 80.6515 5.43964C80.6515 5.90985 80.8091 6.2915 81.125 6.58507C81.4407 6.87904 81.841 7.10271 82.3256 7.25694C82.8102 7.4111 83.4782 7.57634 84.33 7.75258C85.5635 8.0169 86.5768 8.29604 87.3698 8.58961C88.1628 8.88358 88.8419 9.37539 89.4074 10.0655C89.9725 10.756 90.2554 11.7103 90.2554 12.9291C90.2554 13.9131 89.9984 14.7905 89.4845 15.5614C88.9703 16.3324 88.2471 16.9309 87.3148 17.3567C86.3821 17.7825 85.3136 17.9955 84.1097 17.9955C82.9496 17.9954 81.8775 17.7493 80.8939 17.2574Z" fill="#2D2D2D"/>
<path d="M92.551 17.9954V0.98999H95.3928V17.9954H92.551Z" fill="#2D2D2D"/>
<path d="M112.279 13.9974C111.721 15.2825 110.869 16.27 109.724 16.9601C108.579 17.6506 107.198 17.9954 105.583 17.9954C104.026 17.9954 102.631 17.6285 101.397 16.894C100.164 16.1599 99.1947 15.1466 98.4898 13.8542C97.785 12.5621 97.4325 11.1007 97.4325 9.47065C97.4325 7.84058 97.7811 6.38332 98.4788 5.09816C99.1761 3.81332 100.142 2.8073 101.375 2.08034C102.609 1.35347 104.004 0.98999 105.561 0.98999C106.706 0.98999 107.767 1.21788 108.744 1.67287C109.72 2.12825 110.539 2.77079 111.2 3.60025C111.861 4.43011 112.294 5.39548 112.5 6.49691L109.702 7.02555C109.467 5.98302 108.96 5.13873 108.182 4.49236C107.404 3.84632 106.471 3.52309 105.385 3.52309C104.415 3.52309 103.541 3.77641 102.763 4.28305C101.985 4.78968 101.376 5.49456 100.935 6.39775C100.494 7.30086 100.274 8.32514 100.274 9.47057C100.274 10.6308 100.498 11.6624 100.946 12.5655C101.394 13.4687 102.022 14.1735 102.829 14.6802C103.637 15.1868 104.555 15.4401 105.583 15.4401C106.831 15.4401 107.844 15.1172 108.623 14.4708C109.401 13.8248 109.878 12.9289 110.054 11.7834H106.618V9.47049H113.028C113.087 11.2036 112.837 12.7125 112.279 13.9974Z" fill="#2D2D2D"/>
<path d="M129 17.9954H125.18L118.769 6.10521L118.064 4.55932V17.9954H115.132V0.98999H118.906L125.203 12.6527L126.044 14.4261V0.98999H129V17.9954H129Z" fill="#2D2D2D"/>
<path d="M75.9321 9.16348C75.9321 4.04889 73.093 0.995361 68.3377 0.995361C63.5307 0.995361 60.4246 4.3266 60.4246 9.48215C60.4246 11.9622 61.1334 14.073 62.4743 15.5866C63.8737 17.166 65.9012 18.0008 68.3377 18.0008C70.3391 18.0008 72.0086 17.4814 73.2997 16.4569C74.417 15.5702 75.2359 14.2917 75.6725 12.7547H72.7586C72.5146 13.5127 71.5386 15.6866 68.4015 15.6866C66.8668 15.6866 65.5835 15.1239 64.6904 14.0592C63.8972 13.1137 63.4419 11.7948 63.4081 10.3455L63.4055 10.2252H75.9115C75.9321 9.96336 75.9321 9.55724 75.9321 9.16348ZM72.8849 8.00625H63.3995L63.4083 7.88038C63.6036 5.14641 65.5462 3.30958 68.242 3.30958C69.6132 3.30958 70.7841 3.76249 71.6282 4.61937C72.4385 5.44222 72.8849 6.60319 72.8849 7.88867V8.00625Z" fill="#2D2D2D"/>
<path d="M34.3662 9.16518C34.3662 4.0506 31.5271 0.99707 26.7718 0.99707C21.9648 0.99707 18.8586 4.32831 18.8586 9.48386C18.8586 11.9639 19.5675 14.0748 20.9084 15.5883C22.3078 17.1677 24.3353 18.0025 26.7718 18.0025C28.7732 18.0025 30.4427 17.4831 31.7338 16.4586C32.8511 15.5719 33.67 14.2934 34.1066 12.7564H31.1927C30.9486 13.5144 29.9727 15.6883 26.8356 15.6883C25.3009 15.6883 24.0176 15.1256 23.1245 14.0609C22.3313 13.1154 21.876 11.7965 21.8422 10.3472L21.8396 10.2269H34.3456C34.3662 9.96507 34.3662 9.55895 34.3662 9.16518ZM31.3191 8.00788H21.8335L21.8423 7.88201C22.0376 5.14796 23.9802 3.31113 26.6761 3.31113C28.0474 3.31113 29.2183 3.76404 30.0623 4.62092C30.8727 5.44377 31.319 6.60482 31.319 7.8903V8.00788H31.3191Z" fill="#2D2D2D"/>
</svg>
