<svg width="183" height="16" viewBox="0 0 183 16" fill="none" xmlns="http://www.w3.org/2000/svg">
<path d="M16.4699 2.2492H13.8184C12.7471 2.2492 11.9436 2.67929 11.4079 3.53947C10.8722 4.39965 10.6044 5.59758 10.6044 7.13281V15.9566H7.95996V0.0571763H10.2295L10.4706 2.74868C10.6848 1.89804 11.0731 1.2364 11.6357 0.764725C12.1981 0.292976 12.8811 0.0571763 13.6845 0.0571763L16.8547 0.0501709L16.4699 2.2492Z" fill="#2D2D2D"/>
<path d="M31.9209 13.7133H34.586V2.28592H31.9209L31.9223 0.0499268H37.2267L37.2253 15.9493H31.9209V13.7133Z" fill="#2D2D2D"/>
<path d="M5.30576 2.2858H2.64065V13.7132H5.30576L5.30439 15.9492H0L0.00136676 0.0498047H5.30576V2.2858Z" fill="#2D2D2D"/>
<path d="M49.1139 1.08109C50.2969 1.76859 51.2134 2.71447 51.8632 3.91881C52.5127 5.12344 52.8378 6.47683 52.8378 7.97868C52.8378 9.49513 52.5126 10.8589 51.8632 12.0704C51.2134 13.282 50.2969 14.2315 49.1139 14.9187C47.9307 15.6062 46.5596 15.9497 45.0003 15.9497H39.8711V0.0501709H45.0003C46.5596 0.0501709 47.9307 0.393884 49.1139 1.08109ZM42.5178 13.7177H45.0003C46.6141 13.7177 47.883 13.2076 48.8062 12.1873C49.7295 11.167 50.1911 9.76409 50.1911 7.9786C50.1911 6.19311 49.7295 4.79754 48.8062 3.79122C47.883 2.78527 46.6141 2.28207 45.0003 2.28207H42.5178V13.7177Z" fill="#2D2D2D"/>
<path d="M73.0027 15.2529C72.1147 14.793 71.3825 14.1546 70.8061 13.3375C70.2296 12.5208 69.8683 11.5973 69.7227 10.5675L72.2871 10.2379C72.4725 11.2404 72.9064 12.0503 73.5891 12.6681C74.2715 13.286 75.103 13.5949 76.0839 13.5949C76.8791 13.5949 77.5481 13.3857 78.0917 12.9668C78.6349 12.5481 78.9067 12.0162 78.9067 11.3706C78.9067 10.849 78.7476 10.4303 78.4296 10.1144C78.1116 9.79867 77.714 9.55832 77.237 9.39354C76.7599 9.22877 76.1169 9.05728 75.3087 8.87864C74.2352 8.63152 73.3571 8.37761 72.6747 8.11662C71.992 7.856 71.4123 7.42345 70.9353 6.81912C70.4582 6.21509 70.2197 5.39128 70.2197 4.3477C70.2197 3.5104 70.4514 2.76544 70.9154 2.11311C71.3791 1.46116 72.0317 0.953045 72.8735 0.589061C73.7149 0.225598 74.6726 0.043457 75.746 0.043457C76.753 0.043457 77.6709 0.249446 78.4992 0.661276C79.3273 1.07318 80.0131 1.63958 80.5567 2.36039C81.0999 3.0812 81.4512 3.88117 81.6103 4.75975L79.0061 5.04809C78.794 4.21072 78.3799 3.54818 77.7637 3.06064C77.1474 2.57346 76.3951 2.32954 75.5074 2.32954C74.6725 2.32954 74.0096 2.49782 73.5195 2.83415C73.029 3.17071 72.784 3.62703 72.784 4.20371C72.784 4.64334 72.9262 5.00017 73.2113 5.27465C73.4962 5.5495 73.8575 5.75862 74.2948 5.90283C74.7321 6.04696 75.3349 6.20145 76.1037 6.36623C77.2169 6.61336 78.1313 6.87435 78.847 7.14883C79.5626 7.42368 80.1755 7.8835 80.6858 8.52875C81.1958 9.17429 81.4511 10.0666 81.4511 11.2061C81.4511 12.1261 81.2191 12.9464 80.7554 13.6672C80.2913 14.388 79.6387 14.9477 78.7973 15.3458C77.9556 15.7438 76.9914 15.943 75.9049 15.943C74.8579 15.9429 73.8904 15.7128 73.0027 15.2529Z" fill="#2D2D2D"/>
<path d="M83.5234 15.9429V0.043457H86.088V15.9429H83.5234Z" fill="#2D2D2D"/>
<path d="M101.327 12.2049C100.823 13.4065 100.055 14.3297 99.0213 14.9749C97.9876 15.6205 96.7416 15.9429 95.284 15.9429C93.8791 15.9429 92.6202 15.5998 91.507 14.9131C90.3938 14.2268 89.519 13.2794 88.8829 12.071C88.2468 10.863 87.9287 9.49661 87.9287 7.97256C87.9287 6.4485 88.2433 5.08602 88.873 3.88444C89.5023 2.68316 90.3738 1.74257 91.4871 1.0629C92.6003 0.383295 93.8592 0.043457 95.2642 0.043457C96.2979 0.043457 97.2552 0.256526 98.1367 0.68192C99.0179 1.10769 99.7568 1.70844 100.353 2.48395C100.95 3.25984 101.34 4.16243 101.526 5.19222L99.0014 5.68648C98.7893 4.71176 98.332 3.92238 97.6298 3.31805C96.9272 2.71402 96.0857 2.41181 95.1051 2.41181C94.2304 2.41181 93.4418 2.64866 92.7395 3.12234C92.0369 3.59603 91.4871 4.25506 91.0895 5.09951C90.6919 5.94389 90.4932 6.90155 90.4932 7.97248C90.4932 9.05728 90.695 10.0217 91.0994 10.8661C91.5036 11.7106 92.0701 12.3695 92.7991 12.8433C93.5279 13.317 94.3562 13.5538 95.284 13.5538C96.4103 13.5538 97.3247 13.2519 98.0273 12.6476C98.7296 12.0435 99.1604 11.2059 99.3194 10.1349H96.2182V7.97241H102.003C102.056 9.59282 101.831 11.0036 101.327 12.2049Z" fill="#2D2D2D"/>
<path d="M116.417 15.9429H112.97L107.184 4.826L106.548 3.38065V15.9429H103.901V0.043457H107.307L112.99 10.9477L113.749 12.6057V0.043457H116.417V15.9429H116.417Z" fill="#2D2D2D"/>
<path d="M68.5252 7.68559C68.5252 2.90364 65.963 0.0487061 61.6715 0.0487061C57.3334 0.0487061 54.5303 3.16329 54.5303 7.98355C54.5303 10.3023 55.17 12.2759 56.3801 13.691C57.643 15.1676 59.4727 15.9482 61.6715 15.9482C63.4777 15.9482 64.9844 15.4625 66.1495 14.5046C67.1578 13.6757 67.8969 12.4803 68.2909 11.0433H65.6612C65.441 11.7519 64.5602 13.7845 61.7291 13.7845C60.3441 13.7845 59.186 13.2583 58.38 12.2629C57.6642 11.3789 57.2533 10.1458 57.2228 8.79073L57.2204 8.67828H68.5065C68.5252 8.43346 68.5252 8.05375 68.5252 7.68559ZM65.7752 6.60363H57.215L57.223 6.48595C57.3992 3.92979 59.1524 2.21241 61.5852 2.21241C62.8226 2.21241 63.8793 2.63587 64.6411 3.43702C65.3723 4.20635 65.7752 5.29182 65.7752 6.4937V6.60363Z" fill="#2D2D2D"/>
<path d="M31.0144 7.68706C31.0144 2.90511 28.4523 0.0501709 24.1608 0.0501709C19.8227 0.0501709 17.0195 3.16475 17.0195 7.98501C17.0195 10.3037 17.6592 12.2773 18.8693 13.6924C20.1322 15.1691 21.9619 15.9497 24.1608 15.9497C25.967 15.9497 27.4737 15.464 28.6388 14.5061C29.6471 13.6771 30.3861 12.4817 30.7801 11.0447H28.1505C27.9302 11.7534 27.0495 13.786 24.2184 13.786C22.8334 13.786 21.6753 13.2598 20.8693 12.2644C20.1534 11.3803 19.7425 10.1472 19.712 8.7922L19.7097 8.67974H30.9958C31.0144 8.43492 31.0144 8.05521 31.0144 7.68706ZM28.2645 6.60502H19.7042L19.7122 6.48734C19.8884 3.9311 21.6416 2.21373 24.0745 2.21373C25.3119 2.21373 26.3687 2.63719 27.1303 3.43834C27.8617 4.20767 28.2644 5.29321 28.2644 6.49509V6.60502H28.2645Z" fill="#2D2D2D"/>
<path d="M141.369 2.24249H138.718C137.646 2.24249 136.843 2.67258 136.307 3.53276C135.772 4.39293 135.504 5.59086 135.504 7.12609V15.9499H132.859V0.0504625H135.129L135.37 2.74196C135.584 1.89132 135.973 1.22968 136.535 0.758011C137.098 0.286262 137.781 0.0504625 138.584 0.0504625L141.754 0.043457L141.369 2.24249Z" fill="#436AF3"/>
<path d="M125.941 2.39553V15.955H123.364V2.39553H118.332V0.043457H130.972V2.39553H125.941Z" fill="#436AF3"/>
<path d="M177.969 2.39553V15.955H175.392V2.39553H170.36V0.043457H183V2.39553H177.969Z" fill="#436AF3"/>
<path d="M148.766 15.9561C147.703 15.9561 146.776 15.723 145.985 15.2568C145.207 14.7765 144.608 14.1055 144.185 13.2438C143.762 12.368 143.551 11.3438 143.551 10.1713V0.043457H146.107V10.1713C146.107 11.2449 146.387 12.0854 146.946 12.6929C147.519 13.3003 148.296 13.604 149.278 13.604H149.953C150.934 13.604 151.705 13.3003 152.264 12.6929C152.836 12.0854 153.123 11.2449 153.123 10.1713L153.123 0.043457H155.7L155.7 10.1713C155.7 11.3297 155.489 12.3468 155.066 13.2226C154.643 14.0985 154.036 14.7765 153.246 15.2568C152.455 15.723 151.527 15.9561 150.464 15.9561H148.766Z" fill="#436AF3"/>
<path d="M160.866 15.2529C159.978 14.793 159.246 14.1546 158.669 13.3375C158.093 12.5208 157.732 11.5973 157.586 10.5675L160.15 10.2379C160.336 11.2404 160.77 12.0503 161.452 12.6681C162.135 13.286 162.966 13.5949 163.947 13.5949C164.742 13.5949 165.411 13.3857 165.955 12.9668C166.498 12.5481 166.77 12.0162 166.77 11.3706C166.77 10.849 166.611 10.4303 166.293 10.1144C165.975 9.79867 165.577 9.55832 165.1 9.39354C164.623 9.22877 163.98 9.05728 163.172 8.87864C162.098 8.63152 161.22 8.37761 160.538 8.11662C159.855 7.856 159.276 7.42345 158.799 6.81912C158.321 6.21509 158.083 5.39128 158.083 4.3477C158.083 3.5104 158.315 2.76544 158.779 2.11311C159.242 1.46116 159.895 0.953045 160.737 0.589061C161.578 0.225598 162.536 0.043457 163.609 0.043457C164.616 0.043457 165.534 0.249446 166.362 0.661276C167.191 1.07318 167.876 1.63958 168.42 2.36039C168.963 3.0812 169.314 3.88117 169.474 4.75975L166.869 5.04809C166.657 4.21072 166.243 3.54818 165.627 3.06064C165.011 2.57346 164.258 2.32954 163.371 2.32954C162.536 2.32954 161.873 2.49782 161.383 2.83415C160.892 3.17071 160.647 3.62703 160.647 4.20371C160.647 4.64334 160.789 5.00017 161.075 5.27465C161.359 5.5495 161.721 5.75862 162.158 5.90283C162.595 6.04696 163.198 6.20145 163.967 6.36623C165.08 6.61336 165.995 6.87435 166.71 7.14883C167.426 7.42368 168.039 7.8835 168.549 8.52875C169.059 9.17429 169.314 10.0666 169.314 11.2061C169.314 12.1261 169.082 12.9464 168.619 13.6672C168.155 14.388 167.502 14.9477 166.661 15.3458C165.819 15.7438 164.855 15.943 163.768 15.943C162.721 15.9429 161.754 15.7128 160.866 15.2529Z" fill="#436AF3"/>
</svg>
