<svg width="117" height="15" viewBox="0 0 117 15" fill="none" xmlns="http://www.w3.org/2000/svg">
<path d="M0.204102 13.5562L0.903571 12.8566C1.07417 12.686 1.15947 12.4927 1.15947 12.2767V1.23828H1.33008L9.68984 8.77916V3.23441C9.68984 3.01826 9.60454 2.82488 9.43394 2.65437L8.73447 1.9549V1.78429H13.1532V1.9549L12.4538 2.65437C12.2832 2.82497 12.1979 3.01835 12.1979 3.23441V14.1874H12.0273L3.66741 6.62948V12.2766C3.66741 12.4927 3.75271 12.686 3.92332 12.8566L4.62279 13.5561V13.7267H0.204102V13.5562Z" fill="#58595B"/>
<path d="M14.3809 13.5561L15.0803 12.8565C15.2509 12.6859 15.3362 12.4926 15.3362 12.2766V3.2343C15.3362 3.01814 15.2509 2.82477 15.0803 2.65425L14.3809 1.95478V1.78418H21.4269C22.6553 1.78418 23.5965 2.06286 24.2504 2.62013C24.9045 3.1774 25.2315 3.91671 25.2315 4.83805C25.2315 6.22564 24.515 7.09571 23.0818 7.44835V7.48247C24.8448 7.78964 25.7263 8.76198 25.7263 10.3999C25.7263 11.4917 25.3424 12.3192 24.5746 12.8822C23.8069 13.4451 22.7349 13.7267 21.3587 13.7267H14.3809V13.5561ZM21.0857 6.50995C22.0525 6.50995 22.5359 6.08907 22.5359 5.2474C22.5359 4.8493 22.4136 4.53088 22.1691 4.29203C21.9245 4.05319 21.5634 3.93377 21.0857 3.93377H18.066V6.50995H21.0857ZM21.0346 11.5429C22.3198 11.5429 22.9625 11.0367 22.9625 10.0244C22.9625 9.06915 22.3198 8.59138 21.0346 8.59138H18.066V11.5429H21.0346Z" fill="#58595B"/>
<path d="M29.0009 12.2863C27.8181 11.1659 27.2267 9.6675 27.2267 7.79088C27.2267 5.90274 27.8238 4.39572 29.0181 3.26975C30.2124 2.14377 31.725 1.5807 33.5563 1.5807C33.9657 1.5807 34.4662 1.61768 35.0576 1.69163C35.6491 1.76559 36.0187 1.80248 36.1665 1.80248C36.5987 1.80248 36.9968 1.66028 37.3608 1.37598L37.5314 1.44422L36.5078 5.48766L36.3201 5.43648C36.1951 5.00426 35.9135 4.62894 35.4757 4.31051C35.0378 3.99208 34.4548 3.83282 33.727 3.83282C32.6919 3.83282 31.8361 4.19394 31.1594 4.91619C30.4827 5.63843 30.1442 6.60238 30.1442 7.80803C30.1442 8.97955 30.4627 9.92644 31.0996 10.6487C31.7366 11.3709 32.5725 11.732 33.6076 11.732C34.8132 11.732 35.7629 11.2601 36.4567 10.316L38.0604 12.1756C36.9458 13.3698 35.4275 13.9671 33.5052 13.9671C31.6852 13.9669 30.1838 13.4067 29.0009 12.2863Z" fill="#58595B"/>
<path d="M41.4044 12.703C40.4718 11.8612 40.0054 10.6386 40.0054 9.03495V3.2343C40.0054 3.01814 39.9201 2.82477 39.7495 2.65425L39.05 1.95478V1.78418H43.6565V1.95478L42.9569 2.65425C42.7863 2.82485 42.701 3.01823 42.701 3.2343V9.10319C42.701 9.96754 42.9115 10.6159 43.3323 11.0481C43.7531 11.4804 44.356 11.6963 45.1407 11.6963C45.9141 11.6963 46.5084 11.4775 46.9236 11.0396C47.3387 10.6016 47.5463 9.9562 47.5463 9.10319V3.2343C47.5463 3.01814 47.461 2.82477 47.2904 2.65425L46.5908 1.95478V1.78418H51.2314V1.95478L50.5319 2.65425C50.3613 2.82485 50.276 3.01823 50.276 3.2343V9.03495C50.276 10.6387 49.8068 11.8613 48.8685 12.703C47.9302 13.5446 46.6876 13.9655 45.1407 13.9655C43.5825 13.9656 42.3371 13.5446 41.4044 12.703Z" fill="#58595B"/>
<path d="M52.476 13.5569L53.1755 12.8573C53.3461 12.6867 53.4314 12.4252 53.4314 12.0725V7.19315C53.4314 6.8406 53.3461 6.57898 53.1755 6.40838L52.476 5.70891V5.53831H55.9223V7.00549C56.1156 6.53914 56.4711 6.15248 56.9886 5.84539C57.5061 5.53831 58.0662 5.38477 58.6691 5.38477C59.5562 5.38477 60.2443 5.66907 60.7334 6.23778C61.2226 6.80648 61.467 7.60268 61.467 8.62629V12.0726C61.467 12.4252 61.5523 12.6868 61.7229 12.8574L62.4225 13.557V13.7276H58.9079V9.18928C58.9079 8.70016 58.7942 8.31064 58.5667 8.02061C58.3393 7.73059 58.0037 7.58553 57.5602 7.58553C57.0369 7.58553 56.6445 7.74765 56.3829 8.07179C56.1213 8.39594 55.9905 8.81396 55.9905 9.32576V12.0725C55.9905 12.4251 56.0758 12.6867 56.2464 12.8573L56.9459 13.5569V13.7275H52.476L52.476 13.5569Z" fill="#58595B"/>
<path d="M63.1902 13.5558L63.8897 12.8563C64.0603 12.6857 64.1456 12.4241 64.1456 12.0715V7.1921C64.1456 6.83956 64.0603 6.57794 63.8897 6.40733L63.1902 5.70787V5.53726H66.7047V12.0716C66.7047 12.4241 66.7899 12.6858 66.9606 12.8564L67.6601 13.5559V13.7265H63.1902V13.5558ZM64.3418 3.89939C64.0404 3.61509 63.8897 3.26245 63.8897 2.84166C63.8897 2.42087 64.0403 2.06824 64.3418 1.78393C64.6432 1.49953 64.9986 1.35742 65.4081 1.35742C65.8176 1.35742 66.1729 1.49962 66.4744 1.78393C66.7758 2.06824 66.9265 2.42087 66.9265 2.84166C66.9265 3.26245 66.7759 3.61509 66.4744 3.89939C66.1729 4.1837 65.8176 4.3259 65.4081 4.3259C64.9986 4.3259 64.6432 4.1837 64.3418 3.89939Z" fill="#58595B"/>
<path d="M69.1263 7.36362C68.7397 6.61297 68.3075 6.06704 67.8298 5.72575V5.53809H70.9689L72.658 9.49623H72.6922L74.1764 5.53809H77.3668V5.72575C76.8778 6.06695 76.4456 6.61297 76.0701 7.36362L72.6922 14.1026H72.5215L69.1263 7.36362Z" fill="#58595B"/>
<path d="M78.8336 12.8318C78.0259 12.0754 77.6222 11.0546 77.6222 9.76933C77.6222 8.47275 78.0204 7.41788 78.8165 6.60461C79.6126 5.79135 80.6931 5.38477 82.0579 5.38477C83.3774 5.38477 84.3669 5.76866 85.0265 6.53637C85.6863 7.30408 86.0162 8.33627 86.0162 9.63293C86.0162 9.89455 86.0047 10.1391 85.982 10.3666H80.2496C80.3065 10.7987 80.5169 11.1627 80.8809 11.4584C81.2447 11.7541 81.7281 11.902 82.3309 11.902C83.0931 11.902 83.6787 11.6745 84.0883 11.2195L85.5044 12.8915C84.7308 13.6081 83.5992 13.9664 82.1092 13.9664C80.7329 13.9664 79.641 13.5881 78.8336 12.8318ZM80.7102 7.75622C80.4145 8.06331 80.2496 8.43872 80.2154 8.8822H83.4228C83.4 8.41586 83.258 8.0349 82.9963 7.73916C82.7347 7.44342 82.365 7.2956 81.8873 7.2956C81.3982 7.29551 81.0058 7.44914 80.7102 7.75622Z" fill="#58595B"/>
<path d="M87.1929 13.5569L87.8925 12.8573C88.0632 12.6867 88.1484 12.4252 88.1484 12.0725V7.19315C88.1484 6.8406 88.0632 6.57898 87.8925 6.40838L87.1929 5.70891V5.53831H90.6394V7.19315C90.8326 6.66991 91.1511 6.23778 91.5946 5.89657C92.0383 5.55537 92.5501 5.38477 93.1301 5.38477C93.5508 5.38477 93.9093 5.46435 94.2049 5.62361L93.5395 8.18281C93.1755 7.8643 92.766 7.70504 92.3112 7.70504C91.8107 7.70504 91.4182 7.86993 91.1339 8.19979C90.8496 8.52973 90.7073 8.99599 90.7073 9.59881V12.0725C90.7073 12.4251 90.7925 12.6867 90.9632 12.8573L91.6628 13.5569V13.7275H87.1927V13.5569H87.1929Z" fill="#58595B"/>
<path d="M94.4772 12.8561L95.6715 11.1159C96.4335 11.7414 97.349 12.0542 98.4182 12.0542C99.1461 12.0542 99.5101 11.8267 99.5101 11.3718C99.5101 11.1557 99.4162 10.9908 99.2285 10.8771C99.0409 10.7633 98.7935 10.6837 98.4865 10.6382C98.1793 10.5927 97.8324 10.5357 97.4457 10.4676C95.7738 10.1832 94.9377 9.38133 94.9377 8.06197C94.9377 7.11795 95.2704 6.43554 95.9358 6.01466C96.6011 5.59379 97.4457 5.38343 98.4694 5.38343C98.8674 5.38343 99.2855 5.42041 99.7233 5.49428C100.161 5.56824 100.454 5.60522 100.602 5.60522C100.977 5.60522 101.353 5.46302 101.728 5.17871L101.899 5.24695L101.097 8.36906L100.926 8.31788C100.585 7.59 99.817 7.22602 98.6229 7.22602C97.9063 7.22602 97.548 7.43646 97.548 7.85725C97.548 8.05054 97.6362 8.20417 97.8124 8.31788C97.9888 8.43158 98.2248 8.5084 98.5205 8.54815C98.8163 8.58807 99.1519 8.64202 99.5272 8.71026C100.266 8.83531 100.884 9.08559 101.378 9.461C101.873 9.83632 102.12 10.3823 102.12 11.0988C102.12 12.0087 101.776 12.7139 101.088 13.2143C100.4 13.7148 99.4532 13.9651 98.2476 13.9651C96.6326 13.9652 95.3756 13.5954 94.4772 12.8561Z" fill="#58595B"/>
<path d="M103.877 13.3094C103.377 12.8714 103.127 12.2943 103.127 11.5777C103.127 10.6792 103.454 10.0082 104.108 9.56461C104.762 9.12095 105.782 8.88791 107.17 8.86505C107.602 8.85371 107.898 8.79975 108.057 8.70302C108.216 8.60638 108.296 8.43863 108.296 8.1997C108.296 7.96086 108.174 7.76176 107.929 7.60259C107.685 7.44334 107.312 7.36375 106.812 7.36375C106.05 7.36375 105.356 7.64815 104.73 8.21685L103.4 6.64722C104.241 5.80556 105.464 5.38477 107.068 5.38477C108.364 5.38477 109.317 5.64638 109.925 6.16954C110.534 6.69277 110.838 7.48889 110.838 8.55814V12.0726C110.838 12.4252 110.923 12.6868 111.094 12.8574L111.793 13.557V13.7276H108.347V12.6186C108.143 13.0167 107.813 13.3408 107.358 13.591C106.903 13.8413 106.374 13.9664 105.771 13.9664C105.009 13.9663 104.378 13.7472 103.877 13.3094ZM107.853 11.7057C108.148 11.4043 108.296 11.0432 108.296 10.6223V10.0593C108.148 10.1161 107.79 10.1616 107.221 10.1957C106.198 10.2526 105.686 10.6053 105.686 11.2536C105.686 11.5152 105.771 11.7313 105.942 11.9019C106.112 12.0725 106.368 12.1578 106.71 12.1578C107.176 12.1578 107.557 12.0072 107.853 11.7057Z" fill="#58595B"/>
<path d="M112.493 13.5569L113.193 12.8574C113.363 12.6868 113.449 12.4252 113.449 12.0726V2.46743C113.449 2.11479 113.363 1.85326 113.193 1.68257L112.493 0.983102V0.8125H116.008V12.0726C116.008 12.4251 116.093 12.6868 116.264 12.8574L116.963 13.5569V13.7275H112.493V13.5569Z" fill="#58595B"/>
</svg>
