<svg width="275" height="25" viewBox="0 0 275 25" fill="none" xmlns="http://www.w3.org/2000/svg">
<path d="M24.5566 4.28661H20.6032C19.0058 4.28661 17.8078 4.92788 17.0092 6.21042C16.2104 7.49296 15.8111 9.2791 15.8111 11.5682V24.7246H11.8682V1.01826H15.2521L15.6115 5.03133C15.931 3.76302 16.51 2.7765 17.3487 2.07323C18.1874 1.36984 19.2057 1.01826 20.4036 1.01826L25.1304 1.00781L24.5566 4.28661Z" fill="#2D2D2D"/>
<path d="M47.5947 21.3802H51.5685V4.34173H47.5947L47.5968 1.00781H55.5057L55.5037 24.7141H47.5947V21.3802Z" fill="#2D2D2D"/>
<path d="M7.91098 4.34563H3.93726V21.3841H7.91098L7.90894 24.718H0L0.00203786 1.01172H7.91098V4.34563V4.34563Z" fill="#2D2D2D"/>
<path d="M73.2304 2.54883C74.9943 3.57391 76.3608 4.98424 77.3296 6.77993C78.2981 8.57606 78.7827 10.594 78.7827 12.8333C78.7827 15.0943 78.298 17.1277 77.3296 18.9342C76.3608 20.7406 74.9943 22.1564 73.2304 23.181C71.4662 24.2061 69.4219 24.7181 67.097 24.7181H59.4492V1.01172H67.097C69.4219 1.01172 71.4662 1.5242 73.2304 2.54883ZM63.3955 21.3902H67.097C69.5032 21.3902 71.3951 20.6296 72.7716 19.1084C74.1482 17.5872 74.8366 15.4954 74.8366 12.8332C74.8366 10.171 74.1483 8.09013 72.7716 6.58969C71.3951 5.0898 69.5032 4.33952 67.097 4.33952H63.3955V21.3902Z" fill="#2D2D2D"/>
<path d="M108.849 23.6776C107.525 22.9919 106.433 22.04 105.573 20.8217C104.714 19.6039 104.175 18.227 103.958 16.6915L107.782 16.2001C108.058 17.6948 108.705 18.9024 109.723 19.8236C110.74 20.7448 111.98 21.2055 113.443 21.2055C114.628 21.2055 115.626 20.8936 116.436 20.2689C117.246 19.6446 117.652 18.8516 117.652 17.889C117.652 17.1112 117.414 16.487 116.94 16.0159C116.466 15.5452 115.873 15.1868 115.162 14.9412C114.451 14.6955 113.492 14.4398 112.287 14.1734C110.686 13.805 109.377 13.4264 108.36 13.0372C107.342 12.6486 106.477 12.0037 105.766 11.1026C105.055 10.202 104.699 8.97371 104.699 7.4177C104.699 6.16927 105.045 5.05853 105.736 4.0859C106.428 3.11382 107.401 2.35621 108.656 1.81351C109.91 1.27158 111.338 1 112.939 1C114.44 1 115.809 1.30713 117.044 1.92118C118.279 2.53534 119.301 3.37984 120.112 4.45459C120.922 5.52934 121.445 6.72209 121.683 8.03208L117.8 8.462C117.484 7.21346 116.866 6.22561 115.947 5.49867C115.028 4.77228 113.907 4.40859 112.583 4.40859C111.338 4.40859 110.35 4.6595 109.619 5.16098C108.888 5.66279 108.522 6.34318 108.522 7.20302C108.522 7.85851 108.735 8.39055 109.16 8.7998C109.584 9.20961 110.123 9.52141 110.775 9.73643C111.427 9.95133 112.326 10.1817 113.472 10.4274C115.132 10.7958 116.495 11.185 117.563 11.5942C118.63 12.004 119.543 12.6897 120.304 13.6517C121.065 14.6142 121.445 15.9447 121.445 17.6437C121.445 19.0155 121.099 20.2385 120.408 21.3133C119.716 22.388 118.743 23.2224 117.488 23.816C116.233 24.4095 114.796 24.7065 113.176 24.7065C111.615 24.7063 110.172 24.3633 108.849 23.6776Z" fill="#2D2D2D"/>
<path d="M124.535 24.7063V1H128.359V24.7063H124.535Z" fill="#2D2D2D"/>
<path d="M151.081 19.1329C150.33 20.9245 149.184 22.301 147.643 23.2631C146.101 24.2256 144.244 24.7063 142.07 24.7063C139.976 24.7063 138.099 24.1948 136.439 23.171C134.779 22.1476 133.475 20.735 132.526 18.9333C131.578 17.1321 131.104 15.0948 131.104 12.8224C131.104 10.55 131.573 8.51856 132.511 6.72698C133.45 4.93585 134.749 3.53341 136.409 2.52C138.069 1.5067 139.946 1 142.041 1C143.582 1 145.009 1.31769 146.324 1.95196C147.638 2.58678 148.739 3.48252 149.629 4.63883C150.518 5.79569 151.1 7.14146 151.377 8.67691L147.613 9.41385C147.297 7.96052 146.615 6.78354 145.568 5.88247C144.52 4.98185 143.266 4.53126 141.804 4.53126C140.499 4.53126 139.324 4.8844 138.276 5.59068C137.229 6.29695 136.409 7.27958 135.816 8.53867C135.224 9.79766 134.927 11.2255 134.927 12.8223C134.927 14.4398 135.228 15.8778 135.831 17.1368C136.434 18.3959 137.278 19.3784 138.365 20.0848C139.452 20.791 140.687 21.1442 142.07 21.1442C143.75 21.1442 145.113 20.694 146.161 19.793C147.208 18.8923 147.85 17.6434 148.087 16.0466H143.463V12.8222H152.089C152.168 15.2383 151.832 17.3418 151.081 19.1329Z" fill="#2D2D2D"/>
<path d="M173.578 24.7063H168.439L159.812 8.13086L158.864 5.97582V24.7063H154.918V1H159.996L168.47 17.2584L169.602 19.7305V1H173.579V24.7063H173.578Z" fill="#2D2D2D"/>
<path d="M102.172 12.3945C102.172 5.26457 98.3521 1.00781 91.9534 1.00781C85.4852 1.00781 81.3057 5.65171 81.3057 12.8388C81.3057 16.2961 82.2595 19.2387 84.0637 21.3487C85.9467 23.5504 88.6749 24.7142 91.9534 24.7142C94.6465 24.7142 96.893 23.9901 98.6302 22.5619C100.134 21.3259 101.236 19.5435 101.823 17.4009H97.9021C97.5737 18.4576 96.2605 21.4881 92.0393 21.4881C89.9742 21.4881 88.2475 20.7036 87.0457 19.2194C85.9784 17.9013 85.3657 16.0627 85.3203 14.0423L85.3167 13.8747H102.145C102.172 13.5096 102.172 12.9435 102.172 12.3945ZM98.072 10.7813H85.3087L85.3206 10.6059C85.5834 6.79458 88.1973 4.23394 91.8247 4.23394C93.6697 4.23394 95.2453 4.86532 96.381 6.05986C97.4714 7.20694 98.072 8.82539 98.072 10.6174V10.7813V10.7813Z" fill="#2D2D2D"/>
<path d="M46.2436 12.3985C46.2436 5.26848 42.4234 1.01172 36.0247 1.01172C29.5565 1.01172 25.377 5.65562 25.377 12.8427C25.377 16.3 26.3308 19.2426 28.135 21.3526C30.018 23.5543 32.7462 24.7181 36.0247 24.7181C38.7178 24.7181 40.9642 23.994 42.7015 22.5658C44.2049 21.3298 45.3068 19.5474 45.8943 17.4048H41.9734C41.645 18.4615 40.3318 21.492 36.1106 21.492C34.0455 21.492 32.3188 20.7075 31.117 19.2233C30.0497 17.9052 29.437 16.0666 29.3915 14.0462L29.388 13.8786H46.2158C46.2436 13.5135 46.2436 12.9474 46.2436 12.3985ZM42.1434 10.7851H29.3799L29.3918 10.6097C29.6545 6.79826 32.2685 4.23763 35.896 4.23763C37.7411 4.23763 39.3167 4.86901 40.4523 6.06354C41.5428 7.21062 42.1433 8.82919 42.1433 10.6212V10.7851H42.1434Z" fill="#2D2D2D"/>
<path d="M266.255 24.4808H266.38V24.3558V4.04404H274H274.125V3.91904V1.36829V1.24329H274H255.622H255.497V1.36829V3.91904V4.04404H255.622H263.242V24.3558V24.4808H263.367H266.255Z" fill="#436AF3" stroke="#436AF3" stroke-width="0.25"/>
<path d="M241.38 23.8532L241.381 23.8538C242.731 24.5184 244.205 24.8501 245.801 24.8501C247.454 24.8501 248.917 24.5607 250.186 23.9782C251.454 23.3962 252.436 22.583 253.126 21.5372C253.838 20.4906 254.192 19.2879 254.192 17.9333C254.192 16.3358 253.798 15.0546 252.996 14.104C252.225 13.1664 251.285 12.4877 250.179 12.07C249.106 11.6369 247.697 11.2052 245.953 10.7743L245.952 10.7739C244.622 10.4671 243.572 10.1814 242.799 9.91713C242.056 9.6561 241.438 9.28613 240.94 8.80884C240.476 8.34422 240.24 7.73275 240.24 6.96201C240.24 5.96059 240.669 5.16858 241.538 4.576L241.538 4.57566C242.433 3.95952 243.645 3.64503 245.186 3.64503C246.699 3.64503 247.972 4.04803 249.013 4.84839C250.054 5.64949 250.757 6.74134 251.119 8.13065L251.147 8.23564L251.254 8.22328L254.205 7.88523L254.338 7.86991L254.313 7.73766C254.064 6.42693 253.522 5.25057 252.69 4.21024C251.858 3.17052 250.818 2.3598 249.573 1.77832C248.325 1.17557 246.955 0.875 245.462 0.875C243.811 0.875 242.35 1.13311 241.082 1.65264C239.815 2.17189 238.822 2.90152 238.11 3.84419L238.11 3.84418L238.109 3.84562C237.416 4.79029 237.071 5.88191 237.071 7.11567C237.071 8.61068 237.434 9.80991 238.175 10.6991L238.175 10.6992L238.177 10.7016C238.928 11.5562 239.825 12.1927 240.868 12.6098L240.868 12.6099L240.87 12.6106C241.901 13.0025 243.259 13.4034 244.941 13.8137C246.353 14.1616 247.455 14.478 248.248 14.7627L248.249 14.763C249.052 15.0442 249.711 15.4544 250.228 15.9917L250.228 15.9918L250.23 15.9934C250.755 16.519 251.023 17.2226 251.023 18.1177C251.023 18.8491 250.806 19.5095 250.371 20.1029C249.935 20.6977 249.339 21.1661 248.578 21.5065C247.817 21.8265 246.954 21.9879 245.985 21.9879C244.333 21.9879 242.917 21.485 241.733 20.4809C240.548 19.477 239.803 18.1414 239.501 16.4667L239.479 16.3501L239.362 16.3649L236.442 16.7337L236.316 16.7497L236.334 16.8759C236.563 18.4318 237.123 19.8138 238.017 21.0195C238.91 22.2236 240.031 23.1684 241.38 23.8532Z" fill="#436AF3" stroke="#436AF3" stroke-width="0.25"/>
<path d="M215.848 1.24329H215.723V1.36829V16.1197C215.723 18.6832 216.416 20.7244 217.815 22.2283C219.216 23.7339 221.147 24.4808 223.592 24.4808H225.897C228.342 24.4808 230.273 23.7339 231.674 22.2283C233.073 20.7244 233.766 18.6832 233.766 16.1197V1.36829V1.24329H233.641H230.783H230.658V1.36829V16.1197C230.658 17.9006 230.193 19.2696 229.279 20.2439C228.366 21.1963 227.071 21.6801 225.375 21.6801H224.115C222.419 21.6801 221.124 21.1965 220.211 20.2444C219.316 19.2702 218.861 17.901 218.861 16.1197V1.36829V1.24329H218.736H215.848Z" fill="#436AF3" stroke="#436AF3" stroke-width="0.25"/>
<path d="M212.645 4.1771H212.791L212.769 4.03333L212.4 1.6055L212.384 1.49927H212.277H206.621C205.674 1.49927 204.856 1.77376 204.176 2.32614C203.658 2.74441 203.267 3.29886 203.001 3.98479L202.781 1.61272L202.771 1.49927H202.657H200.321H200.196V1.62427V24.3557V24.4807H200.321H203.087H203.212V24.3557V9.46093C203.212 7.7731 203.518 6.47902 204.114 5.56479L204.114 5.56479L204.114 5.56376C204.704 4.63995 205.585 4.1771 206.775 4.1771H212.645Z" fill="#436AF3" stroke="#436AF3" stroke-width="0.25"/>
<path d="M188.633 24.4808H188.758V24.3558V4.04404H196.378H196.503V3.91904V1.36829V1.24329H196.378H178H177.875V1.36829V3.91904V4.04404H178H185.619V24.3558V24.4808H185.744H188.633Z" fill="#436AF3" stroke="#436AF3" stroke-width="0.25"/>
</svg>
