<svg width="33" height="33" viewBox="0 0 33 33" fill="none" xmlns="http://www.w3.org/2000/svg">
<path d="M31.8 16.1C31.8 24.7709 24.7709 31.8 16.1 31.8C7.42913 31.8 0.4 24.7709 0.4 16.1C0.4 7.42913 7.42913 0.4 16.1 0.4C24.7709 0.4 31.8 7.42913 31.8 16.1Z" stroke="#A6A6A6" stroke-width="0.8"/>
<path fill-rule="evenodd" clip-rule="evenodd" d="M22.1904 11.2176C22.8524 10.7996 23.3604 10.1376 23.6004 9.34761C22.9794 9.73561 22.2934 10.0156 21.5624 10.1676C20.9784 9.50961 20.1444 9.09961 19.2224 9.09961C17.4504 9.09961 16.0154 10.6146 16.0154 12.4816C16.0154 12.7476 16.0424 13.0056 16.0974 13.2516C13.4324 13.1116 11.0694 11.7656 9.48744 9.71761C9.21044 10.2196 9.05244 10.7996 9.05244 11.4196C9.05244 12.5926 9.61844 13.6276 10.4794 14.2356C9.95344 14.2186 9.45944 14.0646 9.02644 13.8126V13.8546C9.02644 15.4946 10.1304 16.8616 11.6004 17.1706C11.3304 17.2506 11.0474 17.2906 10.7544 17.2906C10.5474 17.2906 10.3454 17.2706 10.1514 17.2306C10.5584 18.5736 11.7434 19.5526 13.1474 19.5786C12.0484 20.4866 10.6654 21.0266 9.16344 21.0266C8.90544 21.0266 8.64944 21.0126 8.39844 20.9806C9.81844 21.9396 11.5034 22.4996 13.3154 22.4996C19.2154 22.4996 22.4394 17.3456 22.4394 12.8746C22.4394 12.7276 22.4374 12.5816 22.4314 12.4376C23.0584 11.9606 23.6034 11.3646 24.0314 10.6856C23.4564 10.9556 22.8384 11.1366 22.1904 11.2176Z" fill="#A6A6A6"/>
</svg>
