<svg width="119" height="16" viewBox="0 0 119 16" fill="none" xmlns="http://www.w3.org/2000/svg">
<path fill-rule="evenodd" clip-rule="evenodd" d="M21.2391 3.86996C21.2778 3.77762 21.314 3.69127 21.3486 3.61451C21.3322 3.51063 21.3238 3.42115 21.3166 3.34321C21.3036 3.20389 21.294 3.10146 21.2476 3.0197C20.7084 2.06995 20.1628 1.12345 19.5939 0.190988C19.4297 -0.0785932 19.1904 -0.0586042 19.025 0.224483C18.8682 0.493994 18.7167 0.766625 18.5652 1.03928C18.4726 1.20604 18.3799 1.37282 18.286 1.53889C17.9178 2.18951 17.5494 2.83999 17.1811 3.49045L17.1809 3.49076L17.1807 3.49108L17.1805 3.49139L17.1804 3.49171L17.1802 3.49202L17.18 3.49234L17.1795 3.49325C15.6834 6.13492 14.1874 8.77642 12.7074 11.427C12.5794 11.656 12.5178 12.0472 12.6259 12.2616C13.1326 13.2665 13.6988 14.2422 14.2698 15.2124C14.4405 15.502 14.6923 15.4847 14.8916 15.2C14.9597 15.1033 15.0182 14.9991 15.0763 14.8954L15.1056 14.8435L16.1766 12.9516C17.7535 10.1664 19.3305 7.38119 20.9013 4.59235C21.0376 4.35076 21.1455 4.09326 21.2389 3.87053L21.2389 3.87042L21.2389 3.87031L21.239 3.87019L21.239 3.87009L21.2391 3.86998L21.2391 3.86996ZM12.8877 15.1825C12.7889 15.2034 12.7016 15.2259 12.6217 15.2465C12.4698 15.2856 12.345 15.3178 12.22 15.3181C11.006 15.3227 9.79209 15.3238 8.57807 15.3249H8.57801H8.57795H8.57788H8.57782H8.57776H8.5777H8.57763H8.57757H8.57751H8.57744H8.57738C7.36364 15.326 6.14983 15.327 4.93589 15.3316C4.45453 15.3333 4.09311 15.1593 3.85216 14.7417C3.58885 14.2856 3.32486 13.8299 3.06087 13.3742L3.06082 13.3741C2.47933 12.3704 1.89787 11.3667 1.32382 10.3587C1.13118 10.0207 0.948237 9.677 0.765308 9.33334L0.765303 9.33333C0.557326 8.94261 0.349365 8.55192 0.127183 8.16964C-0.129433 7.72826 0.0493875 7.35171 0.249818 6.99299C0.919701 5.79243 1.59862 4.59689 2.27751 3.4014L2.27752 3.40138L2.27761 3.40124L2.27761 3.40123L2.27763 3.4012L2.27765 3.40117C2.59462 2.84299 2.9116 2.28482 3.22764 1.72616C3.29204 1.61229 3.35157 1.49451 3.4111 1.37672C3.6422 0.919441 3.87333 0.462117 4.3897 0.234006C4.59013 0.145406 4.81595 0.0676107 5.03097 0.06599C6.88231 0.0519442 8.73365 0.0541045 10.5855 0.0562654L10.5857 0.0562656C11.0563 0.0562656 11.1838 0.256696 10.9628 0.66566C10.5085 1.50628 10.045 2.34257 9.57225 3.17347C9.34157 3.57865 9.01364 3.79907 8.50473 3.76287C7.9137 3.72127 7.31295 3.71047 6.72571 3.77368C6.45829 3.80231 6.11091 3.97789 5.97639 4.19561C5.37456 5.16859 4.80515 6.16479 4.2957 7.18855C4.15415 7.47272 4.13633 7.94057 4.27409 8.21934C4.6624 9.00297 5.10104 9.76175 5.5396 10.5204L5.53961 10.5204L5.53972 10.5206L5.53974 10.5207L5.53976 10.5207L5.53978 10.5207L5.5398 10.5207L5.53982 10.5208L5.53984 10.5208L5.53985 10.5208L5.53987 10.5209L5.53989 10.5209L5.53991 10.5209C5.67601 10.7564 5.8121 10.9918 5.94668 11.228C6.1752 11.6288 6.53176 11.7952 6.99151 11.7887C7.49333 11.7818 7.99525 11.7793 8.49719 11.7768H8.49721H8.49723H8.49725H8.49727H8.49729H8.49731H8.49733H8.49735H8.49737H8.49739H8.49741C9.13072 11.7737 9.76404 11.7705 10.3972 11.7585C10.7673 11.7514 11.0266 11.8595 11.2113 12.1966C11.5888 12.8863 11.9764 13.5709 12.3908 14.3029L12.3908 14.303C12.5522 14.5881 12.7177 14.8805 12.8883 15.1831L12.8877 15.1825ZM80.4144 13.5694C79.4631 13.5651 79.4604 13.5543 79.2244 12.637L79.2232 12.6321C78.59 10.1718 77.952 7.71264 77.3005 5.25723C77.2722 5.15028 77.1846 5.05908 77.097 4.96781C77.0558 4.92493 77.0146 4.88202 76.9796 4.83747C76.9468 4.88162 76.9089 4.92437 76.871 4.96714L76.871 4.96718L76.8709 4.96723L76.8709 4.96729L76.8708 4.96736C76.7886 5.06005 76.7064 5.15279 76.6765 5.25994C76.2387 6.83789 75.8162 8.42041 75.3937 10.0031L75.3936 10.0035L75.3935 10.004L75.3933 10.0046L75.3932 10.0052L75.355 10.1481C75.3159 10.2947 75.2766 10.4413 75.2373 10.5879L75.2372 10.5883L75.2371 10.5888C75.047 11.2981 74.8568 12.0078 74.6841 12.7212C74.502 13.4732 74.3972 13.5721 73.6236 13.5683C73.5561 13.568 73.4864 13.5728 73.4167 13.5775C73.252 13.5887 73.087 13.6 72.9488 13.5446C72.7359 13.4592 72.4561 13.2755 72.4096 13.0854C72.1468 12.0074 71.9122 10.9224 71.6777 9.83747C71.5993 9.47503 71.5209 9.1126 71.4415 8.75045C71.3458 8.31438 71.2493 7.87847 71.1528 7.44257L71.1503 7.43108L71.15 7.42983L71.1498 7.42865L71.1495 7.42747L71.1493 7.42637C70.9987 6.74602 70.8481 6.06567 70.7003 5.38473C70.5904 4.87804 70.4825 4.37075 70.3746 3.86342L70.3745 3.86295L70.3744 3.8624L70.3743 3.86185L70.3742 3.86144L70.3741 3.86105L70.3741 3.8607L70.374 3.86037L70.3739 3.86007L70.3738 3.8598L70.3738 3.85953L70.3737 3.85928L70.3737 3.85907L70.3736 3.85888L70.3736 3.8587C70.2539 3.29549 70.1341 2.73225 70.0115 2.16975C69.9364 1.82399 70.0823 1.67542 70.4145 1.6657C70.4203 1.6657 70.4261 1.66588 70.4319 1.66606C70.4436 1.66642 70.4554 1.66678 70.4669 1.6657C71.6738 1.59871 71.6981 1.60951 71.9321 2.79643C72.0914 3.60508 72.2487 4.41414 72.406 5.2232L72.4063 5.22479L72.4066 5.22638L72.4069 5.22802L72.4072 5.22977L72.4076 5.23152L72.4079 5.23332L72.4083 5.23517L72.4087 5.23707L72.4091 5.23908L72.4095 5.24115C72.6898 6.6833 72.9701 8.12543 73.2621 9.56513C73.295 9.72635 73.3976 9.87372 73.5002 10.021C73.5478 10.0894 73.5954 10.1577 73.636 10.2275C73.6785 10.1581 73.7268 10.0904 73.775 10.0228C73.8794 9.87645 73.9837 9.73021 74.0298 9.56729C74.3905 8.29206 74.737 7.0129 75.0835 5.73365L75.0839 5.73218L75.0843 5.73061L75.086 5.72464L75.0874 5.71925L75.0888 5.71416L75.0901 5.70937L75.0913 5.70488L75.0925 5.70068L75.0935 5.69677L75.0945 5.69315L75.0954 5.68981C75.209 5.2706 75.3225 4.85138 75.4366 4.43228C75.4999 4.19977 75.5645 3.96756 75.6291 3.73534L75.6295 3.73413L75.6298 3.73285L75.6302 3.73151L75.6302 3.7314L75.6302 3.73129L75.6303 3.73119L75.6303 3.73109L75.6303 3.73101L75.6303 3.73093L75.6304 3.73085L75.6304 3.73077L75.6304 3.7307L75.6304 3.73063L75.6304 3.73058C75.7752 3.21064 75.92 2.69064 76.0493 2.16704C76.1352 1.82075 76.3226 1.6576 76.67 1.6603L76.7396 1.66054C76.7862 1.66078 76.8328 1.66102 76.8796 1.6603C77.8439 1.64355 77.8931 1.69703 78.1308 2.60356C78.7391 4.92715 79.3572 7.24857 79.9898 9.56567C80.034 9.72766 80.1368 9.87384 80.2398 10.0201C80.2879 10.0885 80.3361 10.1569 80.3782 10.2269C80.4188 10.152 80.4661 10.0784 80.5133 10.0047C80.6146 9.84708 80.7158 9.68938 80.7515 9.51813C81.0853 7.90823 81.407 6.2958 81.7286 4.68343L81.7291 4.68115L81.7296 4.6788L81.7312 4.6704C81.8788 3.93075 82.0263 3.19112 82.1751 2.45175C82.3161 1.74998 83.1702 1.34696 83.772 1.72026C83.8844 1.78995 83.9449 2.05683 83.9195 2.21513C83.8179 2.85099 83.6829 3.482 83.5435 4.11138C83.1007 6.11326 82.6527 8.1142 82.2048 10.1146L82.2045 10.116L82.2042 10.1175L82.2038 10.1191L82.2034 10.121L82.203 10.1228L82.2026 10.1245L82.2022 10.1263L82.2019 10.1278L82.2015 10.1295L82.2011 10.1314L82.2007 10.1333L82.1108 10.5349C82.0341 10.8772 81.9556 11.2192 81.877 11.5612L81.8767 11.5625L81.8763 11.564L81.876 11.5656L81.8756 11.5672L81.8752 11.569L81.8748 11.5707L81.8744 11.5724C81.763 12.0578 81.6515 12.5432 81.5452 13.0297C81.4235 13.5858 81.0412 13.5774 80.657 13.5689C80.5754 13.5671 80.4937 13.5653 80.4144 13.5689V13.5694ZM27.0581 3.52204C26.9831 3.67485 26.9105 3.829 26.8379 3.98314C26.684 4.30964 26.5302 4.63613 26.3537 4.9499C25.174 7.04667 23.9889 9.14056 22.8037 11.2345C22.2889 12.144 21.7741 13.0535 21.2597 13.9633C21.1719 14.1188 21.0864 14.2756 21.0008 14.4324L21.0007 14.4326L21.0007 14.4327L21.0006 14.4328L21.0005 14.4329L21.0005 14.433L21.0004 14.4331L21.0004 14.4332L21.0003 14.4333L21.0002 14.4334L21.0002 14.4335L21.0002 14.4335L21.0002 14.4336L21.0001 14.4336L21.0001 14.4336L21.0001 14.4337L21.0001 14.4337L21 14.4338L21 14.4338C20.8784 14.6568 20.7567 14.8797 20.6287 15.0989C20.3872 15.5122 20.0836 15.5187 19.8421 15.1027C19.6314 14.7396 19.4265 14.3729 19.2217 14.0062C18.9435 13.5081 18.6652 13.01 18.3721 12.5209C18.0998 12.0671 18.1755 11.6732 18.4164 11.2513C19.4013 9.52954 20.3797 7.804 21.3575 6.07847C21.9992 4.9455 22.6395 3.81172 23.2797 2.67799L23.2806 2.6764C23.6744 1.97908 24.0682 1.28179 24.4623 0.584736C24.4835 0.547052 24.5032 0.504525 24.523 0.461681L24.523 0.461669L24.523 0.461645C24.5747 0.349717 24.6275 0.235633 24.7119 0.200083C24.8729 0.132012 25.2019 0.10554 25.2527 0.188197C25.8323 1.13254 26.378 2.09796 26.9182 3.06607C26.9616 3.1435 26.9655 3.24302 26.9695 3.34235C26.9713 3.38787 26.9731 3.43336 26.9787 3.47666L27.0581 3.52204ZM35.6288 6.73569C35.6076 7.09533 35.585 7.47667 35.5505 7.88841H35.55C35.5839 8.14735 35.6153 8.43031 35.6486 8.72961L35.6486 8.72976L35.6486 8.73008L35.6487 8.73038C35.7305 9.46624 35.8232 10.3008 35.9903 11.1201C36.2312 12.3044 37.1026 12.9948 38.2188 13.3135C39.5758 13.7012 40.9661 13.6481 42.3536 13.5951L42.3537 13.5951C42.6774 13.5828 43.0011 13.5704 43.3241 13.5637C43.4678 13.5604 43.712 13.3546 43.7303 13.2184C43.8168 12.5777 43.2846 12.0375 42.6423 12.0213C42.388 12.0149 42.1334 12.01 41.8789 12.0051H41.8789H41.8788H41.8788H41.8788H41.8787H41.8787H41.8787L41.8781 12.0051C40.9822 11.9878 40.0858 11.9706 39.195 11.8911C38.3149 11.8122 37.7174 11.2503 37.6575 10.3838C37.5429 8.71768 37.4457 7.04077 37.511 5.3752C37.5699 3.87872 38.1593 3.35577 39.6672 3.22125C40.3608 3.15926 41.0612 3.17116 41.761 3.18304C41.9883 3.18689 42.2155 3.19075 42.4424 3.19208C43.3208 3.19748 43.5558 3.01974 43.7292 2.17372C43.7952 1.85173 43.6963 1.65617 43.3413 1.65887C42.9256 1.6618 42.5094 1.65796 42.0931 1.65412C41.128 1.64522 40.1629 1.63632 39.2042 1.71181C37.1961 1.86956 36.2215 2.7561 35.8331 4.73447C35.7102 5.36031 35.6722 6.00293 35.6288 6.73569ZM102.999 4.93591C103.924 4.93698 103.928 4.95065 104.329 6.16346L104.346 6.21574C104.842 7.71708 105.366 9.20923 105.894 10.6998C105.934 10.8121 106.022 10.9073 106.111 11.0024L106.111 11.0025C106.151 11.0464 106.192 11.0902 106.228 11.1357C106.27 11.0892 106.317 11.045 106.365 11.0007L106.365 11.0006C106.466 10.9061 106.568 10.8117 106.611 10.6954L106.695 10.4677C107.292 8.84836 107.889 7.22871 108.436 5.5923C108.607 5.08069 108.863 4.91646 109.377 4.92619C110.448 4.94563 110.49 4.9586 110.117 5.9278C109.617 7.22815 109.109 8.52529 108.6 9.82237C108.176 10.905 107.752 11.9876 107.332 13.072C107.2 13.415 106.989 13.5695 106.626 13.5652C106.452 13.5631 106.301 13.5645 106.17 13.5656C105.777 13.5691 105.56 13.5711 105.404 13.4747C105.21 13.3559 105.109 13.0876 104.883 12.4882L104.855 12.4156C104.174 10.6125 103.466 8.81964 102.758 7.02696C102.56 6.52395 102.361 6.02096 102.163 5.51775C102.014 5.14066 102.108 4.94293 102.527 4.93645C102.619 4.93486 102.712 4.93514 102.804 4.93542H102.804C102.869 4.93562 102.934 4.93581 102.999 4.93537V4.93591ZM15.399 4.38056C15.4132 4.33804 15.4282 4.29325 15.4459 4.24596V4.24542C15.4266 4.2048 15.4079 4.16323 15.3889 4.12131C15.346 4.02607 15.3022 3.92907 15.2493 3.83754L15.0326 3.46313L15.0324 3.46269L15.0323 3.4626L15.0323 3.46254L15.0323 3.46251L15.0322 3.46249L15.0322 3.46246C14.4521 2.45985 13.8718 1.45701 13.2833 0.458856C12.9273 -0.145136 12.7415 -0.147837 12.399 0.451833C11.8393 1.43183 11.2796 2.41237 10.7566 3.41128C10.6529 3.60901 10.6172 3.94288 10.7139 4.12819C11.3639 5.37453 12.0478 6.60412 12.7431 7.82615C12.9965 8.27131 13.2401 8.26591 13.4957 7.82399C14.008 6.93711 14.5072 6.04273 15.0063 5.14835L15.306 4.6117C15.3446 4.54273 15.3703 4.46627 15.399 4.38056ZM54.7465 10.124C54.7465 9.84326 54.7445 9.56249 54.7426 9.28171C54.7382 8.65362 54.7338 8.02551 54.7514 7.39792C54.7908 5.99274 55.7011 5.04192 57.1079 4.95602C57.6614 4.9224 58.2172 4.92338 58.7731 4.92436C59.0391 4.92483 59.3051 4.9253 59.5709 4.92198C59.9895 4.91658 60.0814 5.11647 59.969 5.4941C59.7443 6.2472 59.6114 6.34228 58.828 6.3412C58.358 6.34066 57.8858 6.36335 57.418 6.40873C56.9291 6.45627 56.6195 6.74152 56.5379 7.23044C56.4866 7.53892 56.4537 7.85442 56.4515 8.16668C56.4423 9.77444 56.4342 11.3822 56.4531 12.99C56.4585 13.4324 56.2846 13.5691 55.8675 13.5751L55.8322 13.5755C55.287 13.5829 55.0134 13.5866 54.8761 13.4516C54.7377 13.3157 54.7376 13.039 54.7373 12.4838C54.7373 12.2842 54.7378 12.0846 54.7384 11.8851L54.7384 11.8809L54.7384 11.8766C54.7389 11.6771 54.7395 11.4775 54.7395 11.2779V10.1245H54.7454L54.7465 10.124ZM50.8892 4.88558C51.7288 5.1141 52.3711 5.62193 52.5937 6.41933L52.5942 6.41987C53.1464 8.39878 53.2485 10.4074 52.4489 12.3571C52.1393 13.1119 51.4667 13.49 50.6769 13.6618C49.5181 13.9141 48.3647 13.9044 47.2031 13.6688C46.2388 13.4733 45.4981 12.9698 45.2377 12.02C45.062 11.3797 44.9719 10.7161 44.8939 10.1421L44.8939 10.142L44.8939 10.1419L44.8938 10.1418L44.8938 10.1416L44.8938 10.1413C44.8627 9.91268 44.8336 9.69827 44.8018 9.5052C44.8337 9.1701 44.8561 8.86306 44.8771 8.57582C44.9195 7.99428 44.9561 7.49386 45.0541 7.00603C45.3204 5.68244 46.1637 4.93204 47.5181 4.75106C48.6521 4.59979 49.7709 4.58088 50.8892 4.88558ZM50.0227 12.3199C50.5445 12.2658 50.9767 11.9163 51.0086 11.328L51.0091 11.3274C51.0212 11.1085 51.0344 10.8894 51.0476 10.6702L51.0477 10.6682C51.1087 9.65656 51.1698 8.64234 51.1161 7.63541C51.0616 6.6257 50.5986 6.17244 49.8406 6.11949C49.2166 6.07573 48.5829 6.06979 47.9606 6.12706C47.4354 6.17568 46.9617 6.42635 46.8612 7.01035C46.7353 7.74184 46.6721 10.3496 46.7072 10.905C46.7569 11.6997 47.1075 12.2199 47.7866 12.3069C48.5219 12.4009 49.2842 12.3966 50.0227 12.3199ZM101.208 9.86228H101.203C101.203 9.62944 101.203 9.39659 101.204 9.16375C101.204 8.69806 101.205 8.23237 101.203 7.76668C101.196 5.85476 100.137 5.1546 98.7446 5.0055C97.6022 4.88272 96.4433 4.91007 95.2861 4.93737C94.9209 4.94599 94.5558 4.95461 94.1914 4.9585C94.0774 4.95958 93.857 5.22376 93.871 5.34423C93.9634 6.15351 94.2914 6.38204 95.1233 6.37609C96.2044 6.36799 97.2881 6.36097 98.3669 6.42418C99.2119 6.47334 99.7084 7.19456 99.5155 8.01843C99.4853 8.14701 99.2043 8.34528 99.1125 8.31178C98.1489 7.95763 97.1608 8.02741 96.1785 8.09677L96.0012 8.10919C95.2335 8.16214 94.5015 8.41335 94.0682 9.09352C93.5734 9.87039 93.5928 10.7672 93.743 11.6359C93.9062 12.5781 94.4691 13.288 95.4432 13.3647C97.0363 13.49 98.6414 13.5116 100.241 13.4949C100.853 13.4884 101.195 12.959 101.205 12.2734C101.214 11.7138 101.212 11.1543 101.21 10.5948C101.209 10.351 101.208 10.1072 101.208 9.86336L101.208 9.86228ZM97.8164 12.2404C97.6376 12.2215 97.4576 12.2078 97.2775 12.194C96.8672 12.1628 96.4569 12.1315 96.0612 12.0384C95.4464 11.8936 95.293 11.5322 95.3157 10.6699C95.3351 9.92009 95.4847 9.67914 96.1168 9.52031C97.0623 9.2826 98.0169 9.28962 98.9488 9.57757C99.1454 9.63808 99.3091 9.87093 99.4382 10.0589C99.5198 10.1772 99.535 10.3598 99.5339 10.5133C99.5327 10.7463 99.5354 10.9472 99.5377 11.1203V11.1205L99.5378 11.1213C99.5451 11.6682 99.5488 11.9384 99.4155 12.0744C99.2852 12.2073 99.0241 12.212 98.508 12.2212C98.3154 12.2247 98.0872 12.2288 97.817 12.2404H97.8164ZM64.4988 9.87802C63.9726 9.87401 63.4463 9.87001 62.9215 9.89659H62.9226C62.7524 9.90523 62.4882 10.0759 62.445 10.224C62.1851 11.1154 62.68 11.9544 63.6076 12.097C64.126 12.1765 64.6577 12.1748 65.1885 12.173C65.3757 12.1724 65.5628 12.1718 65.7491 12.1748C65.9554 12.1781 66.1619 12.174 66.3683 12.1698C66.669 12.1638 66.9696 12.1578 67.2688 12.1748C67.4482 12.1851 67.7108 12.2866 67.7772 12.4233C67.8799 12.6344 67.9315 12.8702 67.983 13.1058L67.9831 13.106C68.0042 13.2027 68.0254 13.2993 68.05 13.3941C67.962 13.4144 67.8741 13.44 67.7861 13.4657C67.5969 13.5209 67.4078 13.5762 67.2186 13.5773C66.9598 13.5786 66.7008 13.5817 66.4417 13.5849C65.4598 13.5967 64.4769 13.6085 63.5028 13.5243C61.6946 13.3676 60.7967 12.3639 60.7211 10.5508C60.6843 9.67887 60.6789 8.80313 60.7141 7.93172C60.794 5.94903 61.572 5.03386 63.5314 4.72106C64.7108 4.53305 65.9009 4.55196 66.9874 5.18837C67.6086 5.55249 68.0435 6.07599 68.1068 6.79775C68.1727 7.55193 68.2175 8.32394 68.1284 9.07109C68.0495 9.73289 67.7745 9.87281 67.1149 9.87768C66.6406 9.88106 66.1666 9.88026 65.6925 9.87946C65.485 9.87911 65.2776 9.87876 65.07 9.87876V9.88092C64.8797 9.88092 64.6893 9.87947 64.4988 9.87802ZM63.156 6.24832C62.9399 6.31261 62.6908 6.56599 62.6271 6.78262L62.6276 6.78208C62.4974 7.224 62.4418 7.69996 62.4488 8.16078C62.451 8.29368 62.7637 8.51356 62.9507 8.53301C63.3079 8.57051 63.67 8.56347 64.0322 8.55644L64.0324 8.55643C64.1763 8.55364 64.3203 8.55084 64.4639 8.55084V8.553C64.6115 8.553 64.7593 8.55468 64.9071 8.55637C65.2822 8.56064 65.6574 8.56491 66.0306 8.54166C66.2143 8.53031 66.4709 8.43685 66.5552 8.29693C66.8285 7.84312 66.4709 6.57355 65.9906 6.33584C65.0706 5.88096 64.1014 5.96848 63.156 6.24832ZM117.634 9.88003C118.445 9.87355 118.778 9.57263 118.824 8.75579C118.853 8.2512 118.864 7.74013 118.819 7.23771C118.722 6.16316 118.188 5.36252 117.167 4.96868C116.043 4.53487 114.872 4.54784 113.711 4.785C112.611 5.00974 111.793 5.61427 111.497 6.7477C111.116 8.20798 111.193 9.70013 111.382 11.1691C111.539 12.3862 112.303 13.2776 113.532 13.4062C114.721 13.5307 115.924 13.5339 117.126 13.5371H117.126C117.547 13.5382 117.967 13.5393 118.386 13.5456C118.487 13.5472 118.646 13.4094 118.683 13.3036C118.833 12.8692 118.307 12.1663 117.845 12.1658C117.464 12.165 117.084 12.1683 116.703 12.1715L116.703 12.1715C116.053 12.1771 115.403 12.1826 114.753 12.168C113.484 12.1388 113.076 11.705 113.022 10.4576C113.003 10.0243 113.166 9.86004 113.598 9.87355C114.077 9.88877 114.557 9.8855 115.037 9.88224C115.238 9.88087 115.44 9.87949 115.642 9.87949V9.88219C115.846 9.88219 116.05 9.8826 116.254 9.88301H116.255C116.714 9.88393 117.174 9.88485 117.633 9.88111L117.634 9.88003ZM115.107 8.55104C114.951 8.55104 114.796 8.55142 114.641 8.5518C114.272 8.5527 113.903 8.5536 113.534 8.54942C113.205 8.54563 113.002 8.40733 113.031 8.03943C113.04 7.92887 113.044 7.81788 113.049 7.70694V7.7068C113.055 7.53807 113.062 7.36944 113.084 7.20259C113.169 6.56888 113.593 6.13669 114.218 6.09833C114.792 6.06376 115.372 6.05457 115.945 6.09995C116.86 6.17181 117.578 7.47649 117.15 8.2901C117.076 8.42948 116.811 8.52564 116.627 8.53807C116.564 8.54239 116.5 8.54563 116.437 8.54833C116.147 8.5604 115.855 8.55732 115.564 8.55424C115.412 8.55263 115.259 8.55102 115.107 8.55158L115.107 8.55104ZM88.4751 9.88182C87.9705 9.88474 87.4657 9.88766 86.9617 9.87396L86.9622 9.87504C86.5598 9.8637 86.442 10.0674 86.4441 10.418C86.4517 11.6141 86.9525 12.1451 88.1632 12.1711C88.8085 12.185 89.4542 12.1789 90.0999 12.1728C90.4846 12.1692 90.8693 12.1656 91.2539 12.1662C91.7272 12.1673 92.2674 12.8248 92.1383 13.2753C92.1027 13.399 91.8903 13.5573 91.7601 13.5563C91.2873 13.5532 90.8134 13.5748 90.3394 13.5964C89.1577 13.6503 87.9757 13.7042 86.8104 13.3753C85.381 12.9717 84.9115 12.0814 84.7905 10.8934C84.6928 9.9361 84.7242 8.96146 84.7553 7.99575L84.758 7.91072C84.8202 5.97341 85.6754 4.99395 87.5884 4.71518C88.7364 4.54771 89.8882 4.57364 90.9568 5.13927C91.4679 5.40939 91.8233 5.81079 92.0297 6.35752C92.382 7.2889 92.3663 8.23973 92.1756 9.19055C92.0827 9.653 91.7439 9.88423 91.2577 9.88098C90.7464 9.87751 90.2348 9.87817 89.7234 9.87883C89.5188 9.8791 89.3142 9.87936 89.1097 9.87936C88.8982 9.87936 88.6867 9.88059 88.4751 9.88182ZM86.4885 7.70246C86.477 7.80261 86.4656 7.90225 86.4512 7.99932V7.99878C86.395 8.37803 86.6154 8.54388 86.9714 8.54766C87.3418 8.55149 87.712 8.55071 88.0822 8.54993C88.2347 8.54961 88.3872 8.54928 88.5397 8.54928V8.55199C88.6832 8.55199 88.8268 8.55373 88.9703 8.55547C89.3327 8.55986 89.6949 8.56425 90.0551 8.54064C90.2377 8.52876 90.4954 8.43367 90.5759 8.29429C91.034 7.50067 90.3285 6.17005 89.4068 6.0982C88.8185 6.05228 88.2107 6.01825 87.637 6.12143C87.2977 6.18248 86.8974 6.45584 86.7251 6.75082C86.5667 7.02087 86.5273 7.36453 86.4885 7.70246Z" fill="#58595B"/>
</svg>
