<svg width="104" height="40" viewBox="0 0 104 40" fill="none" xmlns="http://www.w3.org/2000/svg">
<path d="M14.0903 0C5.54667 0 0 4.69478 0 10.6333C0 12.4133 0.324133 13.856 0.922133 15.6498H1.1076C0.669066 13.9736 0.459333 12.7282 0.459333 11.3927C0.459333 5.90913 5.2728 1.04136 14.1527 1.04136C26.0589 1.04136 40.2948 7.51961 48.6841 18.4038H48.8679C41.9467 8.40183 28.6 0 14.0903 0ZM51.0605 31.2928C49.3081 35.8578 44.2173 38.3436 36.8299 38.3436C27.3537 38.3436 16.6469 33.1783 10.3497 27.1515C11.4651 26.1313 12.1496 24.7256 12.2641 23.2199C12.3787 21.7143 11.9147 20.2215 10.9665 19.0449C10.0182 17.8683 8.65677 17.0959 7.15861 16.8847C5.66046 16.6734 4.13791 17.0392 2.90015 17.9076C1.6624 18.776 0.802239 20.0821 0.494351 21.5605C0.186463 23.0388 0.453931 24.5788 1.24244 25.8675C2.03095 27.1562 3.28137 28.0971 4.7398 28.4991C6.19822 28.9012 7.75529 28.7341 9.0948 28.032C15.418 33.7837 25.7955 39.5372 36.1348 39.5372C43.7095 39.5372 49.2007 36.9857 51.2529 31.2928H51.0605ZM6.31973 27.0114C5.31841 27.0195 4.34597 26.6768 3.5718 26.043C2.79762 25.4092 2.27077 24.5244 2.08302 23.5428C1.89527 22.5612 2.05852 21.5449 2.54433 20.6711C3.03014 19.7972 3.80773 19.1212 4.74164 18.7606C5.67555 18.4001 6.7066 18.3779 7.6552 18.698C8.6038 19.0181 9.40983 19.6601 9.93289 20.5123C10.4559 21.3644 10.6629 22.3727 10.5177 23.3615C10.3724 24.3503 9.88425 25.2569 9.13813 25.9234C8.54645 25.2891 7.99036 24.6227 7.4724 23.9271H5.26587C6.03337 24.9231 6.86603 25.8674 7.7584 26.7537C7.29776 26.9233 6.81074 27.0106 6.31973 27.0114ZM46.6423 26.6655C46.4689 26.444 46.3545 26.0271 46.3545 25.4788V21.1663H44.6004V25.4148C44.6004 26.6516 44.9037 27.3972 45.5624 27.968C46.1838 28.4513 46.9491 28.7137 47.7369 28.7137C48.5247 28.7137 49.2899 28.4513 49.9113 27.968C50.57 27.3972 50.8733 26.6516 50.8733 25.4148V21.1663H49.1209V25.4753C49.1209 26.0237 49.0135 26.4406 48.8332 26.662C48.6952 26.8156 48.5263 26.9384 48.3376 27.0225C48.1488 27.1065 47.9444 27.15 47.7377 27.15C47.531 27.15 47.3267 27.1065 47.1379 27.0225C46.9492 26.9384 46.7803 26.8156 46.6423 26.662V26.6655ZM60.7169 20.9847C59.8693 20.9847 59.0789 21.4171 58.5243 22.2855C58.345 21.8945 58.0561 21.5636 57.6926 21.3328C57.329 21.102 56.9063 20.9811 56.4755 20.9847C56.1637 20.9923 55.8572 21.0662 55.5762 21.2013C55.2953 21.3364 55.0464 21.5297 54.8461 21.7683C54.7322 21.9001 54.6409 22.0497 54.5757 22.2111L54.4596 22.1644C54.5319 21.8373 54.5668 21.503 54.5636 21.168H52.9031V28.5337H54.6572V24.3354C54.6572 23.0224 55.3505 22.5467 56.0092 22.5467C56.6679 22.5467 57.1463 23.0017 57.1463 24.2195V28.5302H58.8987V24.3354C58.8987 23.0224 59.592 22.5467 60.2541 22.5467C60.8851 22.5467 61.3912 23.0017 61.3912 24.2195V28.5302H63.1419V24.043C63.1419 22.1489 62.1296 20.9812 60.7169 20.9812V20.9847ZM16.016 26.662C15.834 26.4406 15.7283 26.0237 15.7283 25.4753V21.1663H13.9741V25.4148C13.9741 26.6516 14.2792 27.3972 14.9379 27.968C15.5444 28.4787 16.3203 28.7446 17.1132 28.7136C17.9056 28.7443 18.6808 28.4784 19.2868 27.968C19.9455 27.3972 20.2505 26.6516 20.2505 25.4148V21.1663H18.4964V25.4753C18.4964 26.0237 18.3889 26.4406 18.2087 26.662C18.0705 26.8156 17.9015 26.9384 17.7126 27.0225C17.5237 27.1066 17.3192 27.1501 17.1123 27.1501C16.9055 27.1501 16.701 27.1066 16.5121 27.0225C16.3232 26.9384 16.1542 26.8156 16.016 26.662ZM32.76 21.8306C32.6604 21.9415 32.5812 22.0692 32.526 22.2077L32.4099 22.161C32.4822 21.8338 32.5171 21.4996 32.5139 21.1646H30.8533V28.5302H32.6057V24.427C32.6057 23.1141 33.3961 22.5467 34.0531 22.5467C34.2535 22.5345 34.4538 22.5728 34.6355 22.658C34.8172 22.7433 34.9746 22.8727 35.0931 23.0345C35.2664 23.2542 35.3808 23.6728 35.3808 24.2195V28.5302H37.1332V24.2817C37.1332 23.0449 36.9599 22.2198 36.2891 21.6178C35.7967 21.1799 35.1522 20.9514 34.4933 20.9812C34.1594 20.9858 33.8307 21.0643 33.5309 21.2112C33.2311 21.3581 32.9678 21.5696 32.76 21.8306ZM68.2639 16.7414C66.1093 16.7414 64.7885 18.1252 64.7885 19.7945C64.7885 21.0781 65.5789 22.2163 67.1615 22.8927L68.2777 23.3563C69.3853 23.8337 69.9244 24.581 69.9244 25.4096C69.9244 26.4164 69.0716 27.0737 68.1217 27.0737C66.9951 27.0737 66.1319 26.4112 65.78 25.2816L64.2824 25.8161C64.5071 26.6438 64.9978 27.3751 65.6791 27.8975C66.3605 28.42 67.1949 28.7049 68.0541 28.7084C70.0197 28.7084 71.6837 27.3487 71.6837 25.2954C71.6837 23.5967 70.5241 22.4412 68.9728 21.8081L67.8201 21.3376C66.9812 20.9916 66.5635 20.3688 66.5635 19.8049C66.5635 19.0109 67.2568 18.3778 68.2465 18.3778C68.9537 18.3778 69.5465 18.7757 70.0076 19.4814L71.3596 18.5612C70.6611 17.3537 69.5621 16.7414 68.2639 16.7414ZM104 25.0446C104 22.7249 102.662 20.9674 100.516 20.9674C98.2973 20.9674 96.9887 22.6643 96.9887 24.8388C96.9887 27.1758 98.6301 28.7015 100.606 28.7015C102.014 28.7015 102.965 28.122 103.508 27.4473L102.282 26.4942C101.923 26.9595 101.436 27.1861 100.669 27.1861C100.198 27.1831 99.7471 27.0003 99.4079 26.6753C99.0687 26.3502 98.8672 25.9078 98.8451 25.439H104V25.0446ZM98.8676 24.1503C98.956 23.2386 99.5245 22.4931 100.554 22.4931C101.454 22.4931 102.114 23.1003 102.258 24.1503H98.8676ZM43.0335 22.628V21.1542H41.1875V18.3865H39.4368V21.1542H38.5147V22.628H39.4368V26.4337C39.4368 28.1825 40.3849 28.7101 41.7629 28.7101C42.2034 28.705 42.6372 28.6028 43.0335 28.4109V27.2104C42.7678 27.2967 42.4895 27.3377 42.2101 27.3314C41.5307 27.3314 41.1875 27.0547 41.1875 26.2036V22.6384L43.0335 22.628ZM23.5733 24.8491C23.5733 23.6382 24.1193 22.5467 25.3725 22.5467C26.6257 22.5467 27.17 23.6417 27.17 24.8491C27.17 26.0566 26.624 27.1498 25.3725 27.1498C24.1211 27.1498 23.5733 26.0548 23.5733 24.8491ZM28.8305 21.1646H27.1717C27.1721 21.4998 27.2098 21.834 27.2844 22.161L27.1475 22.2042C27.0246 21.9355 26.8348 21.7026 26.5963 21.5278C26.1335 21.1706 25.5642 20.9782 24.9791 20.9812C23.1729 20.9812 21.8209 22.5381 21.8209 24.8491C21.8209 27.1602 23.1729 28.7136 24.9791 28.7136C25.5643 28.7175 26.1338 28.5249 26.5963 28.167C26.835 27.993 27.0248 27.7607 27.1475 27.4923L27.2844 27.5356C27.2099 27.8619 27.1721 28.1955 27.1717 28.5302H28.8305V21.1646ZM92.0573 27.1498C90.8041 27.1498 90.2581 26.0548 90.2581 24.8491C90.2581 23.6434 90.8041 22.5467 92.0573 22.5467C93.3105 22.5467 93.8565 23.6417 93.8565 24.8491C93.8565 26.0566 93.3053 27.1498 92.0539 27.1498H92.0573ZM90.2581 28.5337C90.2585 28.1987 90.2195 27.8649 90.142 27.539L90.2807 27.4958C90.4043 27.7641 90.5946 27.9963 90.8336 28.1704C91.296 28.5284 91.8656 28.7209 92.4508 28.7171C94.2552 28.7171 95.6089 27.1602 95.6089 24.8526C95.6089 22.545 94.2552 20.9847 92.4508 20.9847C91.8654 20.9814 91.2959 21.1746 90.8336 21.533C90.5946 21.7071 90.4043 21.9394 90.2807 22.2077L90.142 22.1644C90.2194 21.8385 90.2584 21.5047 90.2581 21.1698H88.5976V32.6732H90.2581V28.5337ZM76.5319 22.5C76.7942 22.5075 77.0523 22.568 77.2906 22.6777C77.5289 22.7874 77.7425 22.9441 77.9185 23.1383L78.728 21.8582C78.4479 21.5752 78.1131 21.3519 77.7439 21.2017C77.3748 21.0516 76.979 20.9777 76.5804 20.9847C74.2941 20.9847 72.8243 22.7924 72.8243 24.8526C72.8243 26.9128 74.2941 28.7171 76.5804 28.7171C76.9783 28.7251 77.3738 28.6526 77.7429 28.504C78.112 28.3553 78.4471 28.1336 78.728 27.8521L77.9185 26.5721C77.7424 26.7661 77.5288 26.9225 77.2905 27.0319C77.0521 27.1413 76.7941 27.2014 76.5319 27.2086C75.4035 27.2086 74.5524 26.3074 74.5524 24.8595C74.5524 23.4116 75.4 22.4965 76.5284 22.4965L76.5319 22.5ZM81.3089 24.8526C81.3089 23.6417 81.8567 22.5502 83.1099 22.5502C84.3631 22.5502 84.9091 23.6452 84.9091 24.8526C84.9091 26.06 84.3613 27.1533 83.1099 27.1533C81.8584 27.1533 81.3055 26.0548 81.3055 24.8491L81.3089 24.8526ZM86.5696 21.168H84.9091C84.9091 21.5034 84.9474 21.8377 85.0235 22.1644L84.8848 22.2077C84.7617 21.9396 84.5727 21.7069 84.3353 21.5313C83.8723 21.1745 83.3031 20.9821 82.7181 20.9847C80.9085 20.9847 79.5583 22.5415 79.5583 24.8526C79.5583 27.1637 80.9103 28.7171 82.7181 28.7171C83.3033 28.7204 83.8727 28.5279 84.3353 28.1704C84.5726 27.9954 84.7617 27.7634 84.8848 27.4958L85.0235 27.539C84.9474 27.8651 84.9091 28.1989 84.9091 28.5337H86.5696V21.1646V21.168Z" fill="#58595B"/>
</svg>
